G04 EAGLE Gerber RS-274X export*
G75*
%MOMM*%
%FSLAX34Y34*%
%LPD*%
%INTop Copper*%
%IPPOS*%
%AMOC8*
5,1,8,0,0,1.08239X$1,22.5*%
G01*
%ADD10C,5.016000*%
%ADD11C,5.916000*%
%ADD12R,1.651000X1.000000*%
%ADD13C,1.000000*%
%ADD14C,1.879600*%
%ADD15C,0.654800*%
%ADD16C,0.254000*%
%ADD17C,0.304800*%

G36*
X535118Y3746D02*
X535118Y3746D01*
X535237Y3753D01*
X535275Y3766D01*
X535316Y3771D01*
X535426Y3814D01*
X535539Y3851D01*
X535574Y3873D01*
X535611Y3888D01*
X535707Y3958D01*
X535808Y4021D01*
X535836Y4051D01*
X535869Y4074D01*
X535945Y4166D01*
X536026Y4253D01*
X536046Y4288D01*
X536071Y4319D01*
X536122Y4427D01*
X536180Y4531D01*
X536190Y4571D01*
X536207Y4607D01*
X536229Y4724D01*
X536259Y4839D01*
X536263Y4900D01*
X536267Y4920D01*
X536265Y4940D01*
X536269Y5000D01*
X536269Y535000D01*
X536254Y535118D01*
X536247Y535237D01*
X536234Y535275D01*
X536229Y535316D01*
X536186Y535426D01*
X536149Y535539D01*
X536127Y535574D01*
X536112Y535611D01*
X536043Y535707D01*
X535979Y535808D01*
X535949Y535836D01*
X535926Y535869D01*
X535834Y535945D01*
X535747Y536026D01*
X535712Y536046D01*
X535681Y536071D01*
X535573Y536122D01*
X535469Y536180D01*
X535429Y536190D01*
X535393Y536207D01*
X535276Y536229D01*
X535161Y536259D01*
X535101Y536263D01*
X535081Y536267D01*
X535060Y536265D01*
X535000Y536269D01*
X5000Y536269D01*
X4882Y536254D01*
X4763Y536247D01*
X4725Y536234D01*
X4684Y536229D01*
X4574Y536186D01*
X4461Y536149D01*
X4426Y536127D01*
X4389Y536112D01*
X4293Y536043D01*
X4192Y535979D01*
X4164Y535949D01*
X4131Y535926D01*
X4056Y535834D01*
X3974Y535747D01*
X3954Y535712D01*
X3929Y535681D01*
X3878Y535573D01*
X3820Y535469D01*
X3810Y535429D01*
X3793Y535393D01*
X3771Y535276D01*
X3741Y535161D01*
X3737Y535101D01*
X3733Y535081D01*
X3735Y535060D01*
X3731Y535000D01*
X3731Y5000D01*
X3746Y4882D01*
X3753Y4763D01*
X3766Y4725D01*
X3771Y4684D01*
X3814Y4574D01*
X3851Y4461D01*
X3873Y4426D01*
X3888Y4389D01*
X3958Y4293D01*
X4021Y4192D01*
X4051Y4164D01*
X4074Y4131D01*
X4166Y4056D01*
X4253Y3974D01*
X4288Y3954D01*
X4319Y3929D01*
X4427Y3878D01*
X4531Y3820D01*
X4571Y3810D01*
X4607Y3793D01*
X4724Y3771D01*
X4839Y3741D01*
X4900Y3737D01*
X4920Y3733D01*
X4940Y3735D01*
X5000Y3731D01*
X535000Y3731D01*
X535118Y3746D01*
G37*
%LPC*%
G36*
X262363Y192459D02*
X262363Y192459D01*
X247382Y195439D01*
X233271Y201284D01*
X220571Y209770D01*
X209770Y220571D01*
X201284Y233271D01*
X195439Y247382D01*
X192459Y262363D01*
X192459Y277637D01*
X195439Y292618D01*
X201284Y306729D01*
X209770Y319429D01*
X220571Y330230D01*
X233271Y338716D01*
X247382Y344561D01*
X262363Y347541D01*
X277637Y347541D01*
X292618Y344561D01*
X306729Y338716D01*
X319429Y330230D01*
X330230Y319429D01*
X338716Y306729D01*
X344561Y292618D01*
X347541Y277637D01*
X347541Y262363D01*
X344561Y247382D01*
X338716Y233271D01*
X330230Y220571D01*
X319429Y209770D01*
X306729Y201284D01*
X292618Y195439D01*
X277637Y192459D01*
X262363Y192459D01*
G37*
%LPD*%
%LPC*%
G36*
X89051Y352149D02*
X89051Y352149D01*
X82349Y353945D01*
X76340Y357414D01*
X71434Y362320D01*
X67965Y368329D01*
X66169Y375031D01*
X66169Y381969D01*
X67965Y388671D01*
X71434Y394680D01*
X76340Y399586D01*
X82349Y403055D01*
X89051Y404851D01*
X146149Y404851D01*
X152851Y403055D01*
X158860Y399586D01*
X163766Y394680D01*
X167235Y388671D01*
X169031Y381969D01*
X169031Y375031D01*
X167235Y368329D01*
X163766Y362320D01*
X158860Y357414D01*
X152851Y353945D01*
X146149Y352149D01*
X89051Y352149D01*
G37*
%LPD*%
%LPC*%
G36*
X278118Y15455D02*
X278118Y15455D01*
X276739Y16834D01*
X276661Y16894D01*
X276589Y16962D01*
X276536Y16991D01*
X276488Y17028D01*
X276397Y17068D01*
X276310Y17116D01*
X276252Y17131D01*
X276196Y17155D01*
X276098Y17170D01*
X276002Y17195D01*
X275902Y17201D01*
X275882Y17205D01*
X275870Y17203D01*
X275842Y17205D01*
X218842Y17205D01*
X207205Y28842D01*
X207205Y68317D01*
X207193Y68415D01*
X207190Y68514D01*
X207173Y68572D01*
X207165Y68632D01*
X207129Y68724D01*
X207101Y68819D01*
X207071Y68872D01*
X207048Y68928D01*
X206990Y69008D01*
X206940Y69093D01*
X206874Y69169D01*
X206862Y69185D01*
X206852Y69193D01*
X206834Y69214D01*
X199214Y76834D01*
X199136Y76894D01*
X199064Y76962D01*
X199011Y76991D01*
X198963Y77028D01*
X198872Y77068D01*
X198785Y77116D01*
X198727Y77131D01*
X198671Y77155D01*
X198573Y77170D01*
X198477Y77195D01*
X198377Y77201D01*
X198357Y77205D01*
X198345Y77203D01*
X198317Y77205D01*
X108842Y77205D01*
X107190Y78857D01*
X107190Y78873D01*
X107173Y78931D01*
X107165Y78991D01*
X107129Y79083D01*
X107101Y79179D01*
X107071Y79231D01*
X107048Y79287D01*
X106990Y79367D01*
X106940Y79453D01*
X106874Y79528D01*
X106862Y79544D01*
X106852Y79552D01*
X106834Y79573D01*
X93319Y93088D01*
X91459Y94948D01*
X91459Y212652D01*
X91447Y212750D01*
X91444Y212849D01*
X91427Y212907D01*
X91419Y212967D01*
X91383Y213059D01*
X91355Y213155D01*
X91325Y213207D01*
X91302Y213263D01*
X91244Y213343D01*
X91194Y213428D01*
X91128Y213504D01*
X91116Y213520D01*
X91106Y213528D01*
X91088Y213549D01*
X77279Y227358D01*
X77201Y227418D01*
X77129Y227486D01*
X77076Y227515D01*
X77028Y227552D01*
X76937Y227592D01*
X76850Y227640D01*
X76792Y227655D01*
X76736Y227679D01*
X76638Y227694D01*
X76543Y227719D01*
X76443Y227725D01*
X76422Y227729D01*
X76410Y227727D01*
X76382Y227729D01*
X65449Y227729D01*
X64704Y228474D01*
X64704Y239526D01*
X65449Y240271D01*
X76382Y240271D01*
X76480Y240283D01*
X76579Y240286D01*
X76637Y240303D01*
X76697Y240311D01*
X76789Y240347D01*
X76885Y240375D01*
X76937Y240405D01*
X76993Y240428D01*
X77073Y240486D01*
X77159Y240536D01*
X77234Y240602D01*
X77250Y240614D01*
X77258Y240624D01*
X77279Y240642D01*
X92088Y255451D01*
X92148Y255529D01*
X92216Y255601D01*
X92245Y255654D01*
X92282Y255702D01*
X92322Y255793D01*
X92370Y255880D01*
X92385Y255938D01*
X92409Y255994D01*
X92424Y256092D01*
X92449Y256187D01*
X92455Y256288D01*
X92459Y256308D01*
X92457Y256320D01*
X92459Y256348D01*
X92459Y276052D01*
X172088Y355681D01*
X172148Y355759D01*
X172216Y355831D01*
X172242Y355879D01*
X172261Y355902D01*
X172265Y355910D01*
X172282Y355932D01*
X172322Y356023D01*
X172370Y356110D01*
X172382Y356158D01*
X172397Y356189D01*
X172399Y356202D01*
X172409Y356224D01*
X172424Y356322D01*
X172449Y356417D01*
X172453Y356484D01*
X172457Y356502D01*
X172456Y356519D01*
X172459Y356538D01*
X172457Y356550D01*
X172459Y356578D01*
X172459Y403422D01*
X172447Y403520D01*
X172444Y403619D01*
X172427Y403677D01*
X172419Y403737D01*
X172383Y403829D01*
X172355Y403925D01*
X172325Y403977D01*
X172302Y404033D01*
X172244Y404113D01*
X172194Y404198D01*
X172128Y404274D01*
X172116Y404290D01*
X172106Y404298D01*
X172088Y404319D01*
X164319Y412088D01*
X164241Y412148D01*
X164169Y412216D01*
X164116Y412245D01*
X164068Y412282D01*
X163977Y412322D01*
X163890Y412370D01*
X163832Y412385D01*
X163776Y412409D01*
X163678Y412424D01*
X163583Y412449D01*
X163482Y412455D01*
X163462Y412459D01*
X163450Y412457D01*
X163422Y412459D01*
X84412Y412459D01*
X84314Y412447D01*
X84215Y412444D01*
X84157Y412427D01*
X84097Y412419D01*
X84005Y412383D01*
X83910Y412355D01*
X83857Y412325D01*
X83801Y412302D01*
X83721Y412244D01*
X83636Y412194D01*
X83560Y412128D01*
X83544Y412116D01*
X83536Y412106D01*
X83515Y412088D01*
X81882Y410455D01*
X78118Y410455D01*
X75455Y413118D01*
X75455Y416882D01*
X78118Y419545D01*
X81882Y419545D01*
X83515Y417912D01*
X83593Y417852D01*
X83665Y417784D01*
X83718Y417755D01*
X83766Y417718D01*
X83857Y417678D01*
X83944Y417630D01*
X84002Y417615D01*
X84058Y417591D01*
X84156Y417576D01*
X84252Y417551D01*
X84352Y417545D01*
X84372Y417541D01*
X84384Y417543D01*
X84412Y417541D01*
X166052Y417541D01*
X177541Y406052D01*
X177541Y353948D01*
X97912Y274319D01*
X97852Y274241D01*
X97784Y274169D01*
X97755Y274116D01*
X97718Y274068D01*
X97678Y273977D01*
X97630Y273890D01*
X97615Y273832D01*
X97591Y273776D01*
X97576Y273678D01*
X97551Y273583D01*
X97545Y273482D01*
X97541Y273462D01*
X97543Y273450D01*
X97541Y273422D01*
X97541Y253718D01*
X95681Y251858D01*
X84127Y240304D01*
X84067Y240226D01*
X83999Y240154D01*
X83970Y240101D01*
X83933Y240053D01*
X83893Y239962D01*
X83845Y239875D01*
X83830Y239817D01*
X83806Y239761D01*
X83791Y239663D01*
X83766Y239568D01*
X83760Y239468D01*
X83756Y239447D01*
X83758Y239435D01*
X83756Y239407D01*
X83756Y228593D01*
X83768Y228495D01*
X83771Y228396D01*
X83788Y228338D01*
X83796Y228278D01*
X83832Y228186D01*
X83860Y228090D01*
X83890Y228038D01*
X83913Y227982D01*
X83971Y227902D01*
X84021Y227816D01*
X84087Y227741D01*
X84099Y227725D01*
X84109Y227717D01*
X84127Y227696D01*
X96541Y215282D01*
X96541Y97578D01*
X96553Y97480D01*
X96556Y97381D01*
X96573Y97323D01*
X96581Y97263D01*
X96617Y97171D01*
X96645Y97075D01*
X96675Y97023D01*
X96698Y96967D01*
X96756Y96887D01*
X96806Y96802D01*
X96872Y96726D01*
X96884Y96710D01*
X96894Y96702D01*
X96912Y96681D01*
X110427Y83166D01*
X110505Y83106D01*
X110577Y83038D01*
X110630Y83009D01*
X110678Y82972D01*
X110769Y82932D01*
X110856Y82884D01*
X110914Y82869D01*
X110970Y82845D01*
X111068Y82830D01*
X111163Y82805D01*
X111263Y82799D01*
X111284Y82795D01*
X111296Y82797D01*
X111324Y82795D01*
X201158Y82795D01*
X212795Y71158D01*
X212795Y31683D01*
X212807Y31585D01*
X212810Y31486D01*
X212827Y31428D01*
X212835Y31368D01*
X212871Y31276D01*
X212899Y31181D01*
X212929Y31128D01*
X212952Y31072D01*
X213010Y30992D01*
X213060Y30907D01*
X213126Y30831D01*
X213138Y30815D01*
X213148Y30807D01*
X213166Y30786D01*
X220786Y23166D01*
X220864Y23106D01*
X220936Y23038D01*
X220989Y23009D01*
X221037Y22972D01*
X221128Y22932D01*
X221215Y22884D01*
X221273Y22869D01*
X221329Y22845D01*
X221427Y22830D01*
X221523Y22805D01*
X221623Y22799D01*
X221643Y22795D01*
X221655Y22797D01*
X221683Y22795D01*
X275842Y22795D01*
X275940Y22807D01*
X276039Y22810D01*
X276097Y22827D01*
X276157Y22835D01*
X276249Y22871D01*
X276345Y22899D01*
X276397Y22929D01*
X276453Y22952D01*
X276533Y23010D01*
X276618Y23060D01*
X276694Y23126D01*
X276710Y23138D01*
X276718Y23148D01*
X276739Y23166D01*
X278118Y24545D01*
X281882Y24545D01*
X284545Y21882D01*
X284545Y18118D01*
X281882Y15455D01*
X278118Y15455D01*
G37*
%LPD*%
%LPC*%
G36*
X113118Y145455D02*
X113118Y145455D01*
X110455Y148118D01*
X110455Y151882D01*
X111834Y153261D01*
X111894Y153339D01*
X111962Y153411D01*
X111991Y153464D01*
X112028Y153512D01*
X112068Y153603D01*
X112116Y153690D01*
X112131Y153748D01*
X112155Y153804D01*
X112170Y153902D01*
X112195Y153998D01*
X112201Y154098D01*
X112205Y154118D01*
X112203Y154130D01*
X112205Y154158D01*
X112205Y156158D01*
X118842Y162795D01*
X157317Y162795D01*
X157415Y162807D01*
X157514Y162810D01*
X157572Y162827D01*
X157632Y162835D01*
X157724Y162871D01*
X157819Y162899D01*
X157872Y162929D01*
X157928Y162952D01*
X158008Y163010D01*
X158093Y163060D01*
X158169Y163126D01*
X158185Y163138D01*
X158193Y163148D01*
X158214Y163166D01*
X161834Y166786D01*
X161894Y166864D01*
X161962Y166936D01*
X161991Y166989D01*
X162028Y167037D01*
X162068Y167128D01*
X162116Y167215D01*
X162131Y167273D01*
X162155Y167329D01*
X162170Y167427D01*
X162195Y167523D01*
X162201Y167623D01*
X162205Y167643D01*
X162203Y167655D01*
X162205Y167683D01*
X162205Y193087D01*
X162193Y193185D01*
X162190Y193284D01*
X162173Y193342D01*
X162165Y193402D01*
X162129Y193494D01*
X162101Y193589D01*
X162071Y193642D01*
X162048Y193698D01*
X161990Y193778D01*
X161940Y193863D01*
X161874Y193939D01*
X161862Y193955D01*
X161852Y193963D01*
X161834Y193984D01*
X128460Y227358D01*
X128382Y227418D01*
X128310Y227486D01*
X128257Y227515D01*
X128209Y227552D01*
X128118Y227592D01*
X128031Y227640D01*
X127973Y227655D01*
X127917Y227679D01*
X127819Y227694D01*
X127723Y227719D01*
X127623Y227725D01*
X127603Y227729D01*
X127591Y227727D01*
X127563Y227729D01*
X116989Y227729D01*
X116244Y228474D01*
X116244Y239048D01*
X116232Y239146D01*
X116229Y239245D01*
X116212Y239303D01*
X116204Y239363D01*
X116168Y239455D01*
X116140Y239550D01*
X116110Y239603D01*
X116087Y239659D01*
X116029Y239739D01*
X115979Y239824D01*
X115913Y239900D01*
X115901Y239916D01*
X115891Y239924D01*
X115873Y239945D01*
X104214Y251604D01*
X102205Y253612D01*
X102205Y271158D01*
X181834Y350786D01*
X181894Y350864D01*
X181962Y350936D01*
X181991Y350989D01*
X182028Y351037D01*
X182068Y351128D01*
X182116Y351215D01*
X182131Y351273D01*
X182155Y351329D01*
X182170Y351427D01*
X182195Y351523D01*
X182201Y351623D01*
X182205Y351643D01*
X182203Y351655D01*
X182205Y351683D01*
X182205Y408317D01*
X182193Y408415D01*
X182190Y408514D01*
X182173Y408572D01*
X182165Y408632D01*
X182129Y408724D01*
X182101Y408819D01*
X182071Y408872D01*
X182048Y408928D01*
X181990Y409008D01*
X181940Y409093D01*
X181874Y409169D01*
X181862Y409185D01*
X181852Y409193D01*
X181834Y409214D01*
X159214Y431834D01*
X159136Y431894D01*
X159064Y431962D01*
X159011Y431991D01*
X158963Y432028D01*
X158872Y432068D01*
X158785Y432116D01*
X158727Y432131D01*
X158671Y432155D01*
X158573Y432170D01*
X158477Y432195D01*
X158377Y432201D01*
X158357Y432205D01*
X158345Y432203D01*
X158317Y432205D01*
X149158Y432205D01*
X149060Y432193D01*
X148961Y432190D01*
X148903Y432173D01*
X148843Y432165D01*
X148751Y432129D01*
X148656Y432101D01*
X148603Y432071D01*
X148547Y432048D01*
X148467Y431990D01*
X148382Y431940D01*
X148306Y431874D01*
X148290Y431862D01*
X148282Y431852D01*
X148261Y431834D01*
X146882Y430455D01*
X143118Y430455D01*
X140455Y433118D01*
X140455Y436882D01*
X143118Y439545D01*
X146882Y439545D01*
X148261Y438166D01*
X148339Y438106D01*
X148411Y438038D01*
X148464Y438009D01*
X148512Y437972D01*
X148603Y437932D01*
X148690Y437884D01*
X148748Y437869D01*
X148804Y437845D01*
X148902Y437830D01*
X148998Y437805D01*
X149098Y437799D01*
X149118Y437795D01*
X149130Y437797D01*
X149158Y437795D01*
X161158Y437795D01*
X187795Y411158D01*
X187795Y348842D01*
X108166Y269214D01*
X108106Y269136D01*
X108038Y269064D01*
X108009Y269011D01*
X107972Y268963D01*
X107932Y268872D01*
X107884Y268785D01*
X107869Y268727D01*
X107845Y268671D01*
X107830Y268573D01*
X107805Y268477D01*
X107799Y268377D01*
X107795Y268357D01*
X107797Y268345D01*
X107795Y268317D01*
X107795Y256453D01*
X107807Y256355D01*
X107810Y256256D01*
X107827Y256198D01*
X107835Y256138D01*
X107871Y256046D01*
X107899Y255951D01*
X107929Y255898D01*
X107952Y255842D01*
X108010Y255762D01*
X108060Y255677D01*
X108126Y255601D01*
X108138Y255585D01*
X108148Y255577D01*
X108166Y255556D01*
X123080Y240642D01*
X123158Y240582D01*
X123230Y240514D01*
X123283Y240485D01*
X123331Y240448D01*
X123422Y240408D01*
X123509Y240360D01*
X123567Y240345D01*
X123623Y240321D01*
X123721Y240306D01*
X123817Y240281D01*
X123917Y240275D01*
X123937Y240271D01*
X123949Y240273D01*
X123977Y240271D01*
X134551Y240271D01*
X135296Y239526D01*
X135296Y228952D01*
X135308Y228854D01*
X135311Y228755D01*
X135328Y228697D01*
X135336Y228637D01*
X135372Y228545D01*
X135400Y228450D01*
X135430Y228397D01*
X135453Y228341D01*
X135511Y228261D01*
X135561Y228176D01*
X135627Y228100D01*
X135639Y228084D01*
X135649Y228076D01*
X135667Y228055D01*
X165786Y197936D01*
X167795Y195928D01*
X167795Y164842D01*
X160158Y157205D01*
X121683Y157205D01*
X121585Y157193D01*
X121486Y157190D01*
X121428Y157173D01*
X121368Y157165D01*
X121276Y157129D01*
X121181Y157101D01*
X121128Y157071D01*
X121072Y157048D01*
X120992Y156990D01*
X120907Y156940D01*
X120831Y156874D01*
X120815Y156862D01*
X120807Y156852D01*
X120786Y156834D01*
X118587Y154635D01*
X118514Y154541D01*
X118436Y154452D01*
X118417Y154416D01*
X118392Y154384D01*
X118345Y154274D01*
X118291Y154168D01*
X118282Y154129D01*
X118266Y154092D01*
X118247Y153974D01*
X118221Y153858D01*
X118222Y153818D01*
X118216Y153778D01*
X118227Y153659D01*
X118231Y153540D01*
X118242Y153501D01*
X118246Y153461D01*
X118286Y153349D01*
X118319Y153235D01*
X118340Y153200D01*
X118354Y153162D01*
X118420Y153063D01*
X118481Y152961D01*
X118521Y152916D01*
X118532Y152899D01*
X118547Y152885D01*
X118587Y152840D01*
X119545Y151882D01*
X119545Y148118D01*
X116882Y145455D01*
X113118Y145455D01*
G37*
%LPD*%
%LPC*%
G36*
X281524Y135883D02*
X281524Y135883D01*
X268319Y149088D01*
X268241Y149148D01*
X268169Y149216D01*
X268116Y149245D01*
X268068Y149282D01*
X267977Y149322D01*
X267890Y149370D01*
X267832Y149385D01*
X267776Y149409D01*
X267678Y149424D01*
X267583Y149449D01*
X267482Y149455D01*
X267462Y149459D01*
X267450Y149457D01*
X267422Y149459D01*
X256412Y149459D01*
X256314Y149447D01*
X256215Y149444D01*
X256157Y149427D01*
X256097Y149419D01*
X256005Y149383D01*
X255910Y149355D01*
X255857Y149325D01*
X255801Y149302D01*
X255721Y149244D01*
X255636Y149194D01*
X255560Y149128D01*
X255544Y149116D01*
X255536Y149106D01*
X255515Y149088D01*
X253882Y147455D01*
X250118Y147455D01*
X247455Y150118D01*
X247455Y153882D01*
X250118Y156545D01*
X253882Y156545D01*
X255515Y154912D01*
X255593Y154852D01*
X255665Y154784D01*
X255718Y154755D01*
X255766Y154718D01*
X255857Y154678D01*
X255944Y154630D01*
X256002Y154615D01*
X256058Y154591D01*
X256156Y154576D01*
X256252Y154551D01*
X256352Y154545D01*
X256372Y154541D01*
X256384Y154543D01*
X256412Y154541D01*
X270052Y154541D01*
X283257Y141336D01*
X283335Y141276D01*
X283407Y141208D01*
X283460Y141179D01*
X283508Y141142D01*
X283599Y141102D01*
X283686Y141054D01*
X283744Y141039D01*
X283800Y141015D01*
X283898Y141000D01*
X283993Y140975D01*
X284094Y140969D01*
X284114Y140965D01*
X284126Y140967D01*
X284154Y140965D01*
X284544Y140965D01*
X284682Y140982D01*
X284820Y140995D01*
X284839Y141002D01*
X284859Y141005D01*
X284989Y141056D01*
X285120Y141103D01*
X285136Y141114D01*
X285155Y141122D01*
X285268Y141203D01*
X285383Y141281D01*
X285396Y141297D01*
X285412Y141308D01*
X285501Y141416D01*
X285593Y141520D01*
X285602Y141538D01*
X285615Y141553D01*
X285674Y141679D01*
X285738Y141803D01*
X285742Y141823D01*
X285751Y141841D01*
X285777Y141977D01*
X285807Y142113D01*
X285807Y142134D01*
X285811Y142153D01*
X285802Y142292D01*
X285798Y142431D01*
X285792Y142451D01*
X285791Y142471D01*
X285748Y142603D01*
X285709Y142737D01*
X285699Y142754D01*
X285693Y142773D01*
X285618Y142891D01*
X285548Y143011D01*
X285529Y143032D01*
X285523Y143042D01*
X285508Y143056D01*
X285455Y143116D01*
X285455Y146882D01*
X288118Y149545D01*
X291882Y149545D01*
X293515Y147912D01*
X293593Y147852D01*
X293665Y147784D01*
X293718Y147755D01*
X293766Y147718D01*
X293857Y147678D01*
X293944Y147630D01*
X294002Y147615D01*
X294058Y147591D01*
X294156Y147576D01*
X294252Y147551D01*
X294352Y147545D01*
X294372Y147541D01*
X294384Y147543D01*
X294412Y147541D01*
X298777Y147541D01*
X298915Y147558D01*
X299053Y147571D01*
X299072Y147578D01*
X299092Y147581D01*
X299222Y147632D01*
X299353Y147679D01*
X299369Y147690D01*
X299388Y147698D01*
X299501Y147779D01*
X299616Y147857D01*
X299629Y147873D01*
X299645Y147884D01*
X299734Y147992D01*
X299826Y148096D01*
X299835Y148114D01*
X299848Y148129D01*
X299907Y148255D01*
X299971Y148379D01*
X299975Y148399D01*
X299984Y148417D01*
X300010Y148553D01*
X300040Y148689D01*
X300040Y148710D01*
X300044Y148729D01*
X300035Y148868D01*
X300031Y149007D01*
X300025Y149027D01*
X300024Y149047D01*
X299981Y149179D01*
X299942Y149313D01*
X299932Y149330D01*
X299926Y149349D01*
X299851Y149467D01*
X299781Y149587D01*
X299762Y149608D01*
X299756Y149618D01*
X299741Y149632D01*
X299674Y149708D01*
X299284Y150098D01*
X298329Y152403D01*
X298329Y154897D01*
X299284Y157202D01*
X300367Y158285D01*
X300419Y158352D01*
X300478Y158412D01*
X300516Y158477D01*
X300562Y158536D01*
X300595Y158614D01*
X300638Y158687D01*
X300658Y158759D01*
X300688Y158828D01*
X300701Y158911D01*
X300724Y158993D01*
X300726Y159068D01*
X300738Y159142D01*
X300730Y159226D01*
X300732Y159311D01*
X300715Y159384D01*
X300708Y159459D01*
X300680Y159538D01*
X300661Y159621D01*
X300626Y159687D01*
X300601Y159758D01*
X300553Y159828D01*
X300514Y159903D01*
X300464Y159959D01*
X300422Y160021D01*
X300359Y160077D01*
X300302Y160140D01*
X300190Y160226D01*
X300184Y160232D01*
X300180Y160233D01*
X300174Y160238D01*
X299793Y160493D01*
X298743Y161543D01*
X297917Y162778D01*
X297349Y164150D01*
X297164Y165081D01*
X304600Y165081D01*
X304718Y165096D01*
X304837Y165103D01*
X304875Y165115D01*
X304915Y165120D01*
X305026Y165164D01*
X305139Y165201D01*
X305173Y165223D01*
X305211Y165237D01*
X305307Y165307D01*
X305408Y165371D01*
X305408Y165372D01*
X305436Y165401D01*
X305468Y165424D01*
X305469Y165425D01*
X305545Y165517D01*
X305626Y165603D01*
X305646Y165639D01*
X305672Y165670D01*
X305722Y165777D01*
X305780Y165882D01*
X305790Y165921D01*
X305807Y165957D01*
X305829Y166074D01*
X305859Y166190D01*
X305863Y166250D01*
X305867Y166270D01*
X305866Y166290D01*
X305869Y166350D01*
X305869Y173786D01*
X306800Y173601D01*
X308172Y173033D01*
X309407Y172207D01*
X310457Y171157D01*
X310712Y170776D01*
X310767Y170712D01*
X310815Y170642D01*
X310871Y170592D01*
X310921Y170535D01*
X310990Y170487D01*
X311053Y170431D01*
X311120Y170397D01*
X311182Y170354D01*
X311261Y170325D01*
X311337Y170287D01*
X311410Y170270D01*
X311480Y170244D01*
X311564Y170236D01*
X311647Y170217D01*
X311722Y170219D01*
X311797Y170212D01*
X311880Y170224D01*
X311965Y170227D01*
X312037Y170248D01*
X312111Y170259D01*
X312189Y170292D01*
X312270Y170315D01*
X312335Y170353D01*
X312404Y170383D01*
X312471Y170434D01*
X312544Y170477D01*
X312650Y170570D01*
X312657Y170575D01*
X312659Y170578D01*
X312665Y170583D01*
X313748Y171666D01*
X316053Y172621D01*
X318547Y172621D01*
X320852Y171666D01*
X322753Y169766D01*
X322847Y169693D01*
X322936Y169614D01*
X322972Y169596D01*
X323004Y169571D01*
X323113Y169523D01*
X323219Y169469D01*
X323258Y169460D01*
X323296Y169444D01*
X323413Y169426D01*
X323529Y169400D01*
X323570Y169401D01*
X323610Y169395D01*
X323728Y169406D01*
X323847Y169409D01*
X323886Y169421D01*
X323926Y169424D01*
X324038Y169465D01*
X324153Y169498D01*
X324188Y169518D01*
X324226Y169532D01*
X324324Y169599D01*
X324427Y169659D01*
X324472Y169699D01*
X324489Y169711D01*
X324502Y169726D01*
X324548Y169766D01*
X326448Y171666D01*
X328753Y172621D01*
X331247Y172621D01*
X333552Y171666D01*
X335453Y169766D01*
X335547Y169693D01*
X335636Y169614D01*
X335672Y169596D01*
X335704Y169571D01*
X335813Y169523D01*
X335919Y169469D01*
X335958Y169460D01*
X335996Y169444D01*
X336113Y169426D01*
X336229Y169400D01*
X336270Y169401D01*
X336310Y169395D01*
X336428Y169406D01*
X336547Y169409D01*
X336586Y169421D01*
X336626Y169424D01*
X336738Y169465D01*
X336853Y169498D01*
X336888Y169518D01*
X336926Y169532D01*
X337024Y169599D01*
X337127Y169659D01*
X337172Y169699D01*
X337189Y169711D01*
X337202Y169726D01*
X337248Y169766D01*
X339148Y171666D01*
X341453Y172621D01*
X343947Y172621D01*
X346252Y171666D01*
X348152Y169766D01*
X348247Y169693D01*
X348336Y169614D01*
X348372Y169596D01*
X348404Y169571D01*
X348513Y169523D01*
X348619Y169469D01*
X348658Y169460D01*
X348696Y169444D01*
X348813Y169426D01*
X348929Y169400D01*
X348970Y169401D01*
X349010Y169395D01*
X349128Y169406D01*
X349247Y169409D01*
X349286Y169421D01*
X349326Y169424D01*
X349439Y169465D01*
X349553Y169498D01*
X349587Y169518D01*
X349626Y169532D01*
X349724Y169599D01*
X349827Y169659D01*
X349872Y169699D01*
X349889Y169711D01*
X349902Y169726D01*
X349947Y169766D01*
X351848Y171666D01*
X354153Y172621D01*
X356647Y172621D01*
X358952Y171666D01*
X360716Y169902D01*
X361671Y167597D01*
X361671Y165103D01*
X360716Y162798D01*
X358816Y160897D01*
X358743Y160803D01*
X358664Y160714D01*
X358646Y160678D01*
X358621Y160646D01*
X358573Y160537D01*
X358519Y160431D01*
X358510Y160392D01*
X358494Y160354D01*
X358476Y160237D01*
X358450Y160121D01*
X358451Y160080D01*
X358445Y160040D01*
X358456Y159922D01*
X358459Y159803D01*
X358471Y159764D01*
X358474Y159724D01*
X358515Y159612D01*
X358548Y159497D01*
X358568Y159462D01*
X358582Y159424D01*
X358649Y159326D01*
X358709Y159223D01*
X358749Y159178D01*
X358761Y159161D01*
X358776Y159148D01*
X358816Y159102D01*
X360716Y157202D01*
X361671Y154897D01*
X361671Y152403D01*
X360716Y150098D01*
X358952Y148334D01*
X356647Y147379D01*
X354153Y147379D01*
X352819Y147932D01*
X352790Y147940D01*
X352764Y147953D01*
X352637Y147981D01*
X352512Y148016D01*
X352482Y148016D01*
X352454Y148023D01*
X352324Y148019D01*
X352194Y148021D01*
X352165Y148014D01*
X352136Y148013D01*
X352011Y147977D01*
X351885Y147947D01*
X351859Y147933D01*
X351830Y147925D01*
X351719Y147859D01*
X351604Y147798D01*
X351582Y147778D01*
X351556Y147763D01*
X351435Y147657D01*
X341522Y137743D01*
X339662Y135883D01*
X281524Y135883D01*
G37*
%LPD*%
%LPC*%
G36*
X210718Y177459D02*
X210718Y177459D01*
X128819Y259358D01*
X128741Y259418D01*
X128669Y259486D01*
X128616Y259515D01*
X128568Y259552D01*
X128477Y259592D01*
X128390Y259640D01*
X128332Y259655D01*
X128276Y259679D01*
X128178Y259694D01*
X128083Y259719D01*
X127982Y259725D01*
X127962Y259729D01*
X127950Y259727D01*
X127922Y259729D01*
X116989Y259729D01*
X116244Y260474D01*
X116244Y271526D01*
X116989Y272271D01*
X134551Y272271D01*
X135296Y271526D01*
X135296Y260593D01*
X135308Y260495D01*
X135311Y260396D01*
X135328Y260338D01*
X135336Y260278D01*
X135372Y260186D01*
X135400Y260090D01*
X135430Y260038D01*
X135453Y259982D01*
X135511Y259902D01*
X135561Y259817D01*
X135627Y259741D01*
X135639Y259725D01*
X135649Y259717D01*
X135667Y259696D01*
X212451Y182912D01*
X212529Y182852D01*
X212601Y182784D01*
X212654Y182755D01*
X212702Y182718D01*
X212793Y182678D01*
X212880Y182630D01*
X212938Y182615D01*
X212994Y182591D01*
X213092Y182576D01*
X213187Y182551D01*
X213288Y182545D01*
X213308Y182541D01*
X213320Y182543D01*
X213348Y182541D01*
X368422Y182541D01*
X368520Y182553D01*
X368619Y182556D01*
X368677Y182573D01*
X368737Y182581D01*
X368829Y182617D01*
X368925Y182645D01*
X368977Y182675D01*
X369033Y182698D01*
X369113Y182756D01*
X369198Y182806D01*
X369274Y182872D01*
X369290Y182884D01*
X369298Y182894D01*
X369319Y182912D01*
X421948Y235541D01*
X423435Y235541D01*
X423553Y235556D01*
X423672Y235563D01*
X423710Y235576D01*
X423751Y235581D01*
X423861Y235624D01*
X423974Y235661D01*
X424009Y235683D01*
X424046Y235698D01*
X424142Y235767D01*
X424243Y235831D01*
X424271Y235861D01*
X424304Y235884D01*
X424380Y235976D01*
X424461Y236063D01*
X424481Y236098D01*
X424506Y236129D01*
X424557Y236237D01*
X424615Y236341D01*
X424625Y236381D01*
X424642Y236417D01*
X424664Y236534D01*
X424694Y236649D01*
X424698Y236709D01*
X424702Y236729D01*
X424700Y236750D01*
X424704Y236810D01*
X424704Y239526D01*
X425449Y240271D01*
X443011Y240271D01*
X443756Y239526D01*
X443756Y228474D01*
X443011Y227729D01*
X425449Y227729D01*
X424572Y228606D01*
X424566Y228623D01*
X424555Y228639D01*
X424547Y228658D01*
X424466Y228770D01*
X424388Y228886D01*
X424372Y228899D01*
X424361Y228915D01*
X424253Y229004D01*
X424149Y229096D01*
X424131Y229105D01*
X424116Y229118D01*
X423990Y229177D01*
X423866Y229241D01*
X423846Y229245D01*
X423828Y229254D01*
X423692Y229280D01*
X423556Y229310D01*
X423535Y229310D01*
X423516Y229314D01*
X423377Y229305D01*
X423238Y229301D01*
X423218Y229295D01*
X423198Y229294D01*
X423066Y229251D01*
X422932Y229212D01*
X422915Y229202D01*
X422896Y229196D01*
X422778Y229121D01*
X422658Y229051D01*
X422637Y229032D01*
X422627Y229026D01*
X422613Y229011D01*
X422538Y228944D01*
X371052Y177459D01*
X210718Y177459D01*
G37*
%LPD*%
%LPC*%
G36*
X476989Y227729D02*
X476989Y227729D01*
X476244Y228474D01*
X476244Y230190D01*
X476229Y230308D01*
X476222Y230427D01*
X476209Y230465D01*
X476204Y230506D01*
X476161Y230616D01*
X476124Y230729D01*
X476102Y230764D01*
X476087Y230801D01*
X476018Y230897D01*
X475954Y230998D01*
X475924Y231026D01*
X475901Y231059D01*
X475809Y231135D01*
X475722Y231216D01*
X475687Y231236D01*
X475656Y231261D01*
X475548Y231312D01*
X475444Y231370D01*
X475404Y231380D01*
X475368Y231397D01*
X475251Y231419D01*
X475136Y231449D01*
X475076Y231453D01*
X475056Y231457D01*
X475035Y231455D01*
X474975Y231459D01*
X464718Y231459D01*
X449089Y247088D01*
X449011Y247148D01*
X448939Y247216D01*
X448886Y247245D01*
X448838Y247282D01*
X448747Y247322D01*
X448660Y247370D01*
X448602Y247385D01*
X448546Y247409D01*
X448448Y247424D01*
X448353Y247449D01*
X448253Y247455D01*
X448232Y247459D01*
X448220Y247457D01*
X448192Y247459D01*
X401084Y247459D01*
X367459Y281084D01*
X367459Y313422D01*
X367447Y313520D01*
X367444Y313619D01*
X367431Y313663D01*
X367431Y313665D01*
X367428Y313675D01*
X367427Y313677D01*
X367419Y313737D01*
X367383Y313829D01*
X367355Y313925D01*
X367336Y313957D01*
X367333Y313967D01*
X367321Y313986D01*
X367302Y314033D01*
X367244Y314113D01*
X367194Y314198D01*
X367168Y314228D01*
X367163Y314236D01*
X367152Y314246D01*
X367128Y314274D01*
X367116Y314290D01*
X367106Y314298D01*
X367088Y314319D01*
X342459Y338948D01*
X342459Y421052D01*
X359136Y437729D01*
X415399Y437729D01*
X415497Y437742D01*
X415596Y437745D01*
X415654Y437762D01*
X415715Y437769D01*
X415807Y437806D01*
X415902Y437833D01*
X415954Y437864D01*
X416010Y437886D01*
X416090Y437944D01*
X416176Y437995D01*
X416251Y438061D01*
X416268Y438073D01*
X416275Y438083D01*
X416297Y438101D01*
X417929Y439733D01*
X421694Y439733D01*
X424356Y437071D01*
X424356Y433306D01*
X421694Y430644D01*
X417929Y430644D01*
X416297Y432276D01*
X416218Y432337D01*
X416146Y432405D01*
X416093Y432434D01*
X416045Y432471D01*
X415954Y432511D01*
X415868Y432558D01*
X415809Y432573D01*
X415753Y432598D01*
X415655Y432613D01*
X415560Y432638D01*
X415460Y432644D01*
X415439Y432647D01*
X415427Y432646D01*
X415399Y432648D01*
X361767Y432648D01*
X361669Y432636D01*
X361570Y432633D01*
X361511Y432616D01*
X361451Y432608D01*
X361359Y432572D01*
X361264Y432544D01*
X361212Y432513D01*
X361156Y432491D01*
X361076Y432433D01*
X360990Y432383D01*
X360915Y432316D01*
X360898Y432304D01*
X360891Y432295D01*
X360869Y432276D01*
X347912Y419319D01*
X347852Y419241D01*
X347784Y419169D01*
X347755Y419116D01*
X347718Y419068D01*
X347678Y418977D01*
X347630Y418890D01*
X347615Y418832D01*
X347591Y418776D01*
X347576Y418678D01*
X347551Y418583D01*
X347545Y418482D01*
X347541Y418462D01*
X347543Y418450D01*
X347541Y418422D01*
X347541Y341578D01*
X347553Y341480D01*
X347556Y341381D01*
X347573Y341323D01*
X347581Y341263D01*
X347617Y341171D01*
X347645Y341075D01*
X347675Y341023D01*
X347698Y340967D01*
X347756Y340887D01*
X347806Y340802D01*
X347872Y340726D01*
X347884Y340710D01*
X347894Y340702D01*
X347912Y340681D01*
X372541Y316052D01*
X372541Y283715D01*
X372553Y283617D01*
X372556Y283518D01*
X372573Y283459D01*
X372581Y283399D01*
X372617Y283307D01*
X372645Y283212D01*
X372675Y283160D01*
X372698Y283104D01*
X372756Y283024D01*
X372806Y282938D01*
X372872Y282863D01*
X372884Y282846D01*
X372894Y282838D01*
X372912Y282817D01*
X402817Y252912D01*
X402896Y252852D01*
X402968Y252784D01*
X403021Y252755D01*
X403069Y252718D01*
X403160Y252678D01*
X403246Y252630D01*
X403305Y252615D01*
X403360Y252591D01*
X403458Y252576D01*
X403554Y252551D01*
X403654Y252545D01*
X403674Y252541D01*
X403687Y252543D01*
X403715Y252541D01*
X450822Y252541D01*
X452682Y250681D01*
X466451Y236912D01*
X466529Y236852D01*
X466601Y236784D01*
X466654Y236755D01*
X466702Y236718D01*
X466793Y236678D01*
X466880Y236630D01*
X466938Y236615D01*
X466994Y236591D01*
X467092Y236576D01*
X467187Y236551D01*
X467288Y236545D01*
X467308Y236541D01*
X467320Y236543D01*
X467348Y236541D01*
X474975Y236541D01*
X475093Y236556D01*
X475212Y236563D01*
X475250Y236576D01*
X475291Y236581D01*
X475401Y236624D01*
X475514Y236661D01*
X475549Y236683D01*
X475586Y236698D01*
X475682Y236767D01*
X475783Y236831D01*
X475811Y236861D01*
X475844Y236884D01*
X475920Y236976D01*
X476001Y237063D01*
X476021Y237098D01*
X476046Y237129D01*
X476097Y237237D01*
X476155Y237341D01*
X476165Y237381D01*
X476182Y237417D01*
X476204Y237534D01*
X476234Y237649D01*
X476238Y237709D01*
X476242Y237729D01*
X476240Y237750D01*
X476244Y237810D01*
X476244Y239526D01*
X476989Y240271D01*
X494551Y240271D01*
X495296Y239526D01*
X495296Y228474D01*
X494551Y227729D01*
X476989Y227729D01*
G37*
%LPD*%
%LPC*%
G36*
X476989Y259729D02*
X476989Y259729D01*
X476244Y260474D01*
X476244Y262190D01*
X476229Y262308D01*
X476222Y262427D01*
X476209Y262465D01*
X476204Y262506D01*
X476161Y262616D01*
X476124Y262729D01*
X476102Y262764D01*
X476087Y262801D01*
X476018Y262897D01*
X475954Y262998D01*
X475924Y263026D01*
X475901Y263059D01*
X475809Y263135D01*
X475722Y263216D01*
X475687Y263236D01*
X475656Y263261D01*
X475548Y263312D01*
X475444Y263370D01*
X475404Y263380D01*
X475368Y263397D01*
X475251Y263419D01*
X475136Y263449D01*
X475076Y263453D01*
X475056Y263457D01*
X475035Y263455D01*
X474975Y263459D01*
X457948Y263459D01*
X404319Y317088D01*
X404241Y317148D01*
X404169Y317216D01*
X404116Y317245D01*
X404068Y317282D01*
X403977Y317322D01*
X403890Y317370D01*
X403832Y317385D01*
X403776Y317409D01*
X403678Y317424D01*
X403583Y317449D01*
X403482Y317455D01*
X403462Y317459D01*
X403450Y317457D01*
X403422Y317459D01*
X383948Y317459D01*
X352459Y348948D01*
X352459Y411052D01*
X358948Y417541D01*
X450588Y417541D01*
X450686Y417553D01*
X450785Y417556D01*
X450843Y417573D01*
X450903Y417581D01*
X450995Y417617D01*
X451090Y417645D01*
X451143Y417675D01*
X451199Y417698D01*
X451279Y417756D01*
X451364Y417806D01*
X451440Y417872D01*
X451456Y417884D01*
X451464Y417894D01*
X451485Y417912D01*
X453118Y419545D01*
X456882Y419545D01*
X459545Y416882D01*
X459545Y413118D01*
X456882Y410455D01*
X453118Y410455D01*
X451485Y412088D01*
X451407Y412148D01*
X451335Y412216D01*
X451282Y412245D01*
X451234Y412282D01*
X451143Y412322D01*
X451056Y412370D01*
X450998Y412385D01*
X450942Y412409D01*
X450844Y412424D01*
X450748Y412449D01*
X450648Y412455D01*
X450628Y412459D01*
X450616Y412457D01*
X450588Y412459D01*
X361578Y412459D01*
X361480Y412447D01*
X361381Y412444D01*
X361323Y412427D01*
X361263Y412419D01*
X361171Y412383D01*
X361075Y412355D01*
X361023Y412325D01*
X360967Y412302D01*
X360887Y412244D01*
X360802Y412194D01*
X360726Y412128D01*
X360710Y412116D01*
X360702Y412106D01*
X360681Y412088D01*
X357912Y409319D01*
X357852Y409241D01*
X357784Y409169D01*
X357755Y409116D01*
X357718Y409068D01*
X357678Y408977D01*
X357630Y408890D01*
X357615Y408832D01*
X357591Y408776D01*
X357576Y408678D01*
X357551Y408583D01*
X357545Y408482D01*
X357541Y408462D01*
X357543Y408450D01*
X357541Y408422D01*
X357541Y351578D01*
X357553Y351480D01*
X357556Y351381D01*
X357573Y351323D01*
X357581Y351263D01*
X357617Y351171D01*
X357645Y351075D01*
X357675Y351023D01*
X357698Y350967D01*
X357756Y350887D01*
X357806Y350802D01*
X357872Y350726D01*
X357884Y350710D01*
X357894Y350702D01*
X357912Y350681D01*
X385681Y322912D01*
X385759Y322852D01*
X385831Y322784D01*
X385884Y322755D01*
X385932Y322718D01*
X386023Y322678D01*
X386110Y322630D01*
X386168Y322615D01*
X386224Y322591D01*
X386322Y322576D01*
X386417Y322551D01*
X386518Y322545D01*
X386538Y322541D01*
X386550Y322543D01*
X386578Y322541D01*
X406052Y322541D01*
X459681Y268912D01*
X459759Y268852D01*
X459831Y268784D01*
X459884Y268755D01*
X459932Y268718D01*
X460023Y268678D01*
X460110Y268630D01*
X460168Y268615D01*
X460224Y268591D01*
X460322Y268576D01*
X460417Y268551D01*
X460518Y268545D01*
X460538Y268541D01*
X460550Y268543D01*
X460578Y268541D01*
X474975Y268541D01*
X475093Y268556D01*
X475212Y268563D01*
X475250Y268576D01*
X475291Y268581D01*
X475401Y268624D01*
X475514Y268661D01*
X475549Y268683D01*
X475586Y268698D01*
X475682Y268767D01*
X475783Y268831D01*
X475811Y268861D01*
X475844Y268884D01*
X475920Y268976D01*
X476001Y269063D01*
X476021Y269098D01*
X476046Y269129D01*
X476097Y269237D01*
X476155Y269341D01*
X476165Y269381D01*
X476182Y269417D01*
X476204Y269534D01*
X476234Y269649D01*
X476238Y269709D01*
X476242Y269729D01*
X476240Y269750D01*
X476244Y269810D01*
X476244Y271526D01*
X476989Y272271D01*
X494551Y272271D01*
X495296Y271526D01*
X495296Y260474D01*
X494551Y259729D01*
X476989Y259729D01*
G37*
%LPD*%
%LPC*%
G36*
X374139Y479939D02*
X374139Y479939D01*
X374139Y509521D01*
X402758Y509521D01*
X405899Y509211D01*
X408994Y508596D01*
X412014Y507680D01*
X414930Y506472D01*
X417713Y504984D01*
X420337Y503231D01*
X422777Y501228D01*
X425008Y498997D01*
X427011Y496557D01*
X428764Y493933D01*
X430252Y491150D01*
X431460Y488234D01*
X432376Y485214D01*
X432991Y482119D01*
X433206Y479939D01*
X374139Y479939D01*
G37*
%LPD*%
%LPC*%
G36*
X309994Y479939D02*
X309994Y479939D01*
X310209Y482119D01*
X310824Y485214D01*
X311740Y488234D01*
X312948Y491150D01*
X314436Y493933D01*
X316189Y496557D01*
X318192Y498997D01*
X320423Y501228D01*
X322863Y503231D01*
X325487Y504984D01*
X328270Y506472D01*
X331186Y507680D01*
X334206Y508596D01*
X337301Y509211D01*
X340442Y509521D01*
X369061Y509521D01*
X369061Y479939D01*
X309994Y479939D01*
G37*
%LPD*%
%LPC*%
G36*
X374139Y445279D02*
X374139Y445279D01*
X374139Y474861D01*
X433206Y474861D01*
X432991Y472681D01*
X432376Y469586D01*
X431460Y466566D01*
X430252Y463650D01*
X428764Y460867D01*
X427011Y458243D01*
X425008Y455803D01*
X422777Y453572D01*
X420337Y451569D01*
X417713Y449816D01*
X414930Y448328D01*
X412014Y447120D01*
X408994Y446204D01*
X405899Y445589D01*
X402758Y445279D01*
X374139Y445279D01*
G37*
%LPD*%
%LPC*%
G36*
X340442Y445279D02*
X340442Y445279D01*
X337301Y445589D01*
X334206Y446204D01*
X331186Y447120D01*
X328270Y448328D01*
X325487Y449816D01*
X322863Y451569D01*
X320423Y453572D01*
X318192Y455803D01*
X316189Y458243D01*
X314436Y460867D01*
X312948Y463650D01*
X311740Y466566D01*
X310824Y469586D01*
X310209Y472681D01*
X309994Y474861D01*
X369061Y474861D01*
X369061Y445279D01*
X340442Y445279D01*
G37*
%LPD*%
%LPC*%
G36*
X476312Y41459D02*
X476312Y41459D01*
X469498Y44282D01*
X464282Y49498D01*
X461459Y56312D01*
X461459Y63688D01*
X464282Y70502D01*
X469498Y75718D01*
X476312Y78541D01*
X483688Y78541D01*
X490502Y75718D01*
X495718Y70502D01*
X498541Y63688D01*
X498541Y56312D01*
X495718Y49498D01*
X490502Y44282D01*
X483688Y41459D01*
X476312Y41459D01*
G37*
%LPD*%
%LPC*%
G36*
X56312Y461459D02*
X56312Y461459D01*
X49498Y464282D01*
X44282Y469498D01*
X41459Y476312D01*
X41459Y483688D01*
X44282Y490502D01*
X49498Y495718D01*
X56312Y498541D01*
X63688Y498541D01*
X70502Y495718D01*
X75718Y490502D01*
X78541Y483688D01*
X78541Y476312D01*
X75718Y469498D01*
X70502Y464282D01*
X63688Y461459D01*
X56312Y461459D01*
G37*
%LPD*%
%LPC*%
G36*
X56312Y41459D02*
X56312Y41459D01*
X49498Y44282D01*
X44282Y49498D01*
X41459Y56312D01*
X41459Y63688D01*
X44282Y70502D01*
X49498Y75718D01*
X56312Y78541D01*
X63688Y78541D01*
X70502Y75718D01*
X75718Y70502D01*
X78541Y63688D01*
X78541Y56312D01*
X75718Y49498D01*
X70502Y44282D01*
X63688Y41459D01*
X56312Y41459D01*
G37*
%LPD*%
%LPC*%
G36*
X476312Y461459D02*
X476312Y461459D01*
X469498Y464282D01*
X464282Y469498D01*
X461459Y476312D01*
X461459Y483688D01*
X464282Y490502D01*
X469498Y495718D01*
X476312Y498541D01*
X483688Y498541D01*
X490502Y495718D01*
X495718Y490502D01*
X498541Y483688D01*
X498541Y476312D01*
X495718Y469498D01*
X490502Y464282D01*
X483688Y461459D01*
X476312Y461459D01*
G37*
%LPD*%
%LPC*%
G36*
X160578Y27631D02*
X160578Y27631D01*
X156657Y29255D01*
X153655Y32257D01*
X152031Y36178D01*
X152031Y40422D01*
X153655Y44343D01*
X156657Y47345D01*
X160578Y48969D01*
X164822Y48969D01*
X168743Y47345D01*
X171745Y44343D01*
X173369Y40422D01*
X173369Y36178D01*
X171745Y32257D01*
X168743Y29255D01*
X164822Y27631D01*
X160578Y27631D01*
G37*
%LPD*%
%LPC*%
G36*
X383178Y63631D02*
X383178Y63631D01*
X379257Y65255D01*
X376255Y68257D01*
X374631Y72178D01*
X374631Y76422D01*
X376255Y80343D01*
X379257Y83345D01*
X383178Y84969D01*
X387422Y84969D01*
X391343Y83345D01*
X394345Y80343D01*
X395969Y76422D01*
X395969Y72178D01*
X394345Y68257D01*
X391343Y65255D01*
X387422Y63631D01*
X383178Y63631D01*
G37*
%LPD*%
%LPC*%
G36*
X160578Y53031D02*
X160578Y53031D01*
X156657Y54655D01*
X153655Y57657D01*
X152031Y61578D01*
X152031Y65822D01*
X153655Y69743D01*
X156657Y72745D01*
X160578Y74369D01*
X164822Y74369D01*
X168743Y72745D01*
X171745Y69743D01*
X173369Y65822D01*
X173369Y61578D01*
X171745Y57657D01*
X168743Y54655D01*
X164822Y53031D01*
X160578Y53031D01*
G37*
%LPD*%
%LPC*%
G36*
X185978Y27631D02*
X185978Y27631D01*
X182057Y29255D01*
X179055Y32257D01*
X177431Y36178D01*
X177431Y40422D01*
X179055Y44343D01*
X182057Y47345D01*
X185978Y48969D01*
X190222Y48969D01*
X194143Y47345D01*
X197145Y44343D01*
X198769Y40422D01*
X198769Y36178D01*
X197145Y32257D01*
X194143Y29255D01*
X190222Y27631D01*
X185978Y27631D01*
G37*
%LPD*%
%LPC*%
G36*
X185978Y53031D02*
X185978Y53031D01*
X182057Y54655D01*
X179055Y57657D01*
X177431Y61578D01*
X177431Y65822D01*
X179055Y69743D01*
X182057Y72745D01*
X185978Y74369D01*
X190222Y74369D01*
X194143Y72745D01*
X197145Y69743D01*
X198769Y65822D01*
X198769Y61578D01*
X197145Y57657D01*
X194143Y54655D01*
X190222Y53031D01*
X185978Y53031D01*
G37*
%LPD*%
%LPC*%
G36*
X109778Y27631D02*
X109778Y27631D01*
X105857Y29255D01*
X102855Y32257D01*
X101231Y36178D01*
X101231Y40422D01*
X102855Y44343D01*
X105857Y47345D01*
X109778Y48969D01*
X114022Y48969D01*
X117943Y47345D01*
X120945Y44343D01*
X122569Y40422D01*
X122569Y36178D01*
X120945Y32257D01*
X117943Y29255D01*
X114022Y27631D01*
X109778Y27631D01*
G37*
%LPD*%
%LPC*%
G36*
X408578Y114431D02*
X408578Y114431D01*
X404657Y116055D01*
X401655Y119057D01*
X400031Y122978D01*
X400031Y127222D01*
X401655Y131143D01*
X404657Y134145D01*
X408578Y135769D01*
X412822Y135769D01*
X416743Y134145D01*
X419745Y131143D01*
X421369Y127222D01*
X421369Y122978D01*
X419745Y119057D01*
X416743Y116055D01*
X412822Y114431D01*
X408578Y114431D01*
G37*
%LPD*%
%LPC*%
G36*
X135178Y27631D02*
X135178Y27631D01*
X131257Y29255D01*
X128255Y32257D01*
X126631Y36178D01*
X126631Y40422D01*
X128255Y44343D01*
X131257Y47345D01*
X135178Y48969D01*
X139422Y48969D01*
X143343Y47345D01*
X146345Y44343D01*
X147969Y40422D01*
X147969Y36178D01*
X146345Y32257D01*
X143343Y29255D01*
X139422Y27631D01*
X135178Y27631D01*
G37*
%LPD*%
%LPC*%
G36*
X383178Y38231D02*
X383178Y38231D01*
X379257Y39855D01*
X376255Y42857D01*
X374631Y46778D01*
X374631Y51022D01*
X376255Y54943D01*
X379257Y57945D01*
X383178Y59569D01*
X387422Y59569D01*
X391343Y57945D01*
X394345Y54943D01*
X395969Y51022D01*
X395969Y46778D01*
X394345Y42857D01*
X391343Y39855D01*
X387422Y38231D01*
X383178Y38231D01*
G37*
%LPD*%
%LPC*%
G36*
X408578Y38231D02*
X408578Y38231D01*
X404657Y39855D01*
X401655Y42857D01*
X400031Y46778D01*
X400031Y51022D01*
X401655Y54943D01*
X404657Y57945D01*
X408578Y59569D01*
X412822Y59569D01*
X416743Y57945D01*
X419745Y54943D01*
X421369Y51022D01*
X421369Y46778D01*
X419745Y42857D01*
X416743Y39855D01*
X412822Y38231D01*
X408578Y38231D01*
G37*
%LPD*%
%LPC*%
G36*
X408578Y89031D02*
X408578Y89031D01*
X404657Y90655D01*
X401655Y93657D01*
X400031Y97578D01*
X400031Y101822D01*
X401655Y105743D01*
X404657Y108745D01*
X408578Y110369D01*
X412822Y110369D01*
X416743Y108745D01*
X419745Y105743D01*
X421369Y101822D01*
X421369Y97578D01*
X419745Y93657D01*
X416743Y90655D01*
X412822Y89031D01*
X408578Y89031D01*
G37*
%LPD*%
%LPC*%
G36*
X383178Y89031D02*
X383178Y89031D01*
X379257Y90655D01*
X376255Y93657D01*
X374631Y97578D01*
X374631Y101822D01*
X376255Y105743D01*
X379257Y108745D01*
X383178Y110369D01*
X387422Y110369D01*
X391343Y108745D01*
X394345Y105743D01*
X395969Y101822D01*
X395969Y97578D01*
X394345Y93657D01*
X391343Y90655D01*
X387422Y89031D01*
X383178Y89031D01*
G37*
%LPD*%
%LPC*%
G36*
X408578Y63631D02*
X408578Y63631D01*
X404657Y65255D01*
X401655Y68257D01*
X400031Y72178D01*
X400031Y76422D01*
X401655Y80343D01*
X404657Y83345D01*
X408578Y84969D01*
X412822Y84969D01*
X416743Y83345D01*
X419745Y80343D01*
X421369Y76422D01*
X421369Y72178D01*
X419745Y68257D01*
X416743Y65255D01*
X412822Y63631D01*
X408578Y63631D01*
G37*
%LPD*%
%LPC*%
G36*
X135178Y53031D02*
X135178Y53031D01*
X131257Y54655D01*
X128255Y57657D01*
X126631Y61578D01*
X126631Y65822D01*
X128255Y69743D01*
X131257Y72745D01*
X135178Y74369D01*
X139422Y74369D01*
X143343Y72745D01*
X146345Y69743D01*
X147969Y65822D01*
X147969Y61578D01*
X146345Y57657D01*
X143343Y54655D01*
X139422Y53031D01*
X135178Y53031D01*
G37*
%LPD*%
%LPC*%
G36*
X109778Y53031D02*
X109778Y53031D01*
X105857Y54655D01*
X102855Y57657D01*
X101231Y61578D01*
X101231Y65822D01*
X102855Y69743D01*
X105857Y72745D01*
X109778Y74369D01*
X114022Y74369D01*
X117943Y72745D01*
X120945Y69743D01*
X122569Y65822D01*
X122569Y61578D01*
X120945Y57657D01*
X117943Y54655D01*
X114022Y53031D01*
X109778Y53031D01*
G37*
%LPD*%
%LPC*%
G36*
X65449Y259729D02*
X65449Y259729D01*
X64704Y260474D01*
X64704Y262190D01*
X64689Y262308D01*
X64682Y262427D01*
X64669Y262465D01*
X64664Y262506D01*
X64621Y262616D01*
X64584Y262729D01*
X64562Y262764D01*
X64547Y262801D01*
X64478Y262897D01*
X64414Y262998D01*
X64384Y263026D01*
X64361Y263059D01*
X64269Y263135D01*
X64182Y263216D01*
X64147Y263236D01*
X64116Y263261D01*
X64008Y263312D01*
X63904Y263370D01*
X63864Y263380D01*
X63828Y263397D01*
X63711Y263419D01*
X63596Y263449D01*
X63536Y263453D01*
X63516Y263457D01*
X63495Y263455D01*
X63435Y263459D01*
X55412Y263459D01*
X55314Y263447D01*
X55215Y263444D01*
X55157Y263427D01*
X55097Y263419D01*
X55005Y263383D01*
X54910Y263355D01*
X54857Y263325D01*
X54801Y263302D01*
X54721Y263244D01*
X54636Y263194D01*
X54560Y263128D01*
X54544Y263116D01*
X54536Y263106D01*
X54515Y263088D01*
X51882Y260455D01*
X48118Y260455D01*
X45455Y263118D01*
X45455Y266882D01*
X48118Y269545D01*
X51882Y269545D01*
X52515Y268912D01*
X52593Y268852D01*
X52665Y268784D01*
X52718Y268755D01*
X52766Y268718D01*
X52857Y268678D01*
X52944Y268630D01*
X53002Y268615D01*
X53058Y268591D01*
X53156Y268576D01*
X53252Y268551D01*
X53352Y268545D01*
X53372Y268541D01*
X53384Y268543D01*
X53412Y268541D01*
X63435Y268541D01*
X63553Y268556D01*
X63672Y268563D01*
X63710Y268576D01*
X63751Y268581D01*
X63861Y268624D01*
X63974Y268661D01*
X64009Y268683D01*
X64046Y268698D01*
X64142Y268767D01*
X64243Y268831D01*
X64271Y268861D01*
X64304Y268884D01*
X64380Y268976D01*
X64461Y269063D01*
X64481Y269098D01*
X64506Y269129D01*
X64557Y269237D01*
X64615Y269341D01*
X64625Y269381D01*
X64642Y269417D01*
X64664Y269534D01*
X64694Y269649D01*
X64698Y269709D01*
X64702Y269729D01*
X64700Y269750D01*
X64704Y269810D01*
X64704Y271526D01*
X65449Y272271D01*
X83011Y272271D01*
X83756Y271526D01*
X83756Y260474D01*
X83011Y259729D01*
X65449Y259729D01*
G37*
%LPD*%
%LPC*%
G36*
X425449Y259729D02*
X425449Y259729D01*
X424704Y260474D01*
X424704Y262190D01*
X424689Y262308D01*
X424682Y262427D01*
X424669Y262465D01*
X424664Y262506D01*
X424621Y262616D01*
X424584Y262729D01*
X424562Y262764D01*
X424547Y262801D01*
X424478Y262897D01*
X424414Y262998D01*
X424384Y263026D01*
X424361Y263059D01*
X424269Y263135D01*
X424182Y263216D01*
X424147Y263236D01*
X424116Y263261D01*
X424008Y263312D01*
X423904Y263370D01*
X423864Y263380D01*
X423828Y263397D01*
X423711Y263419D01*
X423596Y263449D01*
X423536Y263453D01*
X423516Y263457D01*
X423495Y263455D01*
X423435Y263459D01*
X420412Y263459D01*
X420314Y263447D01*
X420215Y263444D01*
X420157Y263427D01*
X420097Y263419D01*
X420005Y263383D01*
X419910Y263355D01*
X419857Y263325D01*
X419801Y263302D01*
X419721Y263244D01*
X419636Y263194D01*
X419560Y263128D01*
X419544Y263116D01*
X419536Y263106D01*
X419515Y263088D01*
X416882Y260455D01*
X413118Y260455D01*
X410455Y263118D01*
X410455Y266882D01*
X413118Y269545D01*
X416882Y269545D01*
X417515Y268912D01*
X417593Y268852D01*
X417665Y268784D01*
X417718Y268755D01*
X417766Y268718D01*
X417857Y268678D01*
X417944Y268630D01*
X418002Y268615D01*
X418058Y268591D01*
X418156Y268576D01*
X418252Y268551D01*
X418352Y268545D01*
X418372Y268541D01*
X418384Y268543D01*
X418412Y268541D01*
X423435Y268541D01*
X423553Y268556D01*
X423672Y268563D01*
X423710Y268576D01*
X423751Y268581D01*
X423861Y268624D01*
X423974Y268661D01*
X424009Y268683D01*
X424046Y268698D01*
X424142Y268767D01*
X424243Y268831D01*
X424271Y268861D01*
X424304Y268884D01*
X424380Y268976D01*
X424461Y269063D01*
X424481Y269098D01*
X424506Y269129D01*
X424557Y269237D01*
X424615Y269341D01*
X424625Y269381D01*
X424642Y269417D01*
X424664Y269534D01*
X424694Y269649D01*
X424698Y269709D01*
X424702Y269729D01*
X424700Y269750D01*
X424704Y269810D01*
X424704Y271526D01*
X425449Y272271D01*
X443011Y272271D01*
X443756Y271526D01*
X443756Y260474D01*
X443011Y259729D01*
X425449Y259729D01*
G37*
%LPD*%
%LPC*%
G36*
X403118Y355455D02*
X403118Y355455D01*
X400455Y358118D01*
X400455Y361882D01*
X402088Y363515D01*
X402148Y363593D01*
X402216Y363665D01*
X402245Y363718D01*
X402282Y363766D01*
X402322Y363857D01*
X402370Y363944D01*
X402385Y364002D01*
X402409Y364058D01*
X402424Y364156D01*
X402449Y364252D01*
X402455Y364352D01*
X402459Y364372D01*
X402457Y364384D01*
X402459Y364412D01*
X402459Y373422D01*
X402447Y373520D01*
X402444Y373619D01*
X402427Y373677D01*
X402419Y373737D01*
X402383Y373829D01*
X402355Y373925D01*
X402325Y373977D01*
X402302Y374033D01*
X402244Y374113D01*
X402194Y374198D01*
X402128Y374274D01*
X402116Y374290D01*
X402106Y374298D01*
X402088Y374319D01*
X399319Y377088D01*
X399241Y377148D01*
X399169Y377216D01*
X399116Y377245D01*
X399068Y377282D01*
X398977Y377322D01*
X398890Y377370D01*
X398832Y377385D01*
X398776Y377409D01*
X398678Y377424D01*
X398583Y377449D01*
X398482Y377455D01*
X398462Y377459D01*
X398450Y377457D01*
X398422Y377459D01*
X379412Y377459D01*
X379314Y377447D01*
X379215Y377444D01*
X379157Y377427D01*
X379097Y377419D01*
X379005Y377383D01*
X378910Y377355D01*
X378857Y377325D01*
X378801Y377302D01*
X378721Y377244D01*
X378636Y377194D01*
X378560Y377128D01*
X378544Y377116D01*
X378536Y377106D01*
X378515Y377088D01*
X376882Y375455D01*
X373118Y375455D01*
X370455Y378118D01*
X370455Y381882D01*
X373118Y384545D01*
X376882Y384545D01*
X378515Y382912D01*
X378593Y382852D01*
X378665Y382784D01*
X378718Y382755D01*
X378766Y382718D01*
X378857Y382678D01*
X378944Y382630D01*
X379002Y382615D01*
X379058Y382591D01*
X379156Y382576D01*
X379252Y382551D01*
X379352Y382545D01*
X379372Y382541D01*
X379384Y382543D01*
X379412Y382541D01*
X401052Y382541D01*
X407541Y376052D01*
X407541Y364412D01*
X407553Y364314D01*
X407556Y364215D01*
X407573Y364157D01*
X407581Y364097D01*
X407617Y364005D01*
X407645Y363910D01*
X407675Y363857D01*
X407698Y363801D01*
X407756Y363721D01*
X407806Y363636D01*
X407872Y363560D01*
X407884Y363544D01*
X407894Y363536D01*
X407912Y363515D01*
X409545Y361882D01*
X409545Y358118D01*
X406882Y355455D01*
X403118Y355455D01*
G37*
%LPD*%
%LPC*%
G36*
X104118Y187455D02*
X104118Y187455D01*
X101455Y190118D01*
X101455Y193882D01*
X104118Y196545D01*
X107882Y196545D01*
X109515Y194912D01*
X109593Y194852D01*
X109665Y194784D01*
X109718Y194755D01*
X109766Y194718D01*
X109857Y194678D01*
X109944Y194630D01*
X110002Y194615D01*
X110058Y194591D01*
X110156Y194576D01*
X110252Y194551D01*
X110352Y194545D01*
X110372Y194541D01*
X110384Y194543D01*
X110412Y194541D01*
X146588Y194541D01*
X146686Y194553D01*
X146785Y194556D01*
X146843Y194573D01*
X146903Y194581D01*
X146995Y194617D01*
X147090Y194645D01*
X147143Y194675D01*
X147199Y194698D01*
X147279Y194756D01*
X147364Y194806D01*
X147440Y194872D01*
X147456Y194884D01*
X147464Y194894D01*
X147485Y194912D01*
X149118Y196545D01*
X152882Y196545D01*
X155545Y193882D01*
X155545Y190118D01*
X152882Y187455D01*
X149118Y187455D01*
X147485Y189088D01*
X147407Y189148D01*
X147335Y189216D01*
X147282Y189245D01*
X147234Y189282D01*
X147143Y189322D01*
X147056Y189370D01*
X146998Y189385D01*
X146942Y189409D01*
X146844Y189424D01*
X146748Y189449D01*
X146648Y189455D01*
X146628Y189459D01*
X146616Y189457D01*
X146588Y189459D01*
X110412Y189459D01*
X110314Y189447D01*
X110215Y189444D01*
X110157Y189427D01*
X110097Y189419D01*
X110005Y189383D01*
X109910Y189355D01*
X109857Y189325D01*
X109801Y189302D01*
X109721Y189244D01*
X109636Y189194D01*
X109560Y189128D01*
X109544Y189116D01*
X109536Y189106D01*
X109515Y189088D01*
X107882Y187455D01*
X104118Y187455D01*
G37*
%LPD*%
%LPC*%
G36*
X387839Y127639D02*
X387839Y127639D01*
X387839Y136785D01*
X388096Y136745D01*
X389883Y136164D01*
X391557Y135311D01*
X393078Y134206D01*
X394406Y132878D01*
X395511Y131357D01*
X396364Y129683D01*
X396945Y127896D01*
X396985Y127639D01*
X387839Y127639D01*
G37*
%LPD*%
%LPC*%
G36*
X373615Y127639D02*
X373615Y127639D01*
X373655Y127896D01*
X374236Y129683D01*
X375089Y131357D01*
X376194Y132878D01*
X377522Y134206D01*
X379043Y135311D01*
X380717Y136164D01*
X382504Y136745D01*
X382761Y136785D01*
X382761Y127639D01*
X373615Y127639D01*
G37*
%LPD*%
%LPC*%
G36*
X387839Y122561D02*
X387839Y122561D01*
X396985Y122561D01*
X396945Y122304D01*
X396364Y120517D01*
X395511Y118843D01*
X394406Y117322D01*
X393078Y115994D01*
X391557Y114889D01*
X389883Y114036D01*
X388096Y113455D01*
X387839Y113415D01*
X387839Y122561D01*
G37*
%LPD*%
%LPC*%
G36*
X382504Y113455D02*
X382504Y113455D01*
X380717Y114036D01*
X379043Y114889D01*
X377522Y115994D01*
X376194Y117322D01*
X375089Y118843D01*
X374236Y120517D01*
X373655Y122304D01*
X373615Y122561D01*
X382761Y122561D01*
X382761Y113415D01*
X382504Y113455D01*
G37*
%LPD*%
%LPC*%
G36*
X297164Y167619D02*
X297164Y167619D01*
X297349Y168550D01*
X297917Y169922D01*
X298743Y171157D01*
X299793Y172207D01*
X301028Y173033D01*
X302400Y173601D01*
X303331Y173786D01*
X303331Y167619D01*
X297164Y167619D01*
G37*
%LPD*%
%LPC*%
G36*
X371599Y477399D02*
X371599Y477399D01*
X371599Y477401D01*
X371601Y477401D01*
X371601Y477399D01*
X371599Y477399D01*
G37*
%LPD*%
%LPC*%
G36*
X385299Y125099D02*
X385299Y125099D01*
X385299Y125101D01*
X385301Y125101D01*
X385301Y125099D01*
X385299Y125099D01*
G37*
%LPD*%
D10*
X92520Y378500D02*
X142680Y378500D01*
D11*
X342020Y477400D02*
X401180Y477400D01*
D12*
X125770Y234000D03*
X74230Y234000D03*
X74230Y266000D03*
X125770Y266000D03*
X485770Y234000D03*
X434230Y234000D03*
X434230Y266000D03*
X485770Y266000D03*
D13*
X342700Y153650D03*
X330000Y153650D03*
X317300Y153650D03*
X304600Y153650D03*
X355400Y153650D03*
X342700Y166350D03*
X330000Y166350D03*
X317300Y166350D03*
X304600Y166350D03*
X355400Y166350D03*
D14*
X385300Y125100D03*
X410700Y125100D03*
X385300Y99700D03*
X410700Y99700D03*
X385300Y74300D03*
X410700Y74300D03*
X385300Y48900D03*
X410700Y48900D03*
X111900Y38300D03*
X111900Y63700D03*
X137300Y38300D03*
X137300Y63700D03*
X162700Y38300D03*
X162700Y63700D03*
X188100Y38300D03*
X188100Y63700D03*
D15*
X415000Y265000D03*
D16*
X416000Y266000D02*
X434230Y266000D01*
X416000Y266000D02*
X415000Y265000D01*
D15*
X50000Y265000D03*
D16*
X51000Y266000D02*
X74230Y266000D01*
X51000Y266000D02*
X50000Y265000D01*
D15*
X106000Y192000D03*
D16*
X151000Y192000D01*
D15*
X151000Y192000D03*
X252000Y152000D03*
D16*
X353836Y153650D02*
X355400Y153650D01*
X353836Y153650D02*
X338610Y138424D01*
X282576Y138424D01*
X269000Y152000D01*
X252000Y152000D01*
D15*
X320000Y40000D03*
X280000Y45000D03*
X180000Y115000D03*
X40000Y105000D03*
X335000Y130000D03*
X290000Y145000D03*
D16*
X308650Y145000D01*
X317300Y153650D01*
D15*
X280000Y20000D03*
D16*
X110000Y80000D02*
X94000Y96000D01*
X94000Y214230D01*
X74230Y234000D01*
X95000Y254770D01*
X95000Y275000D01*
X175000Y355000D01*
X175000Y405000D01*
X165000Y415000D01*
D15*
X80000Y415000D03*
D16*
X165000Y415000D01*
D17*
X200000Y80000D02*
X110000Y80000D01*
X200000Y80000D02*
X210000Y70000D01*
X210000Y30000D01*
X220000Y20000D01*
X280000Y20000D01*
D15*
X375000Y380000D03*
D16*
X400000Y380000D01*
X405000Y375000D01*
X405000Y360000D01*
D15*
X405000Y360000D03*
D16*
X211770Y180000D02*
X125770Y266000D01*
X211770Y180000D02*
X370000Y180000D01*
X423000Y233000D01*
X433230Y233000D02*
X434230Y234000D01*
X433230Y233000D02*
X423000Y233000D01*
D15*
X455000Y415000D03*
D16*
X459000Y266000D02*
X485770Y266000D01*
X405000Y320000D02*
X385000Y320000D01*
X355000Y350000D01*
X355000Y410000D01*
X360000Y415000D01*
X455000Y415000D01*
X405000Y320000D02*
X459000Y266000D01*
X465770Y234000D02*
X485770Y234000D01*
X465770Y234000D02*
X449770Y250000D01*
X402137Y250000D01*
X419811Y435189D02*
X360189Y435189D01*
D15*
X419811Y435189D03*
D17*
X165000Y194770D02*
X125770Y234000D01*
X165000Y194770D02*
X165000Y166000D01*
X125770Y234000D02*
X105000Y254770D01*
X105000Y270000D01*
X185000Y350000D01*
X185000Y410000D02*
X160000Y435000D01*
X145000Y435000D01*
D15*
X145000Y435000D03*
D17*
X185000Y410000D02*
X185000Y350000D01*
D16*
X370000Y282137D02*
X402137Y250000D01*
X370000Y315000D02*
X345000Y340000D01*
X345000Y420000D01*
X360189Y435189D01*
X370000Y315000D02*
X370000Y282137D01*
D15*
X115000Y150000D03*
D17*
X115000Y155000D01*
X120000Y160000D01*
X159000Y160000D02*
X165000Y166000D01*
X159000Y160000D02*
X120000Y160000D01*
M02*
