G04 EAGLE Gerber RS-274X export*
G75*
%MOMM*%
%FSLAX34Y34*%
%LPD*%
%INBottom Copper*%
%IPPOS*%
%AMOC8*
5,1,8,0,0,1.08239X$1,22.5*%
G01*
%ADD10C,5.016000*%
%ADD11C,5.916000*%
%ADD12R,2.000000X1.200000*%
%ADD13R,1.350000X0.600000*%
%ADD14R,1.400000X0.350000*%
%ADD15R,1.900000X1.800000*%
%ADD16R,1.900000X1.900000*%
%ADD17R,1.219200X0.406400*%
%ADD18R,5.150000X5.150000*%
%ADD19R,0.700000X0.250000*%
%ADD20R,0.250000X0.700000*%
%ADD21R,0.600000X0.700000*%
%ADD22R,0.700000X0.900000*%
%ADD23R,0.900000X0.700000*%
%ADD24R,1.000000X1.100000*%
%ADD25C,1.000000*%
%ADD26R,0.900000X1.000000*%
%ADD27R,0.700000X0.600000*%
%ADD28R,0.900000X0.600000*%
%ADD29R,1.800000X1.600000*%
%ADD30R,1.100000X0.600000*%
%ADD31C,1.879600*%
%ADD32C,0.254000*%
%ADD33C,0.654800*%
%ADD34C,0.304800*%

G36*
X535118Y3746D02*
X535118Y3746D01*
X535237Y3753D01*
X535275Y3766D01*
X535316Y3771D01*
X535426Y3814D01*
X535539Y3851D01*
X535574Y3873D01*
X535611Y3888D01*
X535707Y3958D01*
X535808Y4021D01*
X535836Y4051D01*
X535869Y4074D01*
X535945Y4166D01*
X536026Y4253D01*
X536046Y4288D01*
X536071Y4319D01*
X536122Y4427D01*
X536180Y4531D01*
X536190Y4571D01*
X536207Y4607D01*
X536229Y4724D01*
X536259Y4839D01*
X536263Y4900D01*
X536267Y4920D01*
X536265Y4940D01*
X536269Y5000D01*
X536269Y535000D01*
X536254Y535118D01*
X536247Y535237D01*
X536234Y535275D01*
X536229Y535316D01*
X536186Y535426D01*
X536149Y535539D01*
X536127Y535574D01*
X536112Y535611D01*
X536043Y535707D01*
X535979Y535808D01*
X535949Y535836D01*
X535926Y535869D01*
X535834Y535945D01*
X535747Y536026D01*
X535712Y536046D01*
X535681Y536071D01*
X535573Y536122D01*
X535469Y536180D01*
X535429Y536190D01*
X535393Y536207D01*
X535276Y536229D01*
X535161Y536259D01*
X535101Y536263D01*
X535081Y536267D01*
X535060Y536265D01*
X535000Y536269D01*
X5000Y536269D01*
X4882Y536254D01*
X4763Y536247D01*
X4725Y536234D01*
X4684Y536229D01*
X4574Y536186D01*
X4461Y536149D01*
X4426Y536127D01*
X4389Y536112D01*
X4293Y536043D01*
X4192Y535979D01*
X4164Y535949D01*
X4131Y535926D01*
X4056Y535834D01*
X3974Y535747D01*
X3954Y535712D01*
X3929Y535681D01*
X3878Y535573D01*
X3820Y535469D01*
X3810Y535429D01*
X3793Y535393D01*
X3771Y535276D01*
X3741Y535161D01*
X3737Y535101D01*
X3733Y535081D01*
X3735Y535060D01*
X3731Y535000D01*
X3731Y5000D01*
X3746Y4882D01*
X3753Y4763D01*
X3766Y4725D01*
X3771Y4684D01*
X3814Y4574D01*
X3851Y4461D01*
X3873Y4426D01*
X3888Y4389D01*
X3958Y4293D01*
X4021Y4192D01*
X4051Y4164D01*
X4074Y4131D01*
X4166Y4056D01*
X4253Y3974D01*
X4288Y3954D01*
X4319Y3929D01*
X4427Y3878D01*
X4531Y3820D01*
X4571Y3810D01*
X4607Y3793D01*
X4724Y3771D01*
X4839Y3741D01*
X4900Y3737D01*
X4920Y3733D01*
X4940Y3735D01*
X5000Y3731D01*
X535000Y3731D01*
X535118Y3746D01*
G37*
%LPC*%
G36*
X142262Y12953D02*
X142262Y12953D01*
X132459Y22756D01*
X132459Y27909D01*
X132456Y27939D01*
X132458Y27968D01*
X132436Y28096D01*
X132419Y28225D01*
X132409Y28252D01*
X132404Y28281D01*
X132350Y28400D01*
X132302Y28520D01*
X132285Y28544D01*
X132273Y28571D01*
X132192Y28673D01*
X132116Y28778D01*
X132093Y28797D01*
X132074Y28820D01*
X131971Y28898D01*
X131871Y28981D01*
X131844Y28993D01*
X131820Y29011D01*
X131676Y29082D01*
X131257Y29255D01*
X128255Y32257D01*
X126631Y36178D01*
X126631Y40422D01*
X128255Y44343D01*
X131257Y47345D01*
X135178Y48969D01*
X139422Y48969D01*
X143343Y47345D01*
X146345Y44343D01*
X147969Y40422D01*
X147969Y36178D01*
X146345Y32257D01*
X143343Y29255D01*
X139422Y27631D01*
X138810Y27631D01*
X138692Y27616D01*
X138573Y27609D01*
X138535Y27596D01*
X138494Y27591D01*
X138384Y27548D01*
X138271Y27511D01*
X138236Y27489D01*
X138199Y27474D01*
X138103Y27405D01*
X138002Y27341D01*
X137974Y27311D01*
X137941Y27288D01*
X137865Y27196D01*
X137784Y27109D01*
X137764Y27074D01*
X137739Y27043D01*
X137688Y26935D01*
X137630Y26831D01*
X137620Y26791D01*
X137603Y26755D01*
X137581Y26638D01*
X137551Y26523D01*
X137547Y26463D01*
X137543Y26443D01*
X137545Y26422D01*
X137541Y26362D01*
X137541Y25386D01*
X137553Y25288D01*
X137556Y25189D01*
X137573Y25131D01*
X137581Y25071D01*
X137617Y24979D01*
X137645Y24883D01*
X137675Y24831D01*
X137698Y24775D01*
X137756Y24695D01*
X137806Y24610D01*
X137872Y24534D01*
X137884Y24518D01*
X137894Y24510D01*
X137912Y24489D01*
X143995Y18406D01*
X144073Y18346D01*
X144145Y18278D01*
X144198Y18249D01*
X144246Y18212D01*
X144337Y18172D01*
X144424Y18124D01*
X144482Y18109D01*
X144538Y18085D01*
X144636Y18070D01*
X144731Y18045D01*
X144832Y18039D01*
X144852Y18035D01*
X144864Y18037D01*
X144892Y18035D01*
X160308Y18035D01*
X160446Y18052D01*
X160584Y18065D01*
X160603Y18072D01*
X160623Y18075D01*
X160753Y18126D01*
X160884Y18173D01*
X160900Y18184D01*
X160919Y18192D01*
X161032Y18273D01*
X161147Y18351D01*
X161160Y18367D01*
X161176Y18378D01*
X161265Y18486D01*
X161357Y18590D01*
X161366Y18608D01*
X161379Y18623D01*
X161439Y18749D01*
X161502Y18873D01*
X161506Y18893D01*
X161515Y18911D01*
X161541Y19048D01*
X161571Y19183D01*
X161571Y19204D01*
X161575Y19223D01*
X161566Y19362D01*
X161562Y19501D01*
X161556Y19521D01*
X161555Y19541D01*
X161512Y19673D01*
X161473Y19807D01*
X161463Y19824D01*
X161457Y19843D01*
X161382Y19961D01*
X161312Y20081D01*
X161293Y20102D01*
X161287Y20112D01*
X161272Y20126D01*
X161205Y20201D01*
X160512Y20895D01*
X160511Y20896D01*
X158651Y22756D01*
X158651Y27581D01*
X158648Y27611D01*
X158650Y27640D01*
X158628Y27768D01*
X158611Y27897D01*
X158601Y27924D01*
X158596Y27953D01*
X158542Y28072D01*
X158494Y28192D01*
X158477Y28216D01*
X158465Y28243D01*
X158384Y28345D01*
X158308Y28450D01*
X158285Y28469D01*
X158266Y28492D01*
X158163Y28570D01*
X158063Y28653D01*
X158036Y28665D01*
X158012Y28683D01*
X157868Y28754D01*
X156657Y29255D01*
X153655Y32257D01*
X152031Y36178D01*
X152031Y40422D01*
X153655Y44343D01*
X156657Y47345D01*
X160578Y48969D01*
X164822Y48969D01*
X168743Y47345D01*
X171745Y44343D01*
X173369Y40422D01*
X173369Y36178D01*
X171745Y32257D01*
X168743Y29255D01*
X164769Y27609D01*
X164765Y27609D01*
X164727Y27596D01*
X164686Y27591D01*
X164576Y27548D01*
X164463Y27511D01*
X164428Y27489D01*
X164391Y27474D01*
X164295Y27405D01*
X164194Y27341D01*
X164166Y27311D01*
X164133Y27288D01*
X164057Y27196D01*
X163976Y27109D01*
X163956Y27074D01*
X163931Y27043D01*
X163880Y26935D01*
X163822Y26831D01*
X163812Y26791D01*
X163795Y26755D01*
X163773Y26638D01*
X163743Y26523D01*
X163739Y26463D01*
X163735Y26443D01*
X163737Y26422D01*
X163733Y26362D01*
X163733Y25386D01*
X163745Y25288D01*
X163748Y25189D01*
X163765Y25131D01*
X163773Y25071D01*
X163809Y24979D01*
X163837Y24883D01*
X163867Y24831D01*
X163890Y24775D01*
X163948Y24695D01*
X163998Y24610D01*
X164064Y24534D01*
X164076Y24518D01*
X164086Y24510D01*
X164104Y24489D01*
X165681Y22912D01*
X165759Y22852D01*
X165831Y22784D01*
X165884Y22755D01*
X165932Y22718D01*
X166023Y22678D01*
X166110Y22630D01*
X166168Y22615D01*
X166224Y22591D01*
X166322Y22576D01*
X166417Y22551D01*
X166518Y22545D01*
X166538Y22541D01*
X166550Y22543D01*
X166578Y22541D01*
X195802Y22541D01*
X195939Y22558D01*
X196078Y22571D01*
X196097Y22578D01*
X196117Y22581D01*
X196246Y22632D01*
X196378Y22679D01*
X196394Y22690D01*
X196413Y22698D01*
X196525Y22779D01*
X196641Y22857D01*
X196654Y22873D01*
X196670Y22884D01*
X196759Y22992D01*
X196851Y23096D01*
X196860Y23114D01*
X196873Y23129D01*
X196932Y23255D01*
X196996Y23379D01*
X197000Y23399D01*
X197009Y23417D01*
X197035Y23553D01*
X197065Y23689D01*
X197065Y23710D01*
X197069Y23729D01*
X197060Y23868D01*
X197056Y24007D01*
X197050Y24027D01*
X197049Y24047D01*
X197006Y24179D01*
X196967Y24313D01*
X196957Y24330D01*
X196951Y24349D01*
X196876Y24467D01*
X196806Y24587D01*
X196787Y24608D01*
X196781Y24618D01*
X196766Y24632D01*
X196699Y24707D01*
X193335Y28072D01*
X193311Y28090D01*
X193292Y28113D01*
X193186Y28188D01*
X193083Y28267D01*
X193056Y28279D01*
X193032Y28296D01*
X192911Y28342D01*
X192791Y28394D01*
X192762Y28398D01*
X192735Y28409D01*
X192606Y28423D01*
X192477Y28443D01*
X192448Y28441D01*
X192419Y28444D01*
X192290Y28426D01*
X192161Y28414D01*
X192133Y28404D01*
X192104Y28400D01*
X191951Y28347D01*
X190222Y27631D01*
X185978Y27631D01*
X182057Y29255D01*
X179055Y32257D01*
X177431Y36178D01*
X177431Y40422D01*
X179055Y44343D01*
X182057Y47345D01*
X185978Y48969D01*
X190222Y48969D01*
X194143Y47345D01*
X197145Y44343D01*
X198769Y40422D01*
X198769Y36178D01*
X197232Y32469D01*
X197225Y32440D01*
X197211Y32414D01*
X197183Y32287D01*
X197148Y32162D01*
X197148Y32133D01*
X197142Y32104D01*
X197145Y31974D01*
X197143Y31844D01*
X197150Y31815D01*
X197151Y31786D01*
X197187Y31661D01*
X197218Y31535D01*
X197231Y31509D01*
X197240Y31480D01*
X197305Y31369D01*
X197366Y31254D01*
X197386Y31232D01*
X197401Y31206D01*
X197508Y31086D01*
X200681Y27912D01*
X200759Y27852D01*
X200831Y27784D01*
X200884Y27755D01*
X200932Y27718D01*
X201023Y27678D01*
X201110Y27630D01*
X201168Y27615D01*
X201224Y27591D01*
X201322Y27576D01*
X201417Y27551D01*
X201518Y27545D01*
X201538Y27541D01*
X201550Y27543D01*
X201578Y27541D01*
X245922Y27541D01*
X246020Y27553D01*
X246119Y27556D01*
X246177Y27573D01*
X246237Y27581D01*
X246329Y27617D01*
X246425Y27645D01*
X246477Y27675D01*
X246533Y27698D01*
X246613Y27756D01*
X246698Y27806D01*
X246774Y27872D01*
X246790Y27884D01*
X246798Y27894D01*
X246819Y27912D01*
X249588Y30681D01*
X249648Y30759D01*
X249716Y30831D01*
X249745Y30884D01*
X249782Y30932D01*
X249822Y31023D01*
X249870Y31110D01*
X249885Y31168D01*
X249909Y31224D01*
X249924Y31322D01*
X249949Y31417D01*
X249955Y31518D01*
X249959Y31538D01*
X249957Y31550D01*
X249959Y31578D01*
X249959Y49960D01*
X249944Y50078D01*
X249937Y50197D01*
X249924Y50235D01*
X249919Y50276D01*
X249876Y50386D01*
X249839Y50499D01*
X249817Y50534D01*
X249802Y50571D01*
X249733Y50667D01*
X249669Y50768D01*
X249639Y50796D01*
X249616Y50829D01*
X249524Y50905D01*
X249437Y50986D01*
X249402Y51006D01*
X249371Y51031D01*
X249263Y51082D01*
X249159Y51140D01*
X249119Y51150D01*
X249083Y51167D01*
X248966Y51189D01*
X248851Y51219D01*
X248791Y51223D01*
X248771Y51227D01*
X248750Y51225D01*
X248690Y51229D01*
X245673Y51229D01*
X245646Y51250D01*
X245537Y51298D01*
X245431Y51352D01*
X245392Y51361D01*
X245354Y51377D01*
X245237Y51395D01*
X245121Y51421D01*
X245080Y51420D01*
X245040Y51427D01*
X244922Y51415D01*
X244803Y51412D01*
X244764Y51401D01*
X244724Y51397D01*
X244612Y51356D01*
X244497Y51323D01*
X244462Y51303D01*
X244424Y51289D01*
X244336Y51229D01*
X240724Y51229D01*
X239979Y51974D01*
X239979Y58710D01*
X239964Y58828D01*
X239957Y58947D01*
X239944Y58985D01*
X239939Y59026D01*
X239896Y59136D01*
X239859Y59249D01*
X239837Y59284D01*
X239822Y59321D01*
X239753Y59417D01*
X239689Y59518D01*
X239659Y59546D01*
X239636Y59579D01*
X239544Y59655D01*
X239457Y59736D01*
X239422Y59756D01*
X239391Y59781D01*
X239283Y59832D01*
X239179Y59890D01*
X239139Y59900D01*
X239103Y59917D01*
X238986Y59939D01*
X238871Y59969D01*
X238811Y59973D01*
X238791Y59977D01*
X238770Y59975D01*
X238710Y59979D01*
X231974Y59979D01*
X231229Y60724D01*
X231229Y64327D01*
X231250Y64354D01*
X231298Y64463D01*
X231352Y64569D01*
X231361Y64608D01*
X231377Y64646D01*
X231395Y64763D01*
X231421Y64879D01*
X231420Y64920D01*
X231427Y64960D01*
X231415Y65078D01*
X231412Y65197D01*
X231401Y65236D01*
X231397Y65276D01*
X231356Y65388D01*
X231323Y65503D01*
X231303Y65538D01*
X231289Y65576D01*
X231229Y65664D01*
X231229Y69327D01*
X231250Y69354D01*
X231298Y69463D01*
X231352Y69569D01*
X231361Y69608D01*
X231377Y69646D01*
X231395Y69763D01*
X231421Y69879D01*
X231420Y69920D01*
X231427Y69960D01*
X231415Y70078D01*
X231412Y70197D01*
X231401Y70236D01*
X231397Y70276D01*
X231356Y70388D01*
X231323Y70503D01*
X231303Y70538D01*
X231289Y70576D01*
X231229Y70664D01*
X231229Y74327D01*
X231250Y74354D01*
X231298Y74463D01*
X231352Y74569D01*
X231361Y74608D01*
X231377Y74646D01*
X231395Y74763D01*
X231421Y74879D01*
X231420Y74920D01*
X231427Y74960D01*
X231415Y75078D01*
X231412Y75197D01*
X231401Y75236D01*
X231397Y75276D01*
X231356Y75388D01*
X231323Y75503D01*
X231303Y75538D01*
X231289Y75576D01*
X231229Y75664D01*
X231229Y78690D01*
X231214Y78808D01*
X231207Y78927D01*
X231194Y78965D01*
X231189Y79006D01*
X231146Y79116D01*
X231109Y79229D01*
X231087Y79264D01*
X231072Y79301D01*
X231003Y79397D01*
X230939Y79498D01*
X230909Y79526D01*
X230886Y79559D01*
X230794Y79635D01*
X230707Y79716D01*
X230672Y79736D01*
X230641Y79761D01*
X230533Y79812D01*
X230429Y79870D01*
X230389Y79880D01*
X230353Y79897D01*
X230236Y79919D01*
X230121Y79949D01*
X230061Y79953D01*
X230041Y79957D01*
X230020Y79955D01*
X229960Y79959D01*
X227068Y79959D01*
X226969Y79947D01*
X226870Y79944D01*
X226812Y79927D01*
X226752Y79919D01*
X226660Y79883D01*
X226565Y79855D01*
X226513Y79825D01*
X226456Y79802D01*
X226376Y79744D01*
X226291Y79694D01*
X226216Y79628D01*
X226199Y79616D01*
X226191Y79606D01*
X226170Y79588D01*
X222786Y76203D01*
X192174Y76203D01*
X192105Y76195D01*
X192035Y76196D01*
X191948Y76175D01*
X191859Y76163D01*
X191794Y76138D01*
X191726Y76121D01*
X191646Y76079D01*
X191563Y76046D01*
X191507Y76005D01*
X191445Y75973D01*
X191378Y75912D01*
X191306Y75860D01*
X191261Y75806D01*
X191209Y75759D01*
X191160Y75684D01*
X191103Y75615D01*
X191073Y75551D01*
X191035Y75493D01*
X191005Y75408D01*
X190967Y75327D01*
X190954Y75258D01*
X190931Y75192D01*
X190924Y75103D01*
X190907Y75015D01*
X190912Y74945D01*
X190906Y74875D01*
X190922Y74787D01*
X190927Y74697D01*
X190949Y74631D01*
X190961Y74562D01*
X190998Y74480D01*
X191025Y74395D01*
X191063Y74336D01*
X191091Y74272D01*
X191147Y74202D01*
X191195Y74126D01*
X191246Y74078D01*
X191290Y74024D01*
X191362Y73969D01*
X191427Y73908D01*
X191488Y73874D01*
X191544Y73832D01*
X191688Y73761D01*
X194143Y72745D01*
X197145Y69743D01*
X198769Y65822D01*
X198769Y61578D01*
X197145Y57657D01*
X194143Y54655D01*
X190222Y53031D01*
X185978Y53031D01*
X182057Y54655D01*
X179055Y57657D01*
X177431Y61578D01*
X177431Y65822D01*
X179055Y69743D01*
X182088Y72775D01*
X182148Y72854D01*
X182216Y72926D01*
X182245Y72979D01*
X182282Y73027D01*
X182322Y73118D01*
X182370Y73204D01*
X182385Y73263D01*
X182409Y73319D01*
X182424Y73416D01*
X182449Y73512D01*
X182455Y73612D01*
X182459Y73633D01*
X182457Y73645D01*
X182459Y73673D01*
X182459Y76052D01*
X184319Y77912D01*
X184319Y77913D01*
X184507Y78100D01*
X184592Y78210D01*
X184681Y78317D01*
X184690Y78336D01*
X184702Y78352D01*
X184758Y78480D01*
X184817Y78605D01*
X184821Y78625D01*
X184829Y78644D01*
X184850Y78781D01*
X184877Y78918D01*
X184875Y78938D01*
X184878Y78958D01*
X184865Y79096D01*
X184857Y79235D01*
X184851Y79254D01*
X184849Y79274D01*
X184802Y79405D01*
X184759Y79537D01*
X184748Y79555D01*
X184741Y79574D01*
X184663Y79688D01*
X184589Y79806D01*
X184574Y79820D01*
X184563Y79837D01*
X184458Y79929D01*
X184357Y80024D01*
X184339Y80034D01*
X184324Y80047D01*
X184200Y80110D01*
X184079Y80178D01*
X184059Y80183D01*
X184041Y80192D01*
X183905Y80222D01*
X183771Y80257D01*
X183743Y80259D01*
X183731Y80262D01*
X183710Y80261D01*
X183610Y80267D01*
X164386Y80267D01*
X164288Y80255D01*
X164189Y80252D01*
X164131Y80235D01*
X164071Y80227D01*
X163979Y80191D01*
X163883Y80163D01*
X163831Y80133D01*
X163775Y80110D01*
X163695Y80052D01*
X163610Y80002D01*
X163534Y79936D01*
X163518Y79924D01*
X163510Y79914D01*
X163489Y79896D01*
X162912Y79319D01*
X162852Y79241D01*
X162784Y79169D01*
X162755Y79116D01*
X162718Y79068D01*
X162678Y78977D01*
X162630Y78890D01*
X162615Y78832D01*
X162591Y78776D01*
X162576Y78678D01*
X162551Y78583D01*
X162545Y78482D01*
X162541Y78462D01*
X162543Y78450D01*
X162541Y78422D01*
X162541Y75638D01*
X162556Y75520D01*
X162563Y75401D01*
X162576Y75363D01*
X162581Y75322D01*
X162624Y75212D01*
X162661Y75099D01*
X162683Y75064D01*
X162698Y75027D01*
X162767Y74931D01*
X162831Y74830D01*
X162861Y74802D01*
X162884Y74769D01*
X162976Y74693D01*
X163063Y74612D01*
X163098Y74592D01*
X163129Y74567D01*
X163237Y74516D01*
X163341Y74458D01*
X163381Y74448D01*
X163417Y74431D01*
X163534Y74409D01*
X163649Y74379D01*
X163709Y74375D01*
X163729Y74371D01*
X163750Y74373D01*
X163810Y74369D01*
X164822Y74369D01*
X168743Y72745D01*
X171745Y69743D01*
X173369Y65822D01*
X173369Y61578D01*
X171745Y57657D01*
X168743Y54655D01*
X164822Y53031D01*
X160578Y53031D01*
X156657Y54655D01*
X153655Y57657D01*
X152031Y61578D01*
X152031Y65822D01*
X153655Y69743D01*
X156657Y72745D01*
X156676Y72752D01*
X156701Y72767D01*
X156729Y72776D01*
X156839Y72846D01*
X156952Y72910D01*
X156973Y72931D01*
X156998Y72946D01*
X157087Y73041D01*
X157180Y73131D01*
X157196Y73156D01*
X157216Y73178D01*
X157279Y73292D01*
X157347Y73402D01*
X157355Y73431D01*
X157370Y73456D01*
X157402Y73582D01*
X157440Y73706D01*
X157442Y73736D01*
X157449Y73764D01*
X157459Y73925D01*
X157459Y81052D01*
X158571Y82165D01*
X158656Y82274D01*
X158745Y82381D01*
X158754Y82400D01*
X158766Y82416D01*
X158822Y82543D01*
X158881Y82669D01*
X158885Y82689D01*
X158893Y82708D01*
X158915Y82846D01*
X158941Y82982D01*
X158939Y83002D01*
X158943Y83022D01*
X158929Y83161D01*
X158921Y83299D01*
X158915Y83318D01*
X158913Y83338D01*
X158866Y83470D01*
X158823Y83601D01*
X158812Y83619D01*
X158805Y83638D01*
X158727Y83753D01*
X158653Y83870D01*
X158638Y83884D01*
X158627Y83901D01*
X158522Y83993D01*
X158421Y84088D01*
X158403Y84098D01*
X158388Y84111D01*
X158264Y84175D01*
X158143Y84242D01*
X158123Y84247D01*
X158105Y84256D01*
X157969Y84286D01*
X157835Y84321D01*
X157807Y84323D01*
X157795Y84326D01*
X157774Y84325D01*
X157674Y84331D01*
X143450Y84331D01*
X143352Y84319D01*
X143253Y84316D01*
X143195Y84299D01*
X143135Y84291D01*
X143043Y84255D01*
X142947Y84227D01*
X142895Y84197D01*
X142839Y84174D01*
X142759Y84116D01*
X142674Y84066D01*
X142598Y84000D01*
X142582Y83988D01*
X142574Y83978D01*
X142553Y83960D01*
X137912Y79319D01*
X137852Y79241D01*
X137784Y79169D01*
X137755Y79116D01*
X137718Y79068D01*
X137678Y78977D01*
X137630Y78890D01*
X137615Y78832D01*
X137591Y78776D01*
X137576Y78678D01*
X137551Y78583D01*
X137545Y78482D01*
X137541Y78462D01*
X137543Y78450D01*
X137541Y78422D01*
X137541Y75638D01*
X137556Y75520D01*
X137563Y75401D01*
X137576Y75363D01*
X137581Y75322D01*
X137624Y75212D01*
X137661Y75099D01*
X137683Y75064D01*
X137698Y75027D01*
X137767Y74931D01*
X137831Y74830D01*
X137861Y74802D01*
X137884Y74769D01*
X137976Y74693D01*
X138063Y74612D01*
X138098Y74592D01*
X138129Y74567D01*
X138237Y74516D01*
X138341Y74458D01*
X138381Y74448D01*
X138417Y74431D01*
X138534Y74409D01*
X138649Y74379D01*
X138709Y74375D01*
X138729Y74371D01*
X138750Y74373D01*
X138810Y74369D01*
X139422Y74369D01*
X143343Y72745D01*
X146345Y69743D01*
X147969Y65822D01*
X147969Y61578D01*
X146345Y57657D01*
X143343Y54655D01*
X139422Y53031D01*
X135178Y53031D01*
X131257Y54655D01*
X128255Y57657D01*
X126631Y61578D01*
X126631Y65822D01*
X128255Y69743D01*
X131257Y72745D01*
X131676Y72918D01*
X131701Y72933D01*
X131729Y72942D01*
X131839Y73011D01*
X131952Y73076D01*
X131973Y73096D01*
X131998Y73112D01*
X132087Y73207D01*
X132180Y73297D01*
X132196Y73322D01*
X132216Y73344D01*
X132279Y73457D01*
X132347Y73568D01*
X132355Y73596D01*
X132370Y73622D01*
X132402Y73748D01*
X132440Y73872D01*
X132442Y73901D01*
X132449Y73930D01*
X132459Y74091D01*
X132459Y81052D01*
X140820Y89413D01*
X216789Y89413D01*
X216887Y89425D01*
X216986Y89428D01*
X217044Y89445D01*
X217104Y89453D01*
X217196Y89489D01*
X217291Y89517D01*
X217343Y89547D01*
X217400Y89570D01*
X217480Y89628D01*
X217565Y89678D01*
X217641Y89744D01*
X217657Y89756D01*
X217665Y89766D01*
X217686Y89784D01*
X222942Y95041D01*
X229960Y95041D01*
X230078Y95056D01*
X230197Y95063D01*
X230235Y95076D01*
X230276Y95081D01*
X230386Y95124D01*
X230499Y95161D01*
X230534Y95183D01*
X230571Y95198D01*
X230667Y95267D01*
X230768Y95331D01*
X230796Y95361D01*
X230829Y95384D01*
X230905Y95476D01*
X230986Y95563D01*
X231006Y95598D01*
X231031Y95629D01*
X231082Y95737D01*
X231140Y95841D01*
X231150Y95881D01*
X231167Y95917D01*
X231189Y96034D01*
X231219Y96149D01*
X231223Y96209D01*
X231227Y96229D01*
X231225Y96250D01*
X231229Y96310D01*
X231229Y98690D01*
X231214Y98808D01*
X231207Y98927D01*
X231194Y98965D01*
X231189Y99006D01*
X231146Y99116D01*
X231109Y99229D01*
X231087Y99264D01*
X231072Y99301D01*
X231003Y99397D01*
X230939Y99498D01*
X230909Y99526D01*
X230886Y99559D01*
X230794Y99635D01*
X230707Y99716D01*
X230672Y99736D01*
X230641Y99761D01*
X230533Y99812D01*
X230429Y99870D01*
X230389Y99880D01*
X230353Y99897D01*
X230236Y99919D01*
X230121Y99949D01*
X230061Y99953D01*
X230041Y99957D01*
X230020Y99955D01*
X229960Y99959D01*
X224078Y99959D01*
X223980Y99947D01*
X223881Y99944D01*
X223823Y99927D01*
X223763Y99919D01*
X223671Y99883D01*
X223575Y99855D01*
X223523Y99825D01*
X223467Y99802D01*
X223387Y99744D01*
X223302Y99694D01*
X223226Y99628D01*
X223210Y99616D01*
X223202Y99606D01*
X223181Y99588D01*
X216052Y92459D01*
X148948Y92459D01*
X127437Y113969D01*
X127328Y114055D01*
X127221Y114143D01*
X127202Y114152D01*
X127186Y114164D01*
X127058Y114220D01*
X126933Y114279D01*
X126913Y114283D01*
X126894Y114291D01*
X126756Y114313D01*
X126620Y114339D01*
X126600Y114337D01*
X126580Y114341D01*
X126441Y114327D01*
X126303Y114319D01*
X126284Y114313D01*
X126264Y114311D01*
X126132Y114264D01*
X126001Y114221D01*
X125983Y114210D01*
X125964Y114203D01*
X125849Y114125D01*
X125732Y114051D01*
X125718Y114036D01*
X125701Y114025D01*
X125609Y113920D01*
X125514Y113819D01*
X125504Y113801D01*
X125491Y113786D01*
X125427Y113662D01*
X125360Y113541D01*
X125355Y113521D01*
X125346Y113503D01*
X125316Y113367D01*
X125281Y113233D01*
X125279Y113205D01*
X125276Y113193D01*
X125277Y113172D01*
X125271Y113072D01*
X125271Y97474D01*
X124526Y96729D01*
X115964Y96729D01*
X115846Y96714D01*
X115727Y96707D01*
X115689Y96694D01*
X115648Y96689D01*
X115538Y96646D01*
X115425Y96609D01*
X115390Y96587D01*
X115353Y96572D01*
X115257Y96503D01*
X115156Y96439D01*
X115128Y96409D01*
X115095Y96386D01*
X115019Y96294D01*
X114938Y96207D01*
X114918Y96172D01*
X114893Y96141D01*
X114842Y96033D01*
X114784Y95929D01*
X114774Y95889D01*
X114757Y95853D01*
X114735Y95736D01*
X114705Y95621D01*
X114701Y95561D01*
X114697Y95541D01*
X114699Y95520D01*
X114695Y95460D01*
X114695Y74938D01*
X114698Y74909D01*
X114696Y74880D01*
X114718Y74751D01*
X114735Y74623D01*
X114745Y74595D01*
X114750Y74566D01*
X114804Y74448D01*
X114852Y74327D01*
X114869Y74303D01*
X114881Y74276D01*
X114962Y74175D01*
X115038Y74070D01*
X115061Y74051D01*
X115080Y74028D01*
X115183Y73950D01*
X115283Y73867D01*
X115310Y73854D01*
X115334Y73837D01*
X115478Y73766D01*
X117943Y72745D01*
X120945Y69743D01*
X122569Y65822D01*
X122569Y61578D01*
X120945Y57657D01*
X117943Y54655D01*
X114022Y53031D01*
X109778Y53031D01*
X105857Y54655D01*
X102855Y57657D01*
X101231Y61578D01*
X101231Y65822D01*
X102194Y68146D01*
X102202Y68174D01*
X102215Y68201D01*
X102243Y68327D01*
X102278Y68453D01*
X102278Y68482D01*
X102285Y68511D01*
X102281Y68641D01*
X102283Y68771D01*
X102276Y68799D01*
X102275Y68829D01*
X102239Y68953D01*
X102209Y69080D01*
X102195Y69106D01*
X102187Y69134D01*
X102121Y69246D01*
X102060Y69361D01*
X102040Y69383D01*
X102025Y69408D01*
X101919Y69529D01*
X97205Y74242D01*
X97205Y138317D01*
X97193Y138415D01*
X97190Y138514D01*
X97173Y138572D01*
X97165Y138632D01*
X97129Y138724D01*
X97101Y138819D01*
X97071Y138872D01*
X97048Y138928D01*
X96990Y139008D01*
X96940Y139093D01*
X96874Y139169D01*
X96862Y139185D01*
X96852Y139193D01*
X96834Y139214D01*
X94714Y141334D01*
X94636Y141394D01*
X94564Y141462D01*
X94511Y141491D01*
X94463Y141528D01*
X94372Y141568D01*
X94285Y141616D01*
X94227Y141631D01*
X94171Y141655D01*
X94073Y141670D01*
X93977Y141695D01*
X93877Y141701D01*
X93857Y141705D01*
X93845Y141703D01*
X93817Y141705D01*
X86452Y141705D01*
X86314Y141688D01*
X86176Y141675D01*
X86157Y141668D01*
X86137Y141665D01*
X86007Y141614D01*
X85876Y141567D01*
X85860Y141556D01*
X85841Y141548D01*
X85728Y141467D01*
X85613Y141388D01*
X85600Y141373D01*
X85584Y141362D01*
X85494Y141254D01*
X85403Y141150D01*
X85394Y141132D01*
X85381Y141117D01*
X85321Y140990D01*
X85258Y140867D01*
X85254Y140847D01*
X85245Y140829D01*
X85219Y140693D01*
X85189Y140556D01*
X85189Y140536D01*
X85185Y140517D01*
X85194Y140378D01*
X85198Y140239D01*
X85204Y140219D01*
X85205Y140199D01*
X85248Y140067D01*
X85287Y139933D01*
X85297Y139916D01*
X85303Y139897D01*
X85377Y139779D01*
X85448Y139659D01*
X85467Y139638D01*
X85473Y139628D01*
X85488Y139614D01*
X85528Y139568D01*
X85868Y138981D01*
X86041Y138334D01*
X86041Y136499D01*
X78230Y136499D01*
X78112Y136484D01*
X77993Y136477D01*
X77986Y136475D01*
X77930Y136489D01*
X77870Y136493D01*
X77850Y136497D01*
X77830Y136495D01*
X77770Y136499D01*
X69959Y136499D01*
X69959Y138334D01*
X70132Y138981D01*
X70467Y139560D01*
X70858Y139951D01*
X70918Y140029D01*
X70986Y140101D01*
X71015Y140154D01*
X71052Y140202D01*
X71092Y140293D01*
X71140Y140380D01*
X71155Y140438D01*
X71179Y140494D01*
X71194Y140592D01*
X71219Y140687D01*
X71225Y140787D01*
X71229Y140808D01*
X71227Y140820D01*
X71229Y140848D01*
X71229Y148026D01*
X71974Y148771D01*
X75936Y148771D01*
X76054Y148786D01*
X76173Y148793D01*
X76211Y148806D01*
X76252Y148811D01*
X76362Y148854D01*
X76475Y148891D01*
X76510Y148913D01*
X76547Y148928D01*
X76643Y148997D01*
X76744Y149061D01*
X76772Y149091D01*
X76805Y149114D01*
X76881Y149206D01*
X76962Y149293D01*
X76982Y149328D01*
X77007Y149359D01*
X77058Y149467D01*
X77116Y149571D01*
X77126Y149611D01*
X77143Y149647D01*
X77165Y149764D01*
X77195Y149879D01*
X77199Y149939D01*
X77203Y149959D01*
X77201Y149980D01*
X77205Y150040D01*
X77205Y168317D01*
X77193Y168415D01*
X77190Y168514D01*
X77173Y168572D01*
X77165Y168632D01*
X77129Y168724D01*
X77101Y168819D01*
X77071Y168872D01*
X77048Y168928D01*
X76990Y169008D01*
X76940Y169093D01*
X76874Y169169D01*
X76862Y169185D01*
X76852Y169193D01*
X76834Y169214D01*
X67214Y178834D01*
X67136Y178894D01*
X67064Y178962D01*
X67011Y178991D01*
X66963Y179028D01*
X66872Y179068D01*
X66785Y179116D01*
X66727Y179131D01*
X66671Y179155D01*
X66573Y179170D01*
X66477Y179195D01*
X66377Y179201D01*
X66357Y179205D01*
X66345Y179203D01*
X66317Y179205D01*
X54778Y179205D01*
X54680Y179193D01*
X54581Y179190D01*
X54523Y179173D01*
X54463Y179165D01*
X54370Y179129D01*
X54275Y179101D01*
X54223Y179071D01*
X54167Y179048D01*
X54087Y178990D01*
X54068Y178979D01*
X38974Y178979D01*
X38229Y179724D01*
X38229Y184276D01*
X38305Y184353D01*
X38378Y184447D01*
X38457Y184536D01*
X38476Y184572D01*
X38500Y184604D01*
X38548Y184713D01*
X38602Y184819D01*
X38611Y184859D01*
X38627Y184896D01*
X38645Y185013D01*
X38671Y185129D01*
X38670Y185170D01*
X38677Y185210D01*
X38665Y185329D01*
X38662Y185447D01*
X38651Y185486D01*
X38647Y185526D01*
X38606Y185639D01*
X38573Y185753D01*
X38553Y185788D01*
X38539Y185826D01*
X38472Y185924D01*
X38412Y186027D01*
X38372Y186072D01*
X38361Y186089D01*
X38345Y186102D01*
X38305Y186148D01*
X38229Y186224D01*
X38229Y190776D01*
X38305Y190852D01*
X38378Y190947D01*
X38457Y191036D01*
X38476Y191072D01*
X38500Y191104D01*
X38548Y191213D01*
X38602Y191319D01*
X38611Y191359D01*
X38627Y191396D01*
X38645Y191513D01*
X38671Y191629D01*
X38670Y191670D01*
X38677Y191710D01*
X38665Y191828D01*
X38662Y191947D01*
X38651Y191986D01*
X38647Y192026D01*
X38606Y192139D01*
X38573Y192253D01*
X38553Y192287D01*
X38539Y192326D01*
X38472Y192424D01*
X38412Y192527D01*
X38372Y192572D01*
X38361Y192589D01*
X38345Y192602D01*
X38305Y192647D01*
X38229Y192724D01*
X38229Y197276D01*
X38305Y197352D01*
X38378Y197447D01*
X38457Y197536D01*
X38476Y197572D01*
X38500Y197604D01*
X38548Y197713D01*
X38602Y197819D01*
X38611Y197859D01*
X38627Y197896D01*
X38645Y198013D01*
X38671Y198129D01*
X38670Y198170D01*
X38677Y198210D01*
X38665Y198328D01*
X38662Y198447D01*
X38651Y198486D01*
X38647Y198526D01*
X38606Y198639D01*
X38573Y198753D01*
X38553Y198787D01*
X38539Y198826D01*
X38472Y198924D01*
X38412Y199027D01*
X38372Y199072D01*
X38361Y199089D01*
X38345Y199102D01*
X38305Y199147D01*
X38229Y199224D01*
X38229Y203402D01*
X38217Y203500D01*
X38214Y203599D01*
X38197Y203657D01*
X38189Y203717D01*
X38153Y203809D01*
X38125Y203905D01*
X38095Y203957D01*
X38072Y204013D01*
X38014Y204093D01*
X37964Y204179D01*
X37898Y204254D01*
X37886Y204270D01*
X37876Y204278D01*
X37858Y204299D01*
X37467Y204690D01*
X37132Y205269D01*
X36959Y205916D01*
X36959Y206731D01*
X46500Y206731D01*
X56041Y206731D01*
X56041Y205916D01*
X55868Y205269D01*
X55533Y204690D01*
X55142Y204299D01*
X55082Y204221D01*
X55014Y204149D01*
X54985Y204096D01*
X54948Y204048D01*
X54908Y203957D01*
X54860Y203870D01*
X54845Y203812D01*
X54821Y203756D01*
X54806Y203658D01*
X54781Y203563D01*
X54775Y203463D01*
X54771Y203442D01*
X54773Y203430D01*
X54771Y203402D01*
X54771Y199064D01*
X54786Y198946D01*
X54793Y198827D01*
X54806Y198789D01*
X54811Y198748D01*
X54854Y198638D01*
X54891Y198525D01*
X54913Y198490D01*
X54928Y198453D01*
X54997Y198357D01*
X55061Y198256D01*
X55091Y198228D01*
X55114Y198195D01*
X55206Y198119D01*
X55293Y198038D01*
X55328Y198018D01*
X55359Y197993D01*
X55467Y197942D01*
X55571Y197884D01*
X55611Y197874D01*
X55647Y197857D01*
X55764Y197835D01*
X55879Y197805D01*
X55939Y197801D01*
X55959Y197797D01*
X55980Y197799D01*
X56040Y197795D01*
X81317Y197795D01*
X81415Y197807D01*
X81514Y197810D01*
X81572Y197827D01*
X81632Y197835D01*
X81724Y197871D01*
X81819Y197899D01*
X81872Y197929D01*
X81928Y197952D01*
X82008Y198010D01*
X82093Y198060D01*
X82169Y198126D01*
X82185Y198138D01*
X82193Y198148D01*
X82214Y198166D01*
X88358Y204310D01*
X88418Y204388D01*
X88486Y204460D01*
X88515Y204513D01*
X88552Y204561D01*
X88592Y204652D01*
X88640Y204739D01*
X88655Y204797D01*
X88679Y204853D01*
X88694Y204951D01*
X88708Y205006D01*
X89474Y205771D01*
X94652Y205771D01*
X94750Y205783D01*
X94849Y205786D01*
X94907Y205803D01*
X94967Y205811D01*
X95059Y205847D01*
X95155Y205875D01*
X95207Y205905D01*
X95263Y205928D01*
X95343Y205986D01*
X95429Y206036D01*
X95504Y206102D01*
X95520Y206114D01*
X95528Y206124D01*
X95549Y206142D01*
X100088Y210681D01*
X101948Y212541D01*
X131052Y212541D01*
X142541Y201052D01*
X142541Y121578D01*
X142553Y121480D01*
X142556Y121381D01*
X142573Y121323D01*
X142581Y121263D01*
X142617Y121171D01*
X142645Y121075D01*
X142675Y121023D01*
X142698Y120967D01*
X142756Y120887D01*
X142806Y120802D01*
X142872Y120726D01*
X142884Y120710D01*
X142894Y120702D01*
X142912Y120681D01*
X157257Y106336D01*
X157335Y106276D01*
X157407Y106208D01*
X157460Y106179D01*
X157508Y106142D01*
X157599Y106102D01*
X157686Y106054D01*
X157744Y106039D01*
X157800Y106015D01*
X157898Y106000D01*
X157993Y105975D01*
X158094Y105969D01*
X158114Y105965D01*
X158126Y105967D01*
X158154Y105965D01*
X212593Y105965D01*
X212691Y105977D01*
X212790Y105980D01*
X212849Y105997D01*
X212909Y106005D01*
X213001Y106041D01*
X213096Y106069D01*
X213148Y106099D01*
X213204Y106122D01*
X213285Y106180D01*
X213370Y106230D01*
X213445Y106296D01*
X213462Y106308D01*
X213470Y106318D01*
X213491Y106336D01*
X217195Y110041D01*
X228690Y110041D01*
X228808Y110056D01*
X228927Y110063D01*
X228965Y110076D01*
X229006Y110081D01*
X229116Y110124D01*
X229229Y110161D01*
X229264Y110183D01*
X229301Y110198D01*
X229397Y110267D01*
X229498Y110331D01*
X229526Y110361D01*
X229559Y110384D01*
X229635Y110476D01*
X229716Y110563D01*
X229736Y110598D01*
X229761Y110629D01*
X229812Y110737D01*
X229870Y110841D01*
X229880Y110881D01*
X229897Y110917D01*
X229919Y111034D01*
X229949Y111149D01*
X229953Y111209D01*
X229957Y111229D01*
X229957Y111231D01*
X236000Y111231D01*
X236118Y111246D01*
X236237Y111253D01*
X236275Y111265D01*
X236315Y111270D01*
X236426Y111314D01*
X236539Y111351D01*
X236573Y111373D01*
X236611Y111387D01*
X236707Y111457D01*
X236808Y111521D01*
X236836Y111551D01*
X236868Y111574D01*
X236944Y111666D01*
X237026Y111753D01*
X237045Y111788D01*
X237071Y111819D01*
X237122Y111927D01*
X237179Y112031D01*
X237189Y112070D01*
X237207Y112107D01*
X237229Y112224D01*
X237259Y112339D01*
X237263Y112399D01*
X237266Y112419D01*
X237266Y112420D01*
X237265Y112440D01*
X237269Y112500D01*
X237254Y112618D01*
X237247Y112737D01*
X237234Y112775D01*
X237229Y112816D01*
X237185Y112926D01*
X237149Y113040D01*
X237127Y113074D01*
X237112Y113111D01*
X237042Y113208D01*
X236978Y113308D01*
X236949Y113336D01*
X236925Y113369D01*
X236833Y113445D01*
X236747Y113526D01*
X236711Y113546D01*
X236680Y113572D01*
X236573Y113622D01*
X236468Y113680D01*
X236429Y113690D01*
X236393Y113707D01*
X236276Y113729D01*
X236160Y113759D01*
X236100Y113763D01*
X236080Y113767D01*
X236060Y113766D01*
X236000Y113769D01*
X229949Y113769D01*
X229944Y113808D01*
X229937Y113927D01*
X229924Y113965D01*
X229919Y114006D01*
X229876Y114116D01*
X229839Y114229D01*
X229817Y114264D01*
X229802Y114301D01*
X229733Y114397D01*
X229669Y114498D01*
X229639Y114526D01*
X229616Y114559D01*
X229524Y114634D01*
X229437Y114716D01*
X229402Y114736D01*
X229371Y114761D01*
X229263Y114812D01*
X229159Y114870D01*
X229119Y114880D01*
X229083Y114897D01*
X228966Y114919D01*
X228851Y114949D01*
X228791Y114953D01*
X228771Y114957D01*
X228750Y114955D01*
X228690Y114959D01*
X226448Y114959D01*
X222088Y119319D01*
X219319Y122088D01*
X219241Y122148D01*
X219169Y122216D01*
X219116Y122245D01*
X219068Y122282D01*
X218977Y122322D01*
X218890Y122370D01*
X218832Y122385D01*
X218776Y122409D01*
X218678Y122424D01*
X218583Y122449D01*
X218483Y122455D01*
X218462Y122459D01*
X218450Y122457D01*
X218422Y122459D01*
X210310Y122459D01*
X210192Y122444D01*
X210073Y122437D01*
X210035Y122424D01*
X209994Y122419D01*
X209884Y122376D01*
X209771Y122339D01*
X209736Y122317D01*
X209699Y122302D01*
X209603Y122233D01*
X209502Y122169D01*
X209474Y122139D01*
X209441Y122116D01*
X209365Y122024D01*
X209284Y121937D01*
X209264Y121902D01*
X209239Y121871D01*
X209188Y121763D01*
X209130Y121659D01*
X209120Y121619D01*
X209103Y121583D01*
X209081Y121466D01*
X209051Y121351D01*
X209047Y121291D01*
X209043Y121271D01*
X209045Y121250D01*
X209041Y121190D01*
X209041Y118099D01*
X203480Y118099D01*
X203362Y118084D01*
X203243Y118077D01*
X203205Y118064D01*
X203165Y118059D01*
X203054Y118016D01*
X202941Y117979D01*
X202907Y117957D01*
X202869Y117942D01*
X202773Y117873D01*
X202672Y117809D01*
X202644Y117779D01*
X202612Y117756D01*
X202536Y117664D01*
X202454Y117577D01*
X202435Y117542D01*
X202409Y117511D01*
X202358Y117403D01*
X202301Y117299D01*
X202291Y117259D01*
X202273Y117223D01*
X202251Y117106D01*
X202245Y117104D01*
X202204Y117099D01*
X202094Y117055D01*
X201981Y117019D01*
X201946Y116997D01*
X201909Y116982D01*
X201812Y116912D01*
X201712Y116849D01*
X201684Y116819D01*
X201651Y116795D01*
X201575Y116704D01*
X201494Y116617D01*
X201474Y116582D01*
X201449Y116550D01*
X201398Y116443D01*
X201340Y116338D01*
X201330Y116299D01*
X201313Y116263D01*
X201291Y116146D01*
X201261Y116030D01*
X201257Y115970D01*
X201253Y115950D01*
X201255Y115930D01*
X201251Y115870D01*
X201251Y109309D01*
X199166Y109309D01*
X198519Y109482D01*
X197940Y109817D01*
X197467Y110290D01*
X197132Y110869D01*
X197106Y110967D01*
X197056Y111089D01*
X197012Y111214D01*
X196996Y111236D01*
X196986Y111261D01*
X196907Y111367D01*
X196833Y111477D01*
X196813Y111495D01*
X196797Y111517D01*
X196694Y111600D01*
X196595Y111688D01*
X196571Y111700D01*
X196550Y111717D01*
X196429Y111772D01*
X196311Y111832D01*
X196285Y111838D01*
X196260Y111849D01*
X196130Y111873D01*
X196001Y111902D01*
X195974Y111901D01*
X195948Y111906D01*
X195816Y111896D01*
X195683Y111892D01*
X195657Y111885D01*
X195630Y111883D01*
X195505Y111841D01*
X195378Y111804D01*
X195354Y111790D01*
X195329Y111781D01*
X195218Y111709D01*
X195104Y111642D01*
X195075Y111617D01*
X195062Y111608D01*
X195047Y111592D01*
X194983Y111536D01*
X194026Y110579D01*
X185974Y110579D01*
X184888Y111665D01*
X184793Y111738D01*
X184704Y111817D01*
X184668Y111836D01*
X184636Y111860D01*
X184527Y111908D01*
X184421Y111962D01*
X184382Y111971D01*
X184344Y111987D01*
X184227Y112005D01*
X184111Y112031D01*
X184070Y112030D01*
X184030Y112036D01*
X183912Y112025D01*
X183793Y112022D01*
X183754Y112010D01*
X183714Y112007D01*
X183602Y111966D01*
X183487Y111933D01*
X183453Y111913D01*
X183414Y111899D01*
X183316Y111832D01*
X183213Y111772D01*
X183168Y111732D01*
X183151Y111720D01*
X183138Y111705D01*
X183093Y111665D01*
X181882Y110455D01*
X178118Y110455D01*
X175455Y113118D01*
X175455Y116882D01*
X178118Y119545D01*
X181882Y119545D01*
X182165Y119262D01*
X182243Y119202D01*
X182315Y119134D01*
X182368Y119105D01*
X182416Y119068D01*
X182507Y119028D01*
X182594Y118980D01*
X182652Y118965D01*
X182708Y118941D01*
X182806Y118926D01*
X182902Y118901D01*
X183002Y118895D01*
X183022Y118891D01*
X183034Y118893D01*
X183062Y118891D01*
X183960Y118891D01*
X184078Y118906D01*
X184197Y118913D01*
X184235Y118926D01*
X184276Y118931D01*
X184386Y118974D01*
X184499Y119011D01*
X184534Y119033D01*
X184571Y119048D01*
X184667Y119117D01*
X184768Y119181D01*
X184796Y119211D01*
X184829Y119234D01*
X184905Y119326D01*
X184986Y119413D01*
X185006Y119448D01*
X185031Y119479D01*
X185082Y119587D01*
X185140Y119691D01*
X185150Y119731D01*
X185167Y119767D01*
X185189Y119884D01*
X185219Y119999D01*
X185223Y120059D01*
X185227Y120079D01*
X185225Y120100D01*
X185229Y120160D01*
X185229Y121376D01*
X185974Y122121D01*
X191652Y122121D01*
X191750Y122133D01*
X191849Y122136D01*
X191907Y122153D01*
X191967Y122161D01*
X192059Y122197D01*
X192155Y122225D01*
X192207Y122255D01*
X192263Y122278D01*
X192343Y122336D01*
X192428Y122386D01*
X192504Y122452D01*
X192520Y122464D01*
X192528Y122474D01*
X192549Y122492D01*
X197598Y127541D01*
X221190Y127541D01*
X221308Y127556D01*
X221427Y127563D01*
X221465Y127576D01*
X221506Y127581D01*
X221616Y127624D01*
X221729Y127661D01*
X221764Y127683D01*
X221801Y127698D01*
X221897Y127767D01*
X221998Y127831D01*
X222026Y127861D01*
X222059Y127884D01*
X222135Y127976D01*
X222216Y128063D01*
X222236Y128098D01*
X222261Y128129D01*
X222312Y128237D01*
X222370Y128341D01*
X222380Y128381D01*
X222397Y128417D01*
X222419Y128534D01*
X222449Y128649D01*
X222453Y128709D01*
X222457Y128729D01*
X222455Y128750D01*
X222459Y128810D01*
X222459Y128960D01*
X222444Y129078D01*
X222437Y129197D01*
X222424Y129235D01*
X222419Y129276D01*
X222376Y129386D01*
X222339Y129499D01*
X222317Y129534D01*
X222302Y129571D01*
X222233Y129667D01*
X222169Y129768D01*
X222139Y129796D01*
X222116Y129829D01*
X222024Y129905D01*
X221937Y129986D01*
X221902Y130006D01*
X221871Y130031D01*
X221763Y130082D01*
X221659Y130140D01*
X221619Y130150D01*
X221583Y130167D01*
X221525Y130178D01*
X220897Y130805D01*
X220803Y130878D01*
X220714Y130957D01*
X220678Y130976D01*
X220646Y131000D01*
X220537Y131048D01*
X220431Y131102D01*
X220392Y131111D01*
X220354Y131127D01*
X220237Y131145D01*
X220121Y131171D01*
X220080Y131170D01*
X220040Y131177D01*
X219922Y131165D01*
X219803Y131162D01*
X219764Y131151D01*
X219724Y131147D01*
X219612Y131106D01*
X219497Y131073D01*
X219462Y131053D01*
X219424Y131039D01*
X219326Y130972D01*
X219223Y130912D01*
X219178Y130872D01*
X219161Y130861D01*
X219148Y130845D01*
X219102Y130805D01*
X218526Y130229D01*
X211474Y130229D01*
X210729Y130974D01*
X210729Y136652D01*
X210717Y136750D01*
X210714Y136849D01*
X210697Y136907D01*
X210689Y136967D01*
X210653Y137059D01*
X210625Y137155D01*
X210595Y137207D01*
X210572Y137263D01*
X210514Y137343D01*
X210464Y137429D01*
X210398Y137504D01*
X210386Y137520D01*
X210376Y137528D01*
X210358Y137549D01*
X202549Y145358D01*
X202471Y145418D01*
X202399Y145486D01*
X202346Y145515D01*
X202298Y145552D01*
X202207Y145592D01*
X202120Y145640D01*
X202062Y145655D01*
X202006Y145679D01*
X201908Y145694D01*
X201813Y145719D01*
X201712Y145725D01*
X201692Y145729D01*
X201680Y145727D01*
X201652Y145729D01*
X194474Y145729D01*
X193729Y146474D01*
X193729Y157526D01*
X194686Y158483D01*
X194767Y158588D01*
X194852Y158689D01*
X194864Y158713D01*
X194881Y158734D01*
X194933Y158856D01*
X194991Y158975D01*
X194996Y159001D01*
X195007Y159026D01*
X195028Y159157D01*
X195054Y159287D01*
X195053Y159313D01*
X195057Y159340D01*
X195044Y159472D01*
X195038Y159604D01*
X195030Y159630D01*
X195027Y159657D01*
X194982Y159781D01*
X194943Y159908D01*
X194929Y159931D01*
X194919Y159956D01*
X194845Y160065D01*
X194775Y160178D01*
X194756Y160197D01*
X194741Y160219D01*
X194642Y160307D01*
X194546Y160398D01*
X194523Y160412D01*
X194502Y160430D01*
X194384Y160490D01*
X194269Y160555D01*
X194233Y160567D01*
X194219Y160574D01*
X194198Y160579D01*
X194117Y160606D01*
X194019Y160632D01*
X193440Y160967D01*
X192967Y161440D01*
X192632Y162019D01*
X192459Y162666D01*
X192459Y165751D01*
X198520Y165751D01*
X198638Y165766D01*
X198757Y165773D01*
X198795Y165785D01*
X198835Y165791D01*
X198946Y165834D01*
X199059Y165871D01*
X199093Y165893D01*
X199131Y165908D01*
X199227Y165977D01*
X199328Y166041D01*
X199356Y166071D01*
X199388Y166094D01*
X199464Y166186D01*
X199496Y166220D01*
X199501Y166212D01*
X199531Y166184D01*
X199555Y166151D01*
X199646Y166075D01*
X199733Y165994D01*
X199768Y165974D01*
X199800Y165949D01*
X199907Y165898D01*
X200012Y165840D01*
X200051Y165830D01*
X200087Y165813D01*
X200204Y165791D01*
X200320Y165761D01*
X200380Y165757D01*
X200400Y165753D01*
X200420Y165755D01*
X200480Y165751D01*
X206541Y165751D01*
X206541Y162666D01*
X206368Y162019D01*
X206033Y161440D01*
X205560Y160967D01*
X204981Y160632D01*
X204883Y160606D01*
X204761Y160556D01*
X204636Y160512D01*
X204614Y160496D01*
X204589Y160486D01*
X204483Y160407D01*
X204373Y160333D01*
X204355Y160313D01*
X204333Y160297D01*
X204250Y160194D01*
X204162Y160095D01*
X204150Y160071D01*
X204133Y160050D01*
X204078Y159929D01*
X204018Y159811D01*
X204012Y159785D01*
X204001Y159760D01*
X203977Y159630D01*
X203948Y159501D01*
X203949Y159474D01*
X203944Y159448D01*
X203954Y159316D01*
X203958Y159183D01*
X203965Y159157D01*
X203967Y159130D01*
X204009Y159005D01*
X204046Y158878D01*
X204060Y158854D01*
X204069Y158829D01*
X204141Y158718D01*
X204208Y158604D01*
X204233Y158575D01*
X204242Y158562D01*
X204258Y158547D01*
X204314Y158483D01*
X205271Y157526D01*
X205271Y154560D01*
X205286Y154442D01*
X205293Y154323D01*
X205306Y154285D01*
X205311Y154244D01*
X205354Y154134D01*
X205391Y154021D01*
X205413Y153986D01*
X205428Y153949D01*
X205497Y153853D01*
X205561Y153752D01*
X205591Y153724D01*
X205614Y153691D01*
X205706Y153615D01*
X205793Y153534D01*
X205828Y153514D01*
X205859Y153489D01*
X205967Y153438D01*
X206071Y153380D01*
X206111Y153370D01*
X206147Y153353D01*
X206264Y153331D01*
X206379Y153301D01*
X206439Y153297D01*
X206459Y153293D01*
X206480Y153295D01*
X206540Y153291D01*
X233460Y153291D01*
X233578Y153306D01*
X233697Y153313D01*
X233735Y153326D01*
X233776Y153331D01*
X233886Y153374D01*
X233999Y153411D01*
X234034Y153433D01*
X234071Y153448D01*
X234167Y153517D01*
X234268Y153581D01*
X234296Y153611D01*
X234329Y153634D01*
X234405Y153726D01*
X234486Y153813D01*
X234506Y153848D01*
X234531Y153879D01*
X234582Y153987D01*
X234640Y154091D01*
X234650Y154131D01*
X234667Y154167D01*
X234689Y154284D01*
X234719Y154399D01*
X234723Y154459D01*
X234727Y154479D01*
X234725Y154500D01*
X234729Y154560D01*
X234729Y157526D01*
X235686Y158483D01*
X235767Y158588D01*
X235852Y158689D01*
X235864Y158713D01*
X235881Y158734D01*
X235933Y158856D01*
X235991Y158975D01*
X235996Y159001D01*
X236007Y159026D01*
X236028Y159157D01*
X236054Y159287D01*
X236053Y159313D01*
X236057Y159340D01*
X236044Y159472D01*
X236038Y159604D01*
X236030Y159630D01*
X236027Y159657D01*
X235982Y159781D01*
X235943Y159908D01*
X235929Y159931D01*
X235919Y159956D01*
X235845Y160065D01*
X235775Y160178D01*
X235756Y160197D01*
X235741Y160219D01*
X235642Y160307D01*
X235546Y160398D01*
X235523Y160412D01*
X235502Y160430D01*
X235384Y160490D01*
X235269Y160555D01*
X235233Y160567D01*
X235219Y160574D01*
X235198Y160579D01*
X235117Y160606D01*
X235019Y160632D01*
X234440Y160967D01*
X233967Y161440D01*
X233632Y162019D01*
X233459Y162666D01*
X233459Y165751D01*
X239520Y165751D01*
X239638Y165766D01*
X239757Y165773D01*
X239795Y165785D01*
X239835Y165791D01*
X239946Y165834D01*
X240059Y165871D01*
X240093Y165893D01*
X240131Y165908D01*
X240227Y165977D01*
X240328Y166041D01*
X240356Y166071D01*
X240388Y166094D01*
X240464Y166186D01*
X240496Y166220D01*
X240501Y166212D01*
X240531Y166184D01*
X240555Y166151D01*
X240646Y166075D01*
X240733Y165994D01*
X240768Y165974D01*
X240800Y165949D01*
X240907Y165898D01*
X241012Y165840D01*
X241051Y165830D01*
X241087Y165813D01*
X241204Y165791D01*
X241320Y165761D01*
X241380Y165757D01*
X241400Y165753D01*
X241420Y165755D01*
X241480Y165751D01*
X247541Y165751D01*
X247541Y162666D01*
X247368Y162019D01*
X247033Y161440D01*
X246560Y160967D01*
X245981Y160632D01*
X245883Y160606D01*
X245761Y160556D01*
X245636Y160512D01*
X245614Y160496D01*
X245589Y160486D01*
X245483Y160407D01*
X245373Y160333D01*
X245355Y160313D01*
X245333Y160297D01*
X245250Y160194D01*
X245162Y160095D01*
X245150Y160071D01*
X245133Y160050D01*
X245078Y159929D01*
X245018Y159811D01*
X245012Y159785D01*
X245001Y159760D01*
X244977Y159630D01*
X244948Y159501D01*
X244949Y159474D01*
X244944Y159448D01*
X244954Y159316D01*
X244958Y159183D01*
X244965Y159157D01*
X244967Y159130D01*
X245009Y159005D01*
X245046Y158878D01*
X245060Y158854D01*
X245069Y158829D01*
X245141Y158718D01*
X245208Y158604D01*
X245233Y158575D01*
X245242Y158562D01*
X245258Y158547D01*
X245314Y158483D01*
X246271Y157526D01*
X246271Y155810D01*
X246286Y155692D01*
X246293Y155573D01*
X246306Y155535D01*
X246311Y155494D01*
X246354Y155384D01*
X246391Y155271D01*
X246413Y155236D01*
X246428Y155199D01*
X246497Y155103D01*
X246561Y155002D01*
X246591Y154974D01*
X246614Y154941D01*
X246706Y154865D01*
X246793Y154784D01*
X246828Y154764D01*
X246859Y154739D01*
X246967Y154688D01*
X247071Y154630D01*
X247111Y154620D01*
X247147Y154603D01*
X247264Y154581D01*
X247379Y154551D01*
X247439Y154547D01*
X247459Y154543D01*
X247480Y154545D01*
X247540Y154541D01*
X247588Y154541D01*
X247686Y154553D01*
X247785Y154556D01*
X247843Y154573D01*
X247903Y154581D01*
X247995Y154617D01*
X248090Y154645D01*
X248143Y154675D01*
X248199Y154698D01*
X248279Y154756D01*
X248364Y154806D01*
X248440Y154872D01*
X248456Y154884D01*
X248464Y154894D01*
X248485Y154912D01*
X250118Y156545D01*
X253882Y156545D01*
X256545Y153882D01*
X256545Y150092D01*
X256461Y149991D01*
X256452Y149972D01*
X256440Y149956D01*
X256384Y149828D01*
X256325Y149703D01*
X256321Y149683D01*
X256313Y149664D01*
X256292Y149527D01*
X256265Y149390D01*
X256267Y149370D01*
X256264Y149350D01*
X256277Y149212D01*
X256285Y149073D01*
X256291Y149054D01*
X256293Y149034D01*
X256340Y148903D01*
X256383Y148771D01*
X256394Y148753D01*
X256401Y148734D01*
X256479Y148619D01*
X256553Y148502D01*
X256568Y148488D01*
X256580Y148471D01*
X256684Y148379D01*
X256785Y148284D01*
X256803Y148274D01*
X256818Y148261D01*
X256942Y148197D01*
X257064Y148130D01*
X257083Y148125D01*
X257101Y148116D01*
X257237Y148086D01*
X257371Y148051D01*
X257399Y148049D01*
X257411Y148046D01*
X257432Y148047D01*
X257532Y148041D01*
X257751Y148041D01*
X257751Y142749D01*
X253459Y142749D01*
X253459Y145834D01*
X253465Y145857D01*
X253483Y145982D01*
X253506Y146106D01*
X253504Y146139D01*
X253509Y146172D01*
X253494Y146298D01*
X253486Y146423D01*
X253476Y146455D01*
X253472Y146488D01*
X253427Y146606D01*
X253388Y146725D01*
X253370Y146754D01*
X253358Y146785D01*
X253285Y146888D01*
X253218Y146994D01*
X253194Y147017D01*
X253174Y147045D01*
X253078Y147126D01*
X252987Y147212D01*
X252957Y147228D01*
X252931Y147250D01*
X252818Y147305D01*
X252708Y147366D01*
X252676Y147374D01*
X252645Y147389D01*
X252522Y147414D01*
X252400Y147445D01*
X252351Y147448D01*
X252334Y147452D01*
X252312Y147451D01*
X252239Y147455D01*
X250118Y147455D01*
X248485Y149088D01*
X248407Y149148D01*
X248335Y149216D01*
X248282Y149245D01*
X248234Y149282D01*
X248143Y149322D01*
X248056Y149370D01*
X247998Y149385D01*
X247942Y149409D01*
X247844Y149424D01*
X247748Y149449D01*
X247648Y149455D01*
X247628Y149459D01*
X247616Y149457D01*
X247588Y149459D01*
X247540Y149459D01*
X247422Y149444D01*
X247303Y149437D01*
X247265Y149424D01*
X247224Y149419D01*
X247114Y149376D01*
X247001Y149339D01*
X246966Y149317D01*
X246929Y149302D01*
X246833Y149233D01*
X246732Y149169D01*
X246704Y149139D01*
X246671Y149116D01*
X246595Y149024D01*
X246514Y148937D01*
X246494Y148902D01*
X246469Y148871D01*
X246418Y148763D01*
X246360Y148659D01*
X246350Y148619D01*
X246333Y148583D01*
X246311Y148466D01*
X246281Y148351D01*
X246277Y148291D01*
X246273Y148271D01*
X246275Y148250D01*
X246271Y148190D01*
X246271Y146474D01*
X245526Y145729D01*
X244310Y145729D01*
X244192Y145714D01*
X244073Y145707D01*
X244035Y145694D01*
X243994Y145689D01*
X243884Y145646D01*
X243771Y145609D01*
X243736Y145587D01*
X243699Y145572D01*
X243603Y145503D01*
X243502Y145439D01*
X243474Y145409D01*
X243441Y145386D01*
X243365Y145294D01*
X243284Y145207D01*
X243264Y145172D01*
X243239Y145141D01*
X243188Y145033D01*
X243130Y144929D01*
X243120Y144889D01*
X243103Y144853D01*
X243081Y144736D01*
X243051Y144621D01*
X243047Y144561D01*
X243043Y144541D01*
X243045Y144520D01*
X243041Y144460D01*
X243041Y142578D01*
X243053Y142480D01*
X243056Y142381D01*
X243073Y142323D01*
X243081Y142263D01*
X243117Y142171D01*
X243145Y142075D01*
X243175Y142023D01*
X243198Y141967D01*
X243256Y141887D01*
X243306Y141802D01*
X243372Y141726D01*
X243384Y141710D01*
X243394Y141702D01*
X243412Y141681D01*
X251887Y133206D01*
X251965Y133146D01*
X252037Y133078D01*
X252090Y133049D01*
X252138Y133012D01*
X252229Y132972D01*
X252316Y132924D01*
X252374Y132909D01*
X252430Y132885D01*
X252528Y132870D01*
X252623Y132845D01*
X252724Y132839D01*
X252744Y132835D01*
X252756Y132837D01*
X252784Y132835D01*
X253008Y132835D01*
X253146Y132852D01*
X253285Y132865D01*
X253303Y132872D01*
X253323Y132875D01*
X253453Y132926D01*
X253584Y132973D01*
X253601Y132984D01*
X253619Y132992D01*
X253732Y133073D01*
X253847Y133152D01*
X253860Y133167D01*
X253876Y133178D01*
X253965Y133286D01*
X254057Y133390D01*
X254066Y133408D01*
X254079Y133423D01*
X254139Y133549D01*
X254202Y133673D01*
X254206Y133693D01*
X254215Y133711D01*
X254241Y133847D01*
X254271Y133984D01*
X254271Y134004D01*
X254275Y134023D01*
X254266Y134162D01*
X254262Y134302D01*
X254256Y134321D01*
X254255Y134341D01*
X254212Y134473D01*
X254173Y134607D01*
X254163Y134624D01*
X254157Y134643D01*
X254082Y134761D01*
X254012Y134881D01*
X253993Y134902D01*
X253987Y134912D01*
X253979Y134920D01*
X253632Y135519D01*
X253459Y136166D01*
X253459Y139251D01*
X257751Y139251D01*
X257751Y133941D01*
X257623Y133929D01*
X257604Y133922D01*
X257584Y133919D01*
X257455Y133868D01*
X257324Y133821D01*
X257307Y133810D01*
X257288Y133802D01*
X257176Y133721D01*
X257061Y133643D01*
X257047Y133627D01*
X257031Y133616D01*
X256942Y133508D01*
X256850Y133404D01*
X256841Y133386D01*
X256828Y133371D01*
X256769Y133245D01*
X256706Y133121D01*
X256701Y133101D01*
X256693Y133083D01*
X256666Y132946D01*
X256636Y132811D01*
X256637Y132790D01*
X256633Y132771D01*
X256641Y132632D01*
X256646Y132493D01*
X256651Y132473D01*
X256652Y132453D01*
X256695Y132321D01*
X256734Y132187D01*
X256744Y132170D01*
X256751Y132151D01*
X256825Y132033D01*
X256896Y131913D01*
X256914Y131892D01*
X256921Y131882D01*
X256936Y131868D01*
X257002Y131793D01*
X257820Y130975D01*
X259652Y129142D01*
X259730Y129082D01*
X259802Y129014D01*
X259855Y128985D01*
X259903Y128948D01*
X259994Y128908D01*
X260081Y128860D01*
X260139Y128845D01*
X260195Y128821D01*
X260293Y128806D01*
X260389Y128781D01*
X260489Y128775D01*
X260509Y128771D01*
X260521Y128773D01*
X260549Y128771D01*
X263402Y128771D01*
X263500Y128783D01*
X263599Y128786D01*
X263657Y128803D01*
X263717Y128811D01*
X263809Y128847D01*
X263905Y128875D01*
X263957Y128905D01*
X264013Y128928D01*
X264093Y128986D01*
X264179Y129036D01*
X264254Y129102D01*
X264270Y129114D01*
X264278Y129124D01*
X264299Y129142D01*
X264690Y129533D01*
X265269Y129868D01*
X265916Y130041D01*
X266231Y130041D01*
X266231Y124000D01*
X266246Y123882D01*
X266253Y123763D01*
X266265Y123725D01*
X266270Y123685D01*
X266314Y123574D01*
X266351Y123461D01*
X266373Y123427D01*
X266387Y123389D01*
X266457Y123293D01*
X266521Y123192D01*
X266551Y123164D01*
X266574Y123132D01*
X266666Y123056D01*
X266753Y122974D01*
X266788Y122955D01*
X266819Y122929D01*
X266927Y122878D01*
X267031Y122821D01*
X267070Y122811D01*
X267107Y122793D01*
X267224Y122771D01*
X267339Y122741D01*
X267399Y122737D01*
X267419Y122734D01*
X267420Y122734D01*
X267440Y122735D01*
X267500Y122731D01*
X267618Y122746D01*
X267737Y122753D01*
X267775Y122766D01*
X267816Y122771D01*
X267926Y122815D01*
X268040Y122851D01*
X268074Y122873D01*
X268111Y122888D01*
X268208Y122958D01*
X268308Y123022D01*
X268336Y123051D01*
X268369Y123075D01*
X268445Y123167D01*
X268526Y123253D01*
X268546Y123289D01*
X268572Y123320D01*
X268622Y123427D01*
X268680Y123532D01*
X268690Y123571D01*
X268707Y123607D01*
X268729Y123724D01*
X268759Y123840D01*
X268763Y123900D01*
X268767Y123920D01*
X268766Y123940D01*
X268769Y124000D01*
X268769Y130051D01*
X268808Y130056D01*
X268927Y130063D01*
X268965Y130076D01*
X269006Y130081D01*
X269116Y130124D01*
X269229Y130161D01*
X269264Y130183D01*
X269301Y130198D01*
X269397Y130267D01*
X269498Y130331D01*
X269526Y130361D01*
X269559Y130384D01*
X269635Y130476D01*
X269716Y130563D01*
X269736Y130598D01*
X269761Y130629D01*
X269812Y130737D01*
X269870Y130841D01*
X269880Y130881D01*
X269897Y130917D01*
X269919Y131034D01*
X269949Y131149D01*
X269953Y131209D01*
X269957Y131229D01*
X269955Y131250D01*
X269959Y131310D01*
X269959Y133960D01*
X269944Y134078D01*
X269937Y134197D01*
X269924Y134235D01*
X269919Y134276D01*
X269876Y134386D01*
X269839Y134499D01*
X269817Y134534D01*
X269802Y134571D01*
X269733Y134667D01*
X269669Y134768D01*
X269639Y134796D01*
X269616Y134829D01*
X269524Y134905D01*
X269437Y134986D01*
X269402Y135006D01*
X269371Y135031D01*
X269263Y135082D01*
X269159Y135140D01*
X269119Y135150D01*
X269083Y135167D01*
X268966Y135189D01*
X268851Y135219D01*
X268791Y135223D01*
X268771Y135227D01*
X268750Y135225D01*
X268690Y135229D01*
X268474Y135229D01*
X267517Y136186D01*
X267413Y136267D01*
X267311Y136352D01*
X267287Y136364D01*
X267266Y136381D01*
X267144Y136433D01*
X267025Y136491D01*
X266999Y136496D01*
X266974Y136507D01*
X266843Y136528D01*
X266714Y136554D01*
X266687Y136553D01*
X266660Y136557D01*
X266528Y136544D01*
X266396Y136538D01*
X266370Y136530D01*
X266343Y136527D01*
X266219Y136482D01*
X266092Y136443D01*
X266069Y136429D01*
X266044Y136419D01*
X265934Y136345D01*
X265822Y136275D01*
X265803Y136256D01*
X265781Y136241D01*
X265693Y136142D01*
X265602Y136046D01*
X265588Y136023D01*
X265570Y136002D01*
X265510Y135884D01*
X265445Y135769D01*
X265433Y135733D01*
X265426Y135719D01*
X265421Y135698D01*
X265394Y135617D01*
X265368Y135519D01*
X265033Y134940D01*
X264560Y134467D01*
X263981Y134132D01*
X263334Y133959D01*
X261249Y133959D01*
X261249Y140520D01*
X261234Y140638D01*
X261227Y140757D01*
X261214Y140795D01*
X261209Y140835D01*
X261166Y140946D01*
X261150Y140994D01*
X261160Y141012D01*
X261170Y141051D01*
X261187Y141087D01*
X261209Y141204D01*
X261239Y141320D01*
X261243Y141380D01*
X261247Y141400D01*
X261245Y141420D01*
X261249Y141480D01*
X261249Y148041D01*
X263334Y148041D01*
X263981Y147868D01*
X264560Y147533D01*
X265033Y147060D01*
X265368Y146481D01*
X265394Y146383D01*
X265444Y146261D01*
X265488Y146136D01*
X265504Y146114D01*
X265514Y146089D01*
X265593Y145983D01*
X265667Y145873D01*
X265687Y145855D01*
X265703Y145834D01*
X265806Y145750D01*
X265905Y145663D01*
X265930Y145650D01*
X265950Y145633D01*
X266071Y145578D01*
X266189Y145518D01*
X266215Y145512D01*
X266240Y145501D01*
X266370Y145477D01*
X266499Y145448D01*
X266526Y145449D01*
X266553Y145444D01*
X266684Y145454D01*
X266817Y145458D01*
X266843Y145465D01*
X266870Y145467D01*
X266995Y145510D01*
X267122Y145546D01*
X267146Y145560D01*
X267171Y145569D01*
X267282Y145641D01*
X267396Y145708D01*
X267425Y145733D01*
X267438Y145742D01*
X267453Y145758D01*
X267517Y145814D01*
X268474Y146771D01*
X268690Y146771D01*
X268808Y146786D01*
X268927Y146793D01*
X268965Y146806D01*
X269006Y146811D01*
X269116Y146854D01*
X269229Y146891D01*
X269264Y146913D01*
X269301Y146928D01*
X269397Y146997D01*
X269498Y147061D01*
X269526Y147091D01*
X269559Y147114D01*
X269635Y147206D01*
X269716Y147293D01*
X269736Y147328D01*
X269761Y147359D01*
X269812Y147467D01*
X269870Y147571D01*
X269880Y147611D01*
X269897Y147647D01*
X269919Y147764D01*
X269949Y147879D01*
X269953Y147939D01*
X269957Y147959D01*
X269955Y147980D01*
X269959Y148040D01*
X269959Y154202D01*
X275882Y160125D01*
X275942Y160203D01*
X276010Y160275D01*
X276039Y160328D01*
X276076Y160376D01*
X276116Y160467D01*
X276164Y160554D01*
X276179Y160612D01*
X276203Y160668D01*
X276218Y160766D01*
X276243Y160861D01*
X276249Y160962D01*
X276253Y160982D01*
X276251Y160994D01*
X276253Y161022D01*
X276253Y164074D01*
X276241Y164172D01*
X276238Y164271D01*
X276221Y164329D01*
X276213Y164389D01*
X276177Y164482D01*
X276149Y164577D01*
X276119Y164629D01*
X276096Y164685D01*
X276038Y164765D01*
X275988Y164851D01*
X275922Y164926D01*
X275910Y164942D01*
X275900Y164950D01*
X275882Y164971D01*
X275017Y165836D01*
X274934Y165900D01*
X274880Y165952D01*
X274857Y165964D01*
X274811Y166002D01*
X274787Y166014D01*
X274766Y166031D01*
X274644Y166083D01*
X274613Y166098D01*
X274601Y166105D01*
X274597Y166106D01*
X274525Y166141D01*
X274499Y166146D01*
X274474Y166157D01*
X274343Y166178D01*
X274214Y166204D01*
X274187Y166203D01*
X274160Y166207D01*
X274028Y166194D01*
X273896Y166188D01*
X273870Y166180D01*
X273843Y166177D01*
X273719Y166132D01*
X273592Y166093D01*
X273569Y166079D01*
X273544Y166069D01*
X273434Y165995D01*
X273322Y165925D01*
X273303Y165906D01*
X273281Y165891D01*
X273193Y165792D01*
X273102Y165696D01*
X273088Y165673D01*
X273070Y165652D01*
X273050Y165612D01*
X273045Y165606D01*
X273022Y165558D01*
X273010Y165534D01*
X272945Y165419D01*
X272933Y165383D01*
X272926Y165369D01*
X272921Y165348D01*
X272915Y165331D01*
X272909Y165318D01*
X272907Y165306D01*
X272894Y165267D01*
X272868Y165169D01*
X272533Y164590D01*
X272060Y164117D01*
X271481Y163782D01*
X270834Y163609D01*
X268749Y163609D01*
X268749Y170170D01*
X268734Y170288D01*
X268727Y170407D01*
X268714Y170445D01*
X268709Y170485D01*
X268666Y170596D01*
X268650Y170644D01*
X268660Y170662D01*
X268670Y170701D01*
X268687Y170737D01*
X268709Y170854D01*
X268739Y170970D01*
X268743Y171030D01*
X268747Y171050D01*
X268745Y171070D01*
X268749Y171130D01*
X268749Y177691D01*
X270834Y177691D01*
X271481Y177518D01*
X272060Y177183D01*
X272533Y176710D01*
X272868Y176131D01*
X272894Y176033D01*
X272944Y175911D01*
X272988Y175786D01*
X273004Y175764D01*
X273014Y175739D01*
X273093Y175633D01*
X273167Y175523D01*
X273187Y175505D01*
X273203Y175484D01*
X273306Y175400D01*
X273405Y175313D01*
X273430Y175300D01*
X273450Y175283D01*
X273571Y175228D01*
X273689Y175168D01*
X273715Y175162D01*
X273740Y175151D01*
X273870Y175127D01*
X273999Y175098D01*
X274026Y175099D01*
X274053Y175094D01*
X274184Y175104D01*
X274317Y175108D01*
X274343Y175115D01*
X274370Y175117D01*
X274495Y175160D01*
X274622Y175196D01*
X274646Y175210D01*
X274671Y175219D01*
X274782Y175291D01*
X274896Y175358D01*
X274925Y175383D01*
X274938Y175392D01*
X274953Y175408D01*
X275017Y175464D01*
X275974Y176421D01*
X284026Y176421D01*
X284771Y175676D01*
X284771Y174460D01*
X284786Y174342D01*
X284793Y174223D01*
X284806Y174185D01*
X284811Y174144D01*
X284854Y174034D01*
X284891Y173921D01*
X284913Y173886D01*
X284928Y173849D01*
X284997Y173753D01*
X285061Y173652D01*
X285091Y173624D01*
X285114Y173591D01*
X285206Y173515D01*
X285293Y173434D01*
X285328Y173414D01*
X285359Y173389D01*
X285467Y173338D01*
X285571Y173280D01*
X285611Y173270D01*
X285647Y173253D01*
X285764Y173231D01*
X285879Y173201D01*
X285939Y173197D01*
X285959Y173193D01*
X285980Y173195D01*
X286040Y173191D01*
X301352Y173191D01*
X301742Y172802D01*
X301765Y172783D01*
X301784Y172761D01*
X301890Y172686D01*
X301993Y172607D01*
X302020Y172595D01*
X302044Y172578D01*
X302166Y172532D01*
X302285Y172480D01*
X302314Y172476D01*
X302342Y172465D01*
X302470Y172451D01*
X302599Y172430D01*
X302628Y172433D01*
X302658Y172430D01*
X302786Y172448D01*
X302915Y172460D01*
X302943Y172470D01*
X302973Y172474D01*
X303125Y172526D01*
X303353Y172621D01*
X305847Y172621D01*
X308152Y171666D01*
X309235Y170583D01*
X309302Y170531D01*
X309362Y170472D01*
X309427Y170434D01*
X309486Y170388D01*
X309564Y170355D01*
X309637Y170312D01*
X309709Y170292D01*
X309778Y170262D01*
X309862Y170249D01*
X309943Y170226D01*
X310018Y170224D01*
X310092Y170212D01*
X310176Y170220D01*
X310261Y170218D01*
X310334Y170235D01*
X310409Y170242D01*
X310488Y170270D01*
X310571Y170289D01*
X310637Y170324D01*
X310708Y170349D01*
X310778Y170397D01*
X310853Y170436D01*
X310909Y170486D01*
X310971Y170528D01*
X311027Y170591D01*
X311090Y170648D01*
X311176Y170760D01*
X311182Y170766D01*
X311183Y170770D01*
X311188Y170776D01*
X311443Y171157D01*
X312493Y172207D01*
X313728Y173033D01*
X315100Y173601D01*
X316031Y173786D01*
X316031Y166350D01*
X316046Y166232D01*
X316053Y166113D01*
X316065Y166075D01*
X316070Y166035D01*
X316114Y165924D01*
X316151Y165811D01*
X316173Y165777D01*
X316187Y165739D01*
X316257Y165643D01*
X316321Y165542D01*
X316322Y165542D01*
X316351Y165514D01*
X316374Y165482D01*
X316375Y165481D01*
X316467Y165405D01*
X316553Y165324D01*
X316589Y165304D01*
X316620Y165278D01*
X316727Y165228D01*
X316832Y165170D01*
X316871Y165160D01*
X316907Y165143D01*
X317024Y165121D01*
X317140Y165091D01*
X317200Y165087D01*
X317220Y165083D01*
X317240Y165084D01*
X317300Y165081D01*
X330000Y165081D01*
X330118Y165096D01*
X330237Y165103D01*
X330275Y165115D01*
X330315Y165120D01*
X330426Y165164D01*
X330539Y165201D01*
X330573Y165223D01*
X330611Y165237D01*
X330707Y165307D01*
X330808Y165371D01*
X330836Y165401D01*
X330868Y165424D01*
X330869Y165425D01*
X330945Y165517D01*
X331026Y165603D01*
X331046Y165639D01*
X331072Y165670D01*
X331122Y165777D01*
X331180Y165882D01*
X331190Y165921D01*
X331207Y165957D01*
X331229Y166074D01*
X331259Y166190D01*
X331263Y166250D01*
X331267Y166270D01*
X331266Y166290D01*
X331269Y166350D01*
X331269Y173786D01*
X332200Y173601D01*
X333572Y173033D01*
X334807Y172207D01*
X335857Y171157D01*
X336112Y170776D01*
X336167Y170712D01*
X336215Y170642D01*
X336271Y170592D01*
X336321Y170535D01*
X336390Y170487D01*
X336453Y170431D01*
X336520Y170397D01*
X336582Y170354D01*
X336661Y170325D01*
X336737Y170287D01*
X336810Y170270D01*
X336880Y170244D01*
X336964Y170236D01*
X337047Y170217D01*
X337122Y170219D01*
X337197Y170212D01*
X337280Y170224D01*
X337365Y170227D01*
X337437Y170248D01*
X337511Y170259D01*
X337589Y170292D01*
X337670Y170315D01*
X337735Y170353D01*
X337804Y170383D01*
X337871Y170434D01*
X337944Y170477D01*
X338050Y170570D01*
X338057Y170575D01*
X338059Y170578D01*
X338065Y170583D01*
X339148Y171666D01*
X341453Y172621D01*
X343947Y172621D01*
X346252Y171666D01*
X347335Y170583D01*
X347402Y170531D01*
X347462Y170472D01*
X347527Y170434D01*
X347586Y170388D01*
X347664Y170355D01*
X347737Y170312D01*
X347809Y170292D01*
X347878Y170262D01*
X347962Y170249D01*
X348043Y170226D01*
X348118Y170224D01*
X348192Y170212D01*
X348276Y170220D01*
X348361Y170218D01*
X348434Y170235D01*
X348509Y170242D01*
X348588Y170270D01*
X348671Y170289D01*
X348737Y170324D01*
X348808Y170349D01*
X348878Y170397D01*
X348953Y170436D01*
X349009Y170486D01*
X349071Y170528D01*
X349127Y170591D01*
X349190Y170648D01*
X349276Y170760D01*
X349282Y170766D01*
X349283Y170770D01*
X349288Y170776D01*
X349543Y171157D01*
X350593Y172207D01*
X351828Y173033D01*
X353200Y173601D01*
X354131Y173786D01*
X354131Y166350D01*
X354146Y166232D01*
X354153Y166113D01*
X354165Y166075D01*
X354170Y166035D01*
X354214Y165924D01*
X354251Y165811D01*
X354273Y165777D01*
X354287Y165739D01*
X354357Y165643D01*
X354421Y165542D01*
X354422Y165542D01*
X354451Y165514D01*
X354474Y165482D01*
X354475Y165481D01*
X354567Y165405D01*
X354653Y165324D01*
X354689Y165304D01*
X354720Y165278D01*
X354827Y165228D01*
X354932Y165170D01*
X354971Y165160D01*
X355007Y165143D01*
X355124Y165121D01*
X355240Y165091D01*
X355300Y165087D01*
X355320Y165083D01*
X355340Y165084D01*
X355400Y165081D01*
X362836Y165081D01*
X362651Y164150D01*
X362083Y162778D01*
X361257Y161543D01*
X360207Y160493D01*
X359826Y160238D01*
X359762Y160183D01*
X359692Y160135D01*
X359642Y160079D01*
X359585Y160029D01*
X359537Y159960D01*
X359481Y159897D01*
X359447Y159830D01*
X359404Y159768D01*
X359375Y159689D01*
X359337Y159613D01*
X359320Y159540D01*
X359294Y159470D01*
X359286Y159386D01*
X359267Y159303D01*
X359269Y159228D01*
X359262Y159153D01*
X359274Y159070D01*
X359277Y158985D01*
X359298Y158913D01*
X359309Y158839D01*
X359342Y158761D01*
X359365Y158680D01*
X359403Y158615D01*
X359433Y158546D01*
X359484Y158479D01*
X359527Y158406D01*
X359620Y158300D01*
X359625Y158293D01*
X359628Y158291D01*
X359633Y158285D01*
X360716Y157202D01*
X361671Y154897D01*
X361671Y152403D01*
X360716Y150098D01*
X358952Y148334D01*
X356647Y147379D01*
X354153Y147379D01*
X351848Y148334D01*
X349947Y150234D01*
X349853Y150307D01*
X349764Y150386D01*
X349728Y150404D01*
X349696Y150429D01*
X349587Y150477D01*
X349481Y150531D01*
X349442Y150540D01*
X349404Y150556D01*
X349287Y150574D01*
X349171Y150600D01*
X349130Y150599D01*
X349090Y150605D01*
X348972Y150594D01*
X348853Y150591D01*
X348814Y150579D01*
X348774Y150576D01*
X348662Y150535D01*
X348547Y150502D01*
X348512Y150482D01*
X348474Y150468D01*
X348376Y150401D01*
X348273Y150341D01*
X348228Y150301D01*
X348211Y150289D01*
X348198Y150274D01*
X348152Y150234D01*
X346252Y148334D01*
X343947Y147379D01*
X341453Y147379D01*
X339148Y148334D01*
X337248Y150234D01*
X337153Y150307D01*
X337064Y150386D01*
X337028Y150404D01*
X336996Y150429D01*
X336887Y150477D01*
X336781Y150531D01*
X336742Y150540D01*
X336704Y150556D01*
X336587Y150574D01*
X336471Y150600D01*
X336430Y150599D01*
X336390Y150605D01*
X336272Y150594D01*
X336153Y150591D01*
X336114Y150579D01*
X336074Y150576D01*
X335961Y150535D01*
X335847Y150502D01*
X335813Y150482D01*
X335774Y150468D01*
X335676Y150401D01*
X335573Y150341D01*
X335528Y150301D01*
X335511Y150289D01*
X335498Y150274D01*
X335453Y150234D01*
X333552Y148334D01*
X331247Y147379D01*
X328753Y147379D01*
X326448Y148334D01*
X324548Y150234D01*
X324453Y150307D01*
X324364Y150386D01*
X324328Y150404D01*
X324296Y150429D01*
X324187Y150477D01*
X324081Y150531D01*
X324042Y150540D01*
X324004Y150556D01*
X323887Y150574D01*
X323771Y150600D01*
X323730Y150599D01*
X323690Y150605D01*
X323572Y150594D01*
X323453Y150591D01*
X323414Y150579D01*
X323374Y150576D01*
X323261Y150535D01*
X323147Y150502D01*
X323113Y150482D01*
X323074Y150468D01*
X322976Y150401D01*
X322873Y150341D01*
X322828Y150301D01*
X322811Y150289D01*
X322798Y150274D01*
X322753Y150234D01*
X320852Y148334D01*
X318547Y147379D01*
X316053Y147379D01*
X313748Y148334D01*
X311848Y150234D01*
X311753Y150307D01*
X311664Y150386D01*
X311628Y150404D01*
X311596Y150429D01*
X311487Y150477D01*
X311381Y150531D01*
X311342Y150540D01*
X311304Y150556D01*
X311187Y150574D01*
X311071Y150600D01*
X311030Y150599D01*
X310990Y150605D01*
X310872Y150594D01*
X310753Y150591D01*
X310714Y150579D01*
X310674Y150576D01*
X310561Y150535D01*
X310447Y150502D01*
X310413Y150482D01*
X310374Y150468D01*
X310276Y150401D01*
X310173Y150341D01*
X310128Y150301D01*
X310111Y150289D01*
X310098Y150274D01*
X310053Y150234D01*
X308152Y148334D01*
X307924Y148240D01*
X307899Y148225D01*
X307871Y148216D01*
X307761Y148147D01*
X307648Y148082D01*
X307627Y148061D01*
X307602Y148046D01*
X307513Y147951D01*
X307420Y147861D01*
X307404Y147836D01*
X307384Y147814D01*
X307321Y147701D01*
X307253Y147590D01*
X307245Y147561D01*
X307230Y147536D01*
X307198Y147410D01*
X307160Y147286D01*
X307158Y147256D01*
X307151Y147228D01*
X307141Y147067D01*
X307141Y143749D01*
X294329Y130937D01*
X294244Y130828D01*
X294155Y130721D01*
X294147Y130702D01*
X294134Y130686D01*
X294079Y130558D01*
X294020Y130433D01*
X294016Y130413D01*
X294008Y130394D01*
X293986Y130256D01*
X293960Y130120D01*
X293961Y130100D01*
X293958Y130080D01*
X293971Y129941D01*
X293980Y129803D01*
X293986Y129784D01*
X293988Y129764D01*
X294035Y129632D01*
X294078Y129501D01*
X294089Y129483D01*
X294096Y129464D01*
X294174Y129349D01*
X294248Y129232D01*
X294263Y129218D01*
X294274Y129201D01*
X294378Y129109D01*
X294480Y129014D01*
X294497Y129004D01*
X294513Y128991D01*
X294636Y128927D01*
X294758Y128860D01*
X294778Y128855D01*
X294796Y128846D01*
X294932Y128816D01*
X295066Y128781D01*
X295094Y128779D01*
X295106Y128776D01*
X295127Y128777D01*
X295227Y128771D01*
X299276Y128771D01*
X300021Y128026D01*
X300021Y121290D01*
X300036Y121172D01*
X300043Y121053D01*
X300056Y121015D01*
X300061Y120974D01*
X300104Y120864D01*
X300141Y120751D01*
X300163Y120716D01*
X300178Y120679D01*
X300247Y120583D01*
X300311Y120482D01*
X300341Y120454D01*
X300364Y120421D01*
X300456Y120345D01*
X300543Y120264D01*
X300578Y120244D01*
X300609Y120219D01*
X300717Y120168D01*
X300821Y120110D01*
X300861Y120100D01*
X300897Y120083D01*
X301014Y120061D01*
X301129Y120031D01*
X301189Y120027D01*
X301209Y120023D01*
X301230Y120025D01*
X301290Y120021D01*
X308026Y120021D01*
X308771Y119276D01*
X308771Y115673D01*
X308750Y115646D01*
X308702Y115537D01*
X308648Y115431D01*
X308639Y115392D01*
X308623Y115354D01*
X308605Y115237D01*
X308579Y115121D01*
X308580Y115080D01*
X308573Y115040D01*
X308585Y114922D01*
X308588Y114803D01*
X308599Y114764D01*
X308603Y114724D01*
X308644Y114612D01*
X308677Y114497D01*
X308697Y114462D01*
X308711Y114424D01*
X308771Y114336D01*
X308771Y110673D01*
X308750Y110646D01*
X308702Y110537D01*
X308648Y110431D01*
X308639Y110392D01*
X308623Y110354D01*
X308605Y110237D01*
X308579Y110121D01*
X308580Y110080D01*
X308573Y110040D01*
X308585Y109922D01*
X308588Y109803D01*
X308599Y109764D01*
X308603Y109724D01*
X308644Y109612D01*
X308677Y109497D01*
X308697Y109462D01*
X308711Y109424D01*
X308771Y109336D01*
X308771Y105673D01*
X308750Y105646D01*
X308702Y105537D01*
X308648Y105431D01*
X308639Y105392D01*
X308623Y105354D01*
X308605Y105237D01*
X308579Y105121D01*
X308580Y105080D01*
X308573Y105040D01*
X308585Y104922D01*
X308588Y104803D01*
X308599Y104764D01*
X308603Y104724D01*
X308644Y104612D01*
X308677Y104497D01*
X308697Y104462D01*
X308711Y104424D01*
X308771Y104336D01*
X308771Y101598D01*
X308783Y101500D01*
X308786Y101401D01*
X308803Y101343D01*
X308811Y101283D01*
X308847Y101191D01*
X308875Y101095D01*
X308905Y101043D01*
X308928Y100987D01*
X308986Y100907D01*
X309036Y100821D01*
X309102Y100746D01*
X309114Y100730D01*
X309124Y100722D01*
X309142Y100701D01*
X309533Y100310D01*
X309868Y99731D01*
X310041Y99084D01*
X310041Y98769D01*
X304000Y98769D01*
X303882Y98754D01*
X303763Y98747D01*
X303725Y98735D01*
X303685Y98730D01*
X303574Y98686D01*
X303461Y98649D01*
X303427Y98627D01*
X303389Y98613D01*
X303293Y98543D01*
X303192Y98479D01*
X303164Y98449D01*
X303132Y98426D01*
X303056Y98334D01*
X302974Y98247D01*
X302955Y98212D01*
X302929Y98181D01*
X302878Y98073D01*
X302821Y97969D01*
X302811Y97930D01*
X302793Y97893D01*
X302771Y97776D01*
X302741Y97661D01*
X302737Y97601D01*
X302734Y97581D01*
X302734Y97580D01*
X302735Y97560D01*
X302731Y97500D01*
X302746Y97382D01*
X302753Y97263D01*
X302766Y97224D01*
X302771Y97184D01*
X302815Y97074D01*
X302851Y96960D01*
X302873Y96926D01*
X302888Y96889D01*
X302958Y96792D01*
X303022Y96692D01*
X303051Y96664D01*
X303075Y96631D01*
X303167Y96555D01*
X303253Y96474D01*
X303289Y96454D01*
X303320Y96428D01*
X303427Y96378D01*
X303532Y96320D01*
X303571Y96310D01*
X303607Y96293D01*
X303724Y96271D01*
X303840Y96241D01*
X303900Y96237D01*
X303920Y96233D01*
X303940Y96234D01*
X304000Y96231D01*
X310051Y96231D01*
X310056Y96192D01*
X310063Y96073D01*
X310076Y96035D01*
X310081Y95994D01*
X310124Y95884D01*
X310161Y95771D01*
X310183Y95736D01*
X310198Y95699D01*
X310267Y95603D01*
X310331Y95502D01*
X310361Y95474D01*
X310384Y95441D01*
X310476Y95365D01*
X310563Y95284D01*
X310598Y95264D01*
X310629Y95239D01*
X310737Y95188D01*
X310841Y95130D01*
X310881Y95120D01*
X310917Y95103D01*
X311034Y95081D01*
X311149Y95051D01*
X311209Y95047D01*
X311229Y95043D01*
X311250Y95045D01*
X311310Y95041D01*
X327460Y95041D01*
X327578Y95056D01*
X327697Y95063D01*
X327735Y95076D01*
X327776Y95081D01*
X327886Y95124D01*
X327999Y95161D01*
X328034Y95183D01*
X328071Y95198D01*
X328167Y95267D01*
X328268Y95331D01*
X328296Y95361D01*
X328329Y95384D01*
X328405Y95476D01*
X328486Y95563D01*
X328506Y95598D01*
X328531Y95629D01*
X328582Y95737D01*
X328640Y95841D01*
X328650Y95881D01*
X328667Y95917D01*
X328689Y96034D01*
X328719Y96149D01*
X328723Y96209D01*
X328727Y96229D01*
X328725Y96250D01*
X328729Y96310D01*
X328729Y102526D01*
X329474Y103271D01*
X340526Y103271D01*
X341271Y102526D01*
X341271Y98810D01*
X341286Y98692D01*
X341293Y98573D01*
X341306Y98535D01*
X341311Y98494D01*
X341354Y98384D01*
X341391Y98271D01*
X341413Y98236D01*
X341428Y98199D01*
X341497Y98103D01*
X341561Y98002D01*
X341591Y97974D01*
X341614Y97941D01*
X341706Y97865D01*
X341793Y97784D01*
X341828Y97764D01*
X341859Y97739D01*
X341967Y97688D01*
X342071Y97630D01*
X342111Y97620D01*
X342147Y97603D01*
X342264Y97581D01*
X342379Y97551D01*
X342439Y97547D01*
X342459Y97543D01*
X342480Y97545D01*
X342540Y97541D01*
X347610Y97541D01*
X347728Y97556D01*
X347847Y97563D01*
X347885Y97576D01*
X347926Y97581D01*
X348036Y97624D01*
X348149Y97661D01*
X348184Y97683D01*
X348221Y97698D01*
X348317Y97767D01*
X348418Y97831D01*
X348446Y97861D01*
X348479Y97884D01*
X348555Y97976D01*
X348636Y98063D01*
X348656Y98098D01*
X348681Y98129D01*
X348732Y98237D01*
X348790Y98341D01*
X348800Y98381D01*
X348817Y98417D01*
X348839Y98534D01*
X348869Y98649D01*
X348873Y98709D01*
X348877Y98729D01*
X348875Y98750D01*
X348879Y98810D01*
X348879Y99026D01*
X349836Y99983D01*
X349917Y100088D01*
X350002Y100189D01*
X350014Y100213D01*
X350031Y100234D01*
X350083Y100356D01*
X350141Y100475D01*
X350146Y100501D01*
X350157Y100526D01*
X350178Y100657D01*
X350204Y100787D01*
X350203Y100813D01*
X350207Y100840D01*
X350194Y100972D01*
X350188Y101104D01*
X350180Y101130D01*
X350177Y101157D01*
X350132Y101281D01*
X350093Y101408D01*
X350079Y101431D01*
X350069Y101456D01*
X349995Y101565D01*
X349925Y101678D01*
X349906Y101697D01*
X349891Y101719D01*
X349792Y101807D01*
X349696Y101898D01*
X349673Y101912D01*
X349652Y101930D01*
X349534Y101990D01*
X349419Y102055D01*
X349383Y102067D01*
X349369Y102074D01*
X349348Y102079D01*
X349267Y102106D01*
X349169Y102132D01*
X348590Y102467D01*
X348117Y102940D01*
X347782Y103519D01*
X347609Y104166D01*
X347609Y106251D01*
X354170Y106251D01*
X354288Y106266D01*
X354407Y106273D01*
X354445Y106285D01*
X354485Y106291D01*
X354596Y106334D01*
X354644Y106350D01*
X354662Y106340D01*
X354701Y106330D01*
X354737Y106313D01*
X354854Y106291D01*
X354970Y106261D01*
X355030Y106257D01*
X355050Y106253D01*
X355070Y106255D01*
X355130Y106251D01*
X361691Y106251D01*
X361691Y104166D01*
X361518Y103519D01*
X361183Y102940D01*
X360710Y102467D01*
X360131Y102132D01*
X360033Y102106D01*
X359911Y102056D01*
X359786Y102012D01*
X359764Y101996D01*
X359739Y101986D01*
X359633Y101907D01*
X359523Y101833D01*
X359505Y101813D01*
X359483Y101797D01*
X359400Y101694D01*
X359312Y101595D01*
X359300Y101571D01*
X359283Y101550D01*
X359228Y101429D01*
X359168Y101311D01*
X359162Y101285D01*
X359151Y101260D01*
X359127Y101130D01*
X359098Y101001D01*
X359099Y100974D01*
X359094Y100948D01*
X359104Y100816D01*
X359108Y100683D01*
X359115Y100657D01*
X359117Y100630D01*
X359159Y100505D01*
X359196Y100378D01*
X359210Y100354D01*
X359219Y100329D01*
X359291Y100218D01*
X359358Y100104D01*
X359383Y100075D01*
X359392Y100062D01*
X359408Y100047D01*
X359464Y99983D01*
X360421Y99026D01*
X360421Y90974D01*
X359676Y90229D01*
X349624Y90229D01*
X348879Y90974D01*
X348879Y91190D01*
X348864Y91308D01*
X348857Y91427D01*
X348844Y91465D01*
X348839Y91506D01*
X348796Y91616D01*
X348759Y91729D01*
X348737Y91764D01*
X348722Y91801D01*
X348653Y91897D01*
X348589Y91998D01*
X348559Y92026D01*
X348536Y92059D01*
X348444Y92135D01*
X348357Y92216D01*
X348322Y92236D01*
X348291Y92261D01*
X348183Y92312D01*
X348079Y92370D01*
X348039Y92380D01*
X348003Y92397D01*
X347886Y92419D01*
X347771Y92449D01*
X347711Y92453D01*
X347691Y92457D01*
X347670Y92455D01*
X347610Y92459D01*
X342540Y92459D01*
X342422Y92444D01*
X342303Y92437D01*
X342265Y92424D01*
X342224Y92419D01*
X342114Y92376D01*
X342001Y92339D01*
X341966Y92317D01*
X341929Y92302D01*
X341833Y92233D01*
X341732Y92169D01*
X341704Y92139D01*
X341671Y92116D01*
X341595Y92024D01*
X341514Y91937D01*
X341494Y91902D01*
X341469Y91871D01*
X341418Y91763D01*
X341360Y91659D01*
X341350Y91619D01*
X341333Y91583D01*
X341311Y91466D01*
X341281Y91351D01*
X341277Y91291D01*
X341273Y91271D01*
X341275Y91250D01*
X341271Y91190D01*
X341271Y90474D01*
X340526Y89729D01*
X329441Y89729D01*
X329412Y89745D01*
X329364Y89782D01*
X329273Y89822D01*
X329187Y89870D01*
X329128Y89885D01*
X329072Y89909D01*
X328975Y89924D01*
X328879Y89949D01*
X328778Y89955D01*
X328758Y89959D01*
X328746Y89957D01*
X328718Y89959D01*
X316698Y89959D01*
X316561Y89942D01*
X316422Y89929D01*
X316403Y89922D01*
X316383Y89919D01*
X316254Y89868D01*
X316122Y89821D01*
X316106Y89810D01*
X316087Y89802D01*
X315975Y89721D01*
X315859Y89643D01*
X315846Y89627D01*
X315830Y89616D01*
X315741Y89508D01*
X315649Y89404D01*
X315640Y89386D01*
X315627Y89371D01*
X315567Y89245D01*
X315504Y89121D01*
X315500Y89101D01*
X315491Y89083D01*
X315465Y88947D01*
X315435Y88811D01*
X315435Y88790D01*
X315431Y88771D01*
X315440Y88632D01*
X315444Y88493D01*
X315450Y88473D01*
X315451Y88453D01*
X315494Y88321D01*
X315533Y88187D01*
X315543Y88170D01*
X315549Y88151D01*
X315624Y88033D01*
X315694Y87913D01*
X315713Y87892D01*
X315719Y87882D01*
X315734Y87868D01*
X315801Y87793D01*
X323475Y80118D01*
X323553Y80058D01*
X323625Y79990D01*
X323678Y79961D01*
X323726Y79924D01*
X323817Y79884D01*
X323904Y79836D01*
X323962Y79821D01*
X324018Y79797D01*
X324116Y79782D01*
X324211Y79757D01*
X324312Y79751D01*
X324332Y79747D01*
X324344Y79749D01*
X324372Y79747D01*
X361228Y79747D01*
X361326Y79759D01*
X361425Y79762D01*
X361483Y79779D01*
X361543Y79787D01*
X361635Y79823D01*
X361731Y79851D01*
X361783Y79881D01*
X361839Y79904D01*
X361919Y79962D01*
X362004Y80012D01*
X362080Y80078D01*
X362096Y80090D01*
X362104Y80100D01*
X362125Y80118D01*
X375482Y93476D01*
X375501Y93499D01*
X375523Y93518D01*
X375598Y93624D01*
X375677Y93727D01*
X375689Y93754D01*
X375706Y93778D01*
X375752Y93899D01*
X375804Y94019D01*
X375808Y94048D01*
X375819Y94075D01*
X375833Y94204D01*
X375854Y94333D01*
X375851Y94362D01*
X375854Y94392D01*
X375836Y94520D01*
X375824Y94649D01*
X375814Y94677D01*
X375810Y94706D01*
X375758Y94859D01*
X374631Y97578D01*
X374631Y101822D01*
X376255Y105743D01*
X379257Y108745D01*
X383178Y110369D01*
X387422Y110369D01*
X391343Y108745D01*
X394345Y105743D01*
X395969Y101822D01*
X395969Y97578D01*
X394345Y93657D01*
X391343Y90655D01*
X387422Y89031D01*
X383178Y89031D01*
X380459Y90158D01*
X380430Y90165D01*
X380404Y90179D01*
X380277Y90207D01*
X380152Y90241D01*
X380123Y90242D01*
X380094Y90248D01*
X379964Y90244D01*
X379834Y90247D01*
X379805Y90240D01*
X379776Y90239D01*
X379651Y90203D01*
X379525Y90172D01*
X379499Y90159D01*
X379470Y90150D01*
X379358Y90084D01*
X379244Y90024D01*
X379222Y90004D01*
X379196Y89989D01*
X379076Y89882D01*
X367043Y77849D01*
X366957Y77740D01*
X366869Y77633D01*
X366860Y77614D01*
X366848Y77598D01*
X366792Y77470D01*
X366733Y77345D01*
X366729Y77325D01*
X366721Y77306D01*
X366699Y77168D01*
X366673Y77032D01*
X366675Y77012D01*
X366671Y76992D01*
X366685Y76853D01*
X366693Y76715D01*
X366699Y76696D01*
X366701Y76676D01*
X366748Y76544D01*
X366791Y76413D01*
X366802Y76395D01*
X366809Y76376D01*
X366887Y76261D01*
X366961Y76144D01*
X366976Y76130D01*
X366987Y76113D01*
X367092Y76021D01*
X367193Y75926D01*
X367211Y75916D01*
X367226Y75903D01*
X367350Y75839D01*
X367471Y75772D01*
X367491Y75767D01*
X367509Y75758D01*
X367645Y75728D01*
X367779Y75693D01*
X367807Y75691D01*
X367819Y75688D01*
X367840Y75689D01*
X367940Y75683D01*
X373477Y75683D01*
X373506Y75686D01*
X373536Y75684D01*
X373664Y75706D01*
X373792Y75723D01*
X373820Y75733D01*
X373849Y75738D01*
X373967Y75792D01*
X374088Y75840D01*
X374112Y75857D01*
X374139Y75869D01*
X374240Y75950D01*
X374345Y76026D01*
X374364Y76049D01*
X374387Y76068D01*
X374465Y76171D01*
X374548Y76271D01*
X374561Y76298D01*
X374579Y76322D01*
X374650Y76466D01*
X376255Y80343D01*
X379257Y83345D01*
X383178Y84969D01*
X387422Y84969D01*
X391343Y83345D01*
X394345Y80343D01*
X395969Y76422D01*
X395969Y72178D01*
X394345Y68257D01*
X391343Y65255D01*
X387422Y63631D01*
X383178Y63631D01*
X379257Y65255D01*
X376255Y68257D01*
X375609Y69818D01*
X375594Y69843D01*
X375585Y69871D01*
X375516Y69981D01*
X375451Y70094D01*
X375431Y70115D01*
X375415Y70140D01*
X375320Y70229D01*
X375230Y70322D01*
X375205Y70338D01*
X375183Y70358D01*
X375070Y70421D01*
X374959Y70489D01*
X374931Y70497D01*
X374905Y70512D01*
X374779Y70544D01*
X374655Y70582D01*
X374625Y70584D01*
X374597Y70591D01*
X374436Y70601D01*
X324561Y70601D01*
X324424Y70584D01*
X324285Y70571D01*
X324266Y70564D01*
X324246Y70561D01*
X324117Y70510D01*
X323986Y70463D01*
X323969Y70452D01*
X323950Y70444D01*
X323838Y70363D01*
X323723Y70285D01*
X323709Y70269D01*
X323693Y70258D01*
X323604Y70150D01*
X323512Y70046D01*
X323503Y70028D01*
X323490Y70013D01*
X323431Y69887D01*
X323368Y69763D01*
X323363Y69743D01*
X323354Y69725D01*
X323328Y69589D01*
X323298Y69453D01*
X323298Y69432D01*
X323295Y69413D01*
X323303Y69274D01*
X323308Y69135D01*
X323313Y69115D01*
X323314Y69095D01*
X323357Y68963D01*
X323396Y68829D01*
X323406Y68812D01*
X323412Y68793D01*
X323487Y68675D01*
X323557Y68555D01*
X323576Y68534D01*
X323583Y68524D01*
X323598Y68510D01*
X323664Y68435D01*
X340286Y51812D01*
X340364Y51752D01*
X340436Y51684D01*
X340489Y51655D01*
X340537Y51618D01*
X340628Y51578D01*
X340715Y51530D01*
X340773Y51515D01*
X340829Y51491D01*
X340927Y51476D01*
X341023Y51451D01*
X341123Y51445D01*
X341143Y51441D01*
X341155Y51443D01*
X341183Y51441D01*
X373957Y51441D01*
X373986Y51444D01*
X374015Y51442D01*
X374143Y51464D01*
X374272Y51481D01*
X374300Y51491D01*
X374329Y51496D01*
X374447Y51550D01*
X374568Y51598D01*
X374592Y51615D01*
X374619Y51627D01*
X374720Y51708D01*
X374825Y51784D01*
X374844Y51807D01*
X374867Y51826D01*
X374945Y51929D01*
X375028Y52029D01*
X375041Y52056D01*
X375058Y52080D01*
X375129Y52224D01*
X376255Y54943D01*
X379257Y57945D01*
X383178Y59569D01*
X387422Y59569D01*
X391343Y57945D01*
X394345Y54943D01*
X395969Y51022D01*
X395969Y46778D01*
X394345Y42857D01*
X391343Y39855D01*
X387422Y38231D01*
X383178Y38231D01*
X379257Y39855D01*
X376255Y42857D01*
X375129Y45576D01*
X375115Y45601D01*
X375105Y45629D01*
X375036Y45739D01*
X374972Y45852D01*
X374951Y45873D01*
X374935Y45898D01*
X374841Y45987D01*
X374750Y46080D01*
X374725Y46096D01*
X374704Y46116D01*
X374590Y46179D01*
X374479Y46247D01*
X374451Y46255D01*
X374425Y46270D01*
X374299Y46302D01*
X374175Y46340D01*
X374146Y46342D01*
X374117Y46349D01*
X373957Y46359D01*
X343056Y46359D01*
X342918Y46342D01*
X342780Y46329D01*
X342761Y46322D01*
X342740Y46319D01*
X342611Y46268D01*
X342480Y46221D01*
X342464Y46210D01*
X342445Y46202D01*
X342333Y46121D01*
X342217Y46043D01*
X342204Y46027D01*
X342187Y46016D01*
X342099Y45908D01*
X342007Y45804D01*
X341998Y45786D01*
X341985Y45771D01*
X341925Y45645D01*
X341862Y45521D01*
X341858Y45501D01*
X341849Y45483D01*
X341823Y45347D01*
X341792Y45211D01*
X341793Y45190D01*
X341789Y45171D01*
X341798Y45032D01*
X341802Y44893D01*
X341808Y44873D01*
X341809Y44853D01*
X341852Y44721D01*
X341891Y44587D01*
X341901Y44570D01*
X341907Y44551D01*
X341982Y44433D01*
X342052Y44313D01*
X342071Y44292D01*
X342077Y44282D01*
X342092Y44268D01*
X342158Y44193D01*
X350516Y35835D01*
X350594Y35774D01*
X350666Y35707D01*
X350719Y35677D01*
X350767Y35640D01*
X350858Y35601D01*
X350945Y35553D01*
X351003Y35538D01*
X351059Y35514D01*
X351157Y35498D01*
X351253Y35474D01*
X351353Y35467D01*
X351373Y35464D01*
X351385Y35465D01*
X351413Y35463D01*
X393144Y35463D01*
X393243Y35476D01*
X393342Y35479D01*
X393400Y35496D01*
X393460Y35503D01*
X393552Y35540D01*
X393647Y35567D01*
X393699Y35598D01*
X393756Y35620D01*
X393836Y35678D01*
X393921Y35729D01*
X393997Y35795D01*
X394013Y35807D01*
X394021Y35816D01*
X394042Y35835D01*
X400882Y42676D01*
X400901Y42699D01*
X400923Y42718D01*
X400998Y42824D01*
X401077Y42927D01*
X401089Y42954D01*
X401106Y42978D01*
X401152Y43099D01*
X401204Y43219D01*
X401208Y43248D01*
X401219Y43275D01*
X401233Y43404D01*
X401254Y43533D01*
X401251Y43562D01*
X401254Y43592D01*
X401236Y43720D01*
X401224Y43849D01*
X401214Y43877D01*
X401210Y43906D01*
X401158Y44059D01*
X400031Y46778D01*
X400031Y51022D01*
X401655Y54943D01*
X404657Y57945D01*
X408578Y59569D01*
X412822Y59569D01*
X416743Y57945D01*
X419745Y54943D01*
X421369Y51022D01*
X421369Y46778D01*
X419745Y42857D01*
X416743Y39855D01*
X412822Y38231D01*
X408578Y38231D01*
X405859Y39358D01*
X405830Y39365D01*
X405804Y39379D01*
X405677Y39407D01*
X405552Y39441D01*
X405523Y39442D01*
X405494Y39448D01*
X405364Y39444D01*
X405234Y39447D01*
X405205Y39440D01*
X405176Y39439D01*
X405051Y39403D01*
X404925Y39372D01*
X404899Y39359D01*
X404870Y39350D01*
X404758Y39284D01*
X404644Y39224D01*
X404622Y39204D01*
X404596Y39189D01*
X404476Y39082D01*
X398959Y33566D01*
X398874Y33456D01*
X398785Y33349D01*
X398777Y33331D01*
X398764Y33315D01*
X398709Y33187D01*
X398650Y33061D01*
X398646Y33042D01*
X398638Y33023D01*
X398616Y32885D01*
X398590Y32749D01*
X398591Y32729D01*
X398588Y32709D01*
X398601Y32570D01*
X398610Y32432D01*
X398616Y32412D01*
X398618Y32392D01*
X398665Y32261D01*
X398708Y32129D01*
X398719Y32112D01*
X398725Y32093D01*
X398804Y31978D01*
X398878Y31860D01*
X398893Y31846D01*
X398904Y31830D01*
X399008Y31738D01*
X399110Y31642D01*
X399127Y31633D01*
X399142Y31619D01*
X399266Y31556D01*
X399388Y31489D01*
X399408Y31484D01*
X399426Y31475D01*
X399562Y31444D01*
X399696Y31409D01*
X399724Y31408D01*
X399736Y31405D01*
X399756Y31406D01*
X399857Y31399D01*
X417280Y31399D01*
X417379Y31412D01*
X417478Y31415D01*
X417536Y31432D01*
X417596Y31439D01*
X417688Y31476D01*
X417783Y31503D01*
X417835Y31534D01*
X417892Y31556D01*
X417972Y31614D01*
X418057Y31665D01*
X418132Y31731D01*
X418149Y31743D01*
X418157Y31752D01*
X418178Y31771D01*
X424088Y37681D01*
X424148Y37759D01*
X424216Y37831D01*
X424245Y37884D01*
X424282Y37932D01*
X424322Y38023D01*
X424370Y38110D01*
X424385Y38168D01*
X424409Y38224D01*
X424424Y38322D01*
X424449Y38417D01*
X424455Y38518D01*
X424459Y38538D01*
X424457Y38550D01*
X424459Y38578D01*
X424459Y66422D01*
X424447Y66520D01*
X424444Y66619D01*
X424427Y66677D01*
X424419Y66737D01*
X424383Y66829D01*
X424355Y66925D01*
X424325Y66977D01*
X424302Y67033D01*
X424244Y67113D01*
X424194Y67198D01*
X424128Y67274D01*
X424116Y67290D01*
X424106Y67298D01*
X424088Y67319D01*
X422085Y69322D01*
X422046Y69352D01*
X422013Y69389D01*
X421921Y69449D01*
X421834Y69517D01*
X421788Y69536D01*
X421747Y69564D01*
X421643Y69599D01*
X421542Y69643D01*
X421493Y69651D01*
X421446Y69667D01*
X421337Y69676D01*
X421228Y69693D01*
X421179Y69688D01*
X421129Y69692D01*
X421021Y69673D01*
X420911Y69663D01*
X420865Y69646D01*
X420816Y69638D01*
X420716Y69593D01*
X420612Y69555D01*
X420571Y69527D01*
X420526Y69507D01*
X420440Y69439D01*
X420349Y69377D01*
X420316Y69339D01*
X420277Y69308D01*
X420211Y69221D01*
X420138Y69138D01*
X420116Y69094D01*
X420086Y69054D01*
X420015Y68910D01*
X419745Y68257D01*
X416743Y65255D01*
X412822Y63631D01*
X408578Y63631D01*
X404657Y65255D01*
X401655Y68257D01*
X400031Y72178D01*
X400031Y76422D01*
X401655Y80343D01*
X404657Y83345D01*
X408578Y84969D01*
X412822Y84969D01*
X416743Y83345D01*
X419745Y80343D01*
X420705Y78025D01*
X420709Y78017D01*
X420712Y78008D01*
X420788Y77880D01*
X420862Y77749D01*
X420869Y77742D01*
X420874Y77734D01*
X420980Y77613D01*
X422912Y75681D01*
X429541Y69052D01*
X429541Y36198D01*
X429558Y36060D01*
X429571Y35922D01*
X429578Y35903D01*
X429581Y35883D01*
X429632Y35753D01*
X429679Y35622D01*
X429690Y35606D01*
X429698Y35587D01*
X429779Y35475D01*
X429857Y35359D01*
X429873Y35346D01*
X429884Y35330D01*
X429992Y35241D01*
X430096Y35149D01*
X430114Y35140D01*
X430129Y35127D01*
X430255Y35067D01*
X430379Y35004D01*
X430399Y35000D01*
X430417Y34991D01*
X430554Y34965D01*
X430689Y34935D01*
X430710Y34935D01*
X430729Y34931D01*
X430868Y34940D01*
X431007Y34944D01*
X431027Y34950D01*
X431047Y34951D01*
X431179Y34994D01*
X431313Y35033D01*
X431330Y35043D01*
X431349Y35049D01*
X431467Y35124D01*
X431587Y35194D01*
X431608Y35213D01*
X431618Y35219D01*
X431632Y35234D01*
X431707Y35301D01*
X433088Y36681D01*
X433148Y36759D01*
X433216Y36831D01*
X433245Y36884D01*
X433282Y36932D01*
X433322Y37023D01*
X433370Y37110D01*
X433385Y37168D01*
X433409Y37224D01*
X433424Y37322D01*
X433449Y37417D01*
X433455Y37518D01*
X433459Y37538D01*
X433457Y37550D01*
X433459Y37578D01*
X433459Y87422D01*
X433447Y87520D01*
X433444Y87619D01*
X433427Y87677D01*
X433419Y87737D01*
X433383Y87829D01*
X433355Y87925D01*
X433325Y87977D01*
X433302Y88033D01*
X433244Y88113D01*
X433194Y88198D01*
X433128Y88274D01*
X433116Y88290D01*
X433106Y88298D01*
X433088Y88319D01*
X424319Y97088D01*
X424241Y97148D01*
X424169Y97216D01*
X424116Y97245D01*
X424068Y97282D01*
X423977Y97322D01*
X423890Y97370D01*
X423832Y97385D01*
X423776Y97409D01*
X423678Y97424D01*
X423583Y97449D01*
X423482Y97455D01*
X423462Y97459D01*
X423450Y97457D01*
X423422Y97459D01*
X422168Y97459D01*
X422138Y97456D01*
X422109Y97458D01*
X421981Y97436D01*
X421852Y97419D01*
X421825Y97409D01*
X421796Y97404D01*
X421677Y97350D01*
X421556Y97302D01*
X421533Y97285D01*
X421506Y97273D01*
X421404Y97192D01*
X421299Y97116D01*
X421280Y97093D01*
X421257Y97074D01*
X421179Y96971D01*
X421096Y96871D01*
X421084Y96844D01*
X421066Y96820D01*
X420995Y96676D01*
X419745Y93657D01*
X416743Y90655D01*
X412822Y89031D01*
X408578Y89031D01*
X404657Y90655D01*
X401655Y93657D01*
X400031Y97578D01*
X400031Y101822D01*
X401655Y105743D01*
X404657Y108745D01*
X408578Y110369D01*
X412822Y110369D01*
X416743Y108745D01*
X419745Y105743D01*
X420747Y103324D01*
X420761Y103299D01*
X420770Y103271D01*
X420840Y103161D01*
X420904Y103048D01*
X420925Y103027D01*
X420940Y103002D01*
X421035Y102913D01*
X421125Y102820D01*
X421151Y102804D01*
X421172Y102784D01*
X421286Y102721D01*
X421396Y102653D01*
X421425Y102645D01*
X421451Y102630D01*
X421576Y102598D01*
X421700Y102560D01*
X421730Y102558D01*
X421758Y102551D01*
X421919Y102541D01*
X426052Y102541D01*
X438541Y90052D01*
X438541Y35198D01*
X438558Y35060D01*
X438571Y34922D01*
X438578Y34903D01*
X438581Y34883D01*
X438632Y34753D01*
X438679Y34622D01*
X438690Y34606D01*
X438698Y34587D01*
X438779Y34475D01*
X438857Y34359D01*
X438873Y34346D01*
X438884Y34330D01*
X438992Y34241D01*
X439096Y34149D01*
X439114Y34140D01*
X439129Y34127D01*
X439255Y34067D01*
X439379Y34004D01*
X439399Y34000D01*
X439417Y33991D01*
X439554Y33965D01*
X439689Y33935D01*
X439710Y33935D01*
X439729Y33931D01*
X439868Y33940D01*
X440007Y33944D01*
X440027Y33950D01*
X440047Y33951D01*
X440179Y33994D01*
X440313Y34033D01*
X440330Y34043D01*
X440349Y34049D01*
X440467Y34124D01*
X440587Y34194D01*
X440608Y34213D01*
X440618Y34219D01*
X440632Y34234D01*
X440707Y34301D01*
X442088Y35681D01*
X442148Y35759D01*
X442216Y35831D01*
X442245Y35884D01*
X442282Y35932D01*
X442322Y36023D01*
X442370Y36110D01*
X442385Y36168D01*
X442409Y36224D01*
X442424Y36322D01*
X442449Y36417D01*
X442455Y36518D01*
X442459Y36538D01*
X442457Y36550D01*
X442459Y36578D01*
X442459Y148422D01*
X442447Y148520D01*
X442444Y148619D01*
X442434Y148653D01*
X442434Y148662D01*
X442426Y148685D01*
X442419Y148737D01*
X442383Y148829D01*
X442355Y148925D01*
X442340Y148951D01*
X442335Y148965D01*
X442319Y148990D01*
X442302Y149033D01*
X442244Y149113D01*
X442194Y149198D01*
X442171Y149225D01*
X442165Y149233D01*
X442153Y149245D01*
X442128Y149274D01*
X442116Y149290D01*
X442106Y149298D01*
X442088Y149319D01*
X440897Y150509D01*
X440803Y150582D01*
X440714Y150661D01*
X440678Y150679D01*
X440646Y150704D01*
X440537Y150752D01*
X440431Y150806D01*
X440392Y150815D01*
X440354Y150831D01*
X440237Y150849D01*
X440121Y150875D01*
X440080Y150874D01*
X440040Y150880D01*
X439922Y150869D01*
X439803Y150866D01*
X439764Y150854D01*
X439724Y150851D01*
X439611Y150810D01*
X439497Y150777D01*
X439462Y150757D01*
X439424Y150743D01*
X439326Y150676D01*
X439223Y150616D01*
X439178Y150576D01*
X439161Y150564D01*
X439148Y150549D01*
X439102Y150509D01*
X436052Y147459D01*
X403948Y147459D01*
X392459Y158948D01*
X392459Y401052D01*
X411699Y420293D01*
X411785Y420402D01*
X411873Y420509D01*
X411882Y420528D01*
X411894Y420544D01*
X411950Y420672D01*
X412009Y420797D01*
X412013Y420817D01*
X412021Y420836D01*
X412043Y420974D01*
X412069Y421110D01*
X412067Y421130D01*
X412071Y421150D01*
X412057Y421289D01*
X412049Y421427D01*
X412043Y421446D01*
X412041Y421466D01*
X411994Y421598D01*
X411951Y421729D01*
X411940Y421747D01*
X411933Y421766D01*
X411855Y421881D01*
X411781Y421998D01*
X411766Y422012D01*
X411755Y422029D01*
X411650Y422121D01*
X411549Y422216D01*
X411531Y422226D01*
X411516Y422239D01*
X411392Y422302D01*
X411271Y422370D01*
X411251Y422375D01*
X411233Y422384D01*
X411097Y422414D01*
X410963Y422449D01*
X410935Y422451D01*
X410923Y422454D01*
X410902Y422453D01*
X410802Y422459D01*
X66290Y422459D01*
X66172Y422444D01*
X66053Y422437D01*
X66015Y422424D01*
X65974Y422419D01*
X65864Y422376D01*
X65751Y422339D01*
X65716Y422317D01*
X65679Y422302D01*
X65583Y422233D01*
X65482Y422169D01*
X65454Y422139D01*
X65421Y422116D01*
X65345Y422024D01*
X65264Y421937D01*
X65244Y421902D01*
X65219Y421871D01*
X65168Y421763D01*
X65110Y421659D01*
X65100Y421619D01*
X65083Y421583D01*
X65072Y421525D01*
X64445Y420897D01*
X64372Y420803D01*
X64293Y420714D01*
X64274Y420678D01*
X64250Y420646D01*
X64202Y420537D01*
X64148Y420431D01*
X64139Y420392D01*
X64123Y420354D01*
X64105Y420237D01*
X64079Y420121D01*
X64080Y420080D01*
X64073Y420040D01*
X64085Y419922D01*
X64088Y419803D01*
X64099Y419764D01*
X64103Y419724D01*
X64144Y419612D01*
X64177Y419497D01*
X64197Y419462D01*
X64211Y419424D01*
X64278Y419326D01*
X64338Y419223D01*
X64378Y419178D01*
X64389Y419161D01*
X64405Y419148D01*
X64445Y419102D01*
X65066Y418481D01*
X65104Y418384D01*
X65141Y418271D01*
X65163Y418236D01*
X65178Y418199D01*
X65247Y418103D01*
X65311Y418002D01*
X65341Y417974D01*
X65364Y417941D01*
X65456Y417865D01*
X65543Y417784D01*
X65578Y417764D01*
X65609Y417739D01*
X65717Y417688D01*
X65821Y417630D01*
X65861Y417620D01*
X65897Y417603D01*
X66014Y417581D01*
X66129Y417551D01*
X66189Y417547D01*
X66209Y417543D01*
X66230Y417545D01*
X66290Y417541D01*
X75588Y417541D01*
X75686Y417553D01*
X75785Y417556D01*
X75843Y417573D01*
X75903Y417581D01*
X75995Y417617D01*
X76091Y417645D01*
X76143Y417675D01*
X76199Y417698D01*
X76279Y417756D01*
X76364Y417806D01*
X76440Y417872D01*
X76456Y417884D01*
X76464Y417894D01*
X76485Y417912D01*
X78118Y419545D01*
X81882Y419545D01*
X84545Y416882D01*
X84545Y413118D01*
X81882Y410455D01*
X78118Y410455D01*
X76485Y412088D01*
X76407Y412148D01*
X76335Y412216D01*
X76282Y412245D01*
X76234Y412282D01*
X76143Y412322D01*
X76056Y412370D01*
X75998Y412385D01*
X75942Y412409D01*
X75844Y412424D01*
X75748Y412449D01*
X75648Y412455D01*
X75628Y412459D01*
X75616Y412457D01*
X75588Y412459D01*
X66290Y412459D01*
X66172Y412444D01*
X66053Y412437D01*
X66015Y412424D01*
X65974Y412419D01*
X65864Y412376D01*
X65751Y412339D01*
X65716Y412317D01*
X65679Y412302D01*
X65583Y412233D01*
X65482Y412169D01*
X65454Y412139D01*
X65421Y412116D01*
X65345Y412024D01*
X65264Y411937D01*
X65244Y411902D01*
X65219Y411871D01*
X65168Y411763D01*
X65110Y411659D01*
X65100Y411619D01*
X65083Y411583D01*
X65061Y411466D01*
X65031Y411351D01*
X65027Y411291D01*
X65023Y411271D01*
X65024Y411259D01*
X65021Y411253D01*
X65003Y411135D01*
X64977Y411019D01*
X64978Y410978D01*
X64971Y410939D01*
X64983Y410820D01*
X64986Y410701D01*
X64997Y410662D01*
X65001Y410622D01*
X65042Y410510D01*
X65075Y410395D01*
X65095Y410361D01*
X65109Y410323D01*
X65176Y410224D01*
X65236Y410121D01*
X65276Y410076D01*
X65287Y410060D01*
X65303Y410046D01*
X65343Y410000D01*
X65783Y409560D01*
X66118Y408981D01*
X66291Y408334D01*
X66291Y406499D01*
X57230Y406499D01*
X57112Y406484D01*
X56993Y406477D01*
X56986Y406475D01*
X56930Y406489D01*
X56870Y406493D01*
X56850Y406497D01*
X56830Y406495D01*
X56770Y406499D01*
X47709Y406499D01*
X47709Y408334D01*
X47882Y408981D01*
X48217Y409560D01*
X48657Y410000D01*
X48731Y410095D01*
X48809Y410184D01*
X48828Y410220D01*
X48852Y410252D01*
X48900Y410361D01*
X48954Y410467D01*
X48963Y410507D01*
X48979Y410544D01*
X48997Y410662D01*
X49023Y410778D01*
X49022Y410818D01*
X49029Y410858D01*
X49017Y410977D01*
X49014Y411096D01*
X49003Y411134D01*
X48999Y411174D01*
X48979Y411228D01*
X48979Y418526D01*
X49555Y419102D01*
X49628Y419196D01*
X49707Y419286D01*
X49726Y419322D01*
X49750Y419354D01*
X49798Y419463D01*
X49852Y419569D01*
X49861Y419608D01*
X49877Y419646D01*
X49895Y419763D01*
X49921Y419879D01*
X49920Y419920D01*
X49927Y419960D01*
X49915Y420078D01*
X49912Y420197D01*
X49901Y420236D01*
X49897Y420276D01*
X49856Y420388D01*
X49823Y420503D01*
X49803Y420537D01*
X49789Y420576D01*
X49722Y420674D01*
X49662Y420777D01*
X49622Y420822D01*
X49611Y420839D01*
X49595Y420852D01*
X49555Y420897D01*
X48979Y421474D01*
X48979Y428526D01*
X49555Y429102D01*
X49628Y429196D01*
X49707Y429286D01*
X49726Y429322D01*
X49750Y429354D01*
X49798Y429463D01*
X49852Y429569D01*
X49861Y429608D01*
X49877Y429646D01*
X49895Y429763D01*
X49921Y429879D01*
X49920Y429920D01*
X49927Y429960D01*
X49915Y430078D01*
X49912Y430197D01*
X49901Y430236D01*
X49897Y430276D01*
X49856Y430389D01*
X49823Y430503D01*
X49803Y430537D01*
X49789Y430576D01*
X49722Y430674D01*
X49662Y430777D01*
X49622Y430822D01*
X49611Y430839D01*
X49595Y430852D01*
X49555Y430897D01*
X48979Y431474D01*
X48979Y438526D01*
X49724Y439271D01*
X64276Y439271D01*
X65381Y438166D01*
X65459Y438106D01*
X65531Y438038D01*
X65584Y438009D01*
X65632Y437972D01*
X65723Y437932D01*
X65809Y437884D01*
X65868Y437869D01*
X65924Y437845D01*
X66022Y437830D01*
X66117Y437805D01*
X66217Y437799D01*
X66238Y437795D01*
X66250Y437797D01*
X66278Y437795D01*
X140842Y437795D01*
X140940Y437807D01*
X141039Y437810D01*
X141097Y437827D01*
X141157Y437835D01*
X141249Y437871D01*
X141344Y437899D01*
X141397Y437929D01*
X141453Y437952D01*
X141533Y438010D01*
X141618Y438060D01*
X141694Y438126D01*
X141710Y438138D01*
X141718Y438148D01*
X141728Y438157D01*
X141730Y438158D01*
X141731Y438159D01*
X141739Y438166D01*
X143118Y439545D01*
X146882Y439545D01*
X148261Y438166D01*
X148339Y438106D01*
X148411Y438038D01*
X148464Y438009D01*
X148512Y437972D01*
X148603Y437932D01*
X148690Y437884D01*
X148748Y437869D01*
X148804Y437845D01*
X148902Y437830D01*
X148998Y437805D01*
X149098Y437799D01*
X149118Y437795D01*
X149130Y437797D01*
X149158Y437795D01*
X415464Y437795D01*
X415562Y437807D01*
X415661Y437810D01*
X415720Y437827D01*
X415780Y437835D01*
X415872Y437871D01*
X415967Y437899D01*
X416019Y437929D01*
X416075Y437952D01*
X416156Y438010D01*
X416241Y438060D01*
X416316Y438126D01*
X416333Y438138D01*
X416341Y438148D01*
X416351Y438157D01*
X416352Y438158D01*
X416353Y438159D01*
X416362Y438166D01*
X417929Y439733D01*
X421694Y439733D01*
X423072Y438355D01*
X423150Y438295D01*
X423222Y438227D01*
X423275Y438197D01*
X423323Y438160D01*
X423414Y438121D01*
X423501Y438073D01*
X423559Y438058D01*
X423615Y438034D01*
X423713Y438018D01*
X423809Y437994D01*
X423909Y437987D01*
X423929Y437984D01*
X423941Y437985D01*
X423969Y437983D01*
X473911Y437983D01*
X474009Y437996D01*
X474108Y437999D01*
X474166Y438016D01*
X474226Y438023D01*
X474318Y438060D01*
X474413Y438087D01*
X474466Y438118D01*
X474522Y438140D01*
X474602Y438198D01*
X474687Y438249D01*
X474763Y438315D01*
X474779Y438327D01*
X474787Y438337D01*
X474808Y438355D01*
X475724Y439271D01*
X490276Y439271D01*
X491021Y438526D01*
X491021Y431474D01*
X490445Y430898D01*
X490372Y430804D01*
X490293Y430714D01*
X490274Y430678D01*
X490250Y430646D01*
X490202Y430537D01*
X490148Y430431D01*
X490139Y430392D01*
X490123Y430354D01*
X490105Y430237D01*
X490079Y430121D01*
X490080Y430080D01*
X490073Y430040D01*
X490085Y429922D01*
X490088Y429803D01*
X490099Y429764D01*
X490103Y429724D01*
X490144Y429611D01*
X490177Y429497D01*
X490197Y429463D01*
X490211Y429424D01*
X490278Y429326D01*
X490338Y429223D01*
X490378Y429178D01*
X490389Y429161D01*
X490405Y429148D01*
X490445Y429103D01*
X491021Y428526D01*
X491021Y421474D01*
X490445Y420898D01*
X490372Y420804D01*
X490293Y420714D01*
X490274Y420678D01*
X490250Y420646D01*
X490202Y420537D01*
X490148Y420431D01*
X490139Y420392D01*
X490123Y420354D01*
X490105Y420237D01*
X490079Y420121D01*
X490080Y420080D01*
X490073Y420040D01*
X490085Y419922D01*
X490088Y419803D01*
X490099Y419764D01*
X490103Y419724D01*
X490144Y419611D01*
X490177Y419497D01*
X490197Y419463D01*
X490211Y419424D01*
X490278Y419326D01*
X490338Y419223D01*
X490378Y419178D01*
X490389Y419161D01*
X490405Y419148D01*
X490445Y419103D01*
X491021Y418526D01*
X491021Y411248D01*
X491003Y411135D01*
X490977Y411019D01*
X490978Y410978D01*
X490971Y410939D01*
X490983Y410820D01*
X490986Y410701D01*
X490997Y410662D01*
X491001Y410622D01*
X491042Y410510D01*
X491075Y410395D01*
X491095Y410361D01*
X491109Y410323D01*
X491176Y410224D01*
X491236Y410121D01*
X491276Y410076D01*
X491287Y410060D01*
X491303Y410046D01*
X491343Y410000D01*
X491783Y409560D01*
X492118Y408981D01*
X492291Y408334D01*
X492291Y406499D01*
X483230Y406499D01*
X483112Y406484D01*
X482993Y406477D01*
X482986Y406475D01*
X482930Y406489D01*
X482870Y406493D01*
X482850Y406497D01*
X482830Y406495D01*
X482770Y406499D01*
X473709Y406499D01*
X473709Y408334D01*
X473882Y408981D01*
X474217Y409560D01*
X474657Y410000D01*
X474731Y410095D01*
X474809Y410184D01*
X474828Y410220D01*
X474852Y410252D01*
X474900Y410361D01*
X474954Y410467D01*
X474963Y410507D01*
X474979Y410544D01*
X474997Y410662D01*
X475023Y410778D01*
X475022Y410818D01*
X475029Y410858D01*
X475017Y410977D01*
X475014Y411096D01*
X475003Y411134D01*
X474999Y411174D01*
X474972Y411249D01*
X474964Y411308D01*
X474957Y411427D01*
X474944Y411465D01*
X474939Y411506D01*
X474896Y411616D01*
X474859Y411729D01*
X474837Y411764D01*
X474822Y411801D01*
X474753Y411897D01*
X474689Y411998D01*
X474659Y412026D01*
X474636Y412059D01*
X474544Y412135D01*
X474457Y412216D01*
X474422Y412236D01*
X474391Y412261D01*
X474283Y412312D01*
X474179Y412370D01*
X474139Y412380D01*
X474103Y412397D01*
X473986Y412419D01*
X473871Y412449D01*
X473811Y412453D01*
X473791Y412457D01*
X473770Y412455D01*
X473710Y412459D01*
X459412Y412459D01*
X459314Y412447D01*
X459215Y412444D01*
X459157Y412427D01*
X459097Y412419D01*
X459005Y412383D01*
X458910Y412355D01*
X458857Y412325D01*
X458801Y412302D01*
X458721Y412244D01*
X458636Y412194D01*
X458560Y412128D01*
X458544Y412116D01*
X458536Y412106D01*
X458515Y412088D01*
X456882Y410455D01*
X453118Y410455D01*
X450455Y413118D01*
X450455Y416882D01*
X453118Y419545D01*
X456882Y419545D01*
X458515Y417912D01*
X458593Y417852D01*
X458665Y417784D01*
X458718Y417755D01*
X458766Y417718D01*
X458857Y417678D01*
X458944Y417630D01*
X459002Y417615D01*
X459058Y417591D01*
X459156Y417576D01*
X459252Y417551D01*
X459352Y417545D01*
X459372Y417541D01*
X459384Y417543D01*
X459412Y417541D01*
X473710Y417541D01*
X473828Y417556D01*
X473947Y417563D01*
X473985Y417576D01*
X474026Y417581D01*
X474136Y417624D01*
X474249Y417661D01*
X474284Y417683D01*
X474321Y417698D01*
X474417Y417767D01*
X474518Y417831D01*
X474546Y417861D01*
X474579Y417884D01*
X474655Y417976D01*
X474736Y418063D01*
X474756Y418098D01*
X474781Y418129D01*
X474832Y418237D01*
X474890Y418341D01*
X474900Y418381D01*
X474917Y418417D01*
X474928Y418475D01*
X475555Y419103D01*
X475628Y419197D01*
X475707Y419286D01*
X475726Y419322D01*
X475750Y419354D01*
X475798Y419463D01*
X475852Y419569D01*
X475861Y419608D01*
X475877Y419646D01*
X475895Y419763D01*
X475921Y419879D01*
X475920Y419920D01*
X475927Y419960D01*
X475915Y420078D01*
X475912Y420197D01*
X475901Y420236D01*
X475897Y420276D01*
X475856Y420388D01*
X475823Y420503D01*
X475803Y420538D01*
X475789Y420576D01*
X475722Y420674D01*
X475662Y420777D01*
X475622Y420822D01*
X475611Y420839D01*
X475595Y420852D01*
X475555Y420898D01*
X474934Y421519D01*
X474896Y421616D01*
X474859Y421729D01*
X474837Y421764D01*
X474822Y421801D01*
X474753Y421897D01*
X474689Y421998D01*
X474659Y422026D01*
X474636Y422059D01*
X474544Y422135D01*
X474457Y422216D01*
X474422Y422236D01*
X474391Y422261D01*
X474283Y422312D01*
X474179Y422370D01*
X474139Y422380D01*
X474103Y422397D01*
X473986Y422419D01*
X473871Y422449D01*
X473811Y422453D01*
X473791Y422457D01*
X473770Y422455D01*
X473710Y422459D01*
X421578Y422459D01*
X421480Y422447D01*
X421381Y422444D01*
X421323Y422427D01*
X421263Y422419D01*
X421171Y422383D01*
X421075Y422355D01*
X421023Y422325D01*
X420967Y422302D01*
X420887Y422244D01*
X420802Y422194D01*
X420726Y422128D01*
X420710Y422116D01*
X420702Y422106D01*
X420681Y422088D01*
X397912Y399319D01*
X397852Y399241D01*
X397784Y399169D01*
X397755Y399116D01*
X397718Y399068D01*
X397678Y398977D01*
X397630Y398890D01*
X397615Y398832D01*
X397591Y398776D01*
X397576Y398678D01*
X397551Y398583D01*
X397545Y398482D01*
X397541Y398462D01*
X397543Y398450D01*
X397541Y398422D01*
X397541Y161578D01*
X397553Y161480D01*
X397556Y161381D01*
X397573Y161323D01*
X397581Y161263D01*
X397617Y161171D01*
X397645Y161075D01*
X397675Y161023D01*
X397698Y160967D01*
X397756Y160887D01*
X397806Y160802D01*
X397872Y160726D01*
X397884Y160710D01*
X397894Y160702D01*
X397912Y160681D01*
X405681Y152912D01*
X405759Y152852D01*
X405831Y152784D01*
X405884Y152755D01*
X405932Y152718D01*
X406023Y152678D01*
X406110Y152630D01*
X406168Y152615D01*
X406224Y152591D01*
X406322Y152576D01*
X406417Y152551D01*
X406518Y152545D01*
X406538Y152541D01*
X406550Y152543D01*
X406578Y152541D01*
X433422Y152541D01*
X433520Y152553D01*
X433619Y152556D01*
X433677Y152573D01*
X433737Y152581D01*
X433829Y152617D01*
X433925Y152645D01*
X433977Y152675D01*
X434033Y152698D01*
X434113Y152756D01*
X434198Y152806D01*
X434274Y152872D01*
X434290Y152884D01*
X434298Y152894D01*
X434319Y152912D01*
X437088Y155681D01*
X437148Y155759D01*
X437216Y155831D01*
X437245Y155884D01*
X437282Y155932D01*
X437322Y156023D01*
X437370Y156110D01*
X437385Y156168D01*
X437409Y156224D01*
X437424Y156322D01*
X437449Y156417D01*
X437455Y156517D01*
X437459Y156538D01*
X437457Y156550D01*
X437459Y156578D01*
X437459Y171052D01*
X443948Y177541D01*
X448092Y177541D01*
X448190Y177553D01*
X448289Y177556D01*
X448347Y177573D01*
X448407Y177581D01*
X448500Y177617D01*
X448595Y177645D01*
X448647Y177675D01*
X448703Y177698D01*
X448783Y177756D01*
X448869Y177806D01*
X448944Y177872D01*
X448960Y177884D01*
X448968Y177894D01*
X448989Y177912D01*
X449380Y178303D01*
X462624Y178303D01*
X463369Y177558D01*
X463369Y172442D01*
X462624Y171697D01*
X449380Y171697D01*
X448989Y172088D01*
X448911Y172148D01*
X448839Y172216D01*
X448786Y172245D01*
X448738Y172282D01*
X448647Y172322D01*
X448561Y172370D01*
X448502Y172385D01*
X448446Y172409D01*
X448348Y172424D01*
X448253Y172449D01*
X448153Y172455D01*
X448132Y172459D01*
X448120Y172457D01*
X448092Y172459D01*
X446578Y172459D01*
X446480Y172447D01*
X446381Y172444D01*
X446323Y172427D01*
X446263Y172419D01*
X446171Y172383D01*
X446075Y172355D01*
X446023Y172325D01*
X445967Y172302D01*
X445887Y172244D01*
X445802Y172194D01*
X445726Y172128D01*
X445710Y172116D01*
X445702Y172106D01*
X445681Y172088D01*
X442912Y169319D01*
X442852Y169241D01*
X442784Y169169D01*
X442755Y169116D01*
X442718Y169068D01*
X442678Y168977D01*
X442630Y168890D01*
X442615Y168832D01*
X442591Y168776D01*
X442576Y168678D01*
X442551Y168583D01*
X442545Y168482D01*
X442541Y168462D01*
X442543Y168450D01*
X442541Y168422D01*
X442541Y156578D01*
X442553Y156480D01*
X442556Y156381D01*
X442573Y156323D01*
X442581Y156263D01*
X442617Y156171D01*
X442645Y156075D01*
X442675Y156023D01*
X442698Y155967D01*
X442756Y155887D01*
X442806Y155802D01*
X442872Y155726D01*
X442884Y155710D01*
X442894Y155702D01*
X442912Y155681D01*
X447541Y151052D01*
X447541Y33948D01*
X430482Y16889D01*
X325712Y16889D01*
X325614Y16877D01*
X325515Y16874D01*
X325457Y16857D01*
X325397Y16849D01*
X325304Y16813D01*
X325209Y16785D01*
X325157Y16755D01*
X325101Y16732D01*
X325021Y16674D01*
X324935Y16624D01*
X324860Y16558D01*
X324844Y16546D01*
X324836Y16536D01*
X324815Y16518D01*
X324026Y15729D01*
X315974Y15729D01*
X315184Y16519D01*
X315146Y16616D01*
X315109Y16729D01*
X315087Y16764D01*
X315072Y16801D01*
X315003Y16897D01*
X314939Y16998D01*
X314909Y17026D01*
X314886Y17059D01*
X314794Y17135D01*
X314707Y17216D01*
X314672Y17236D01*
X314641Y17261D01*
X314533Y17312D01*
X314429Y17370D01*
X314389Y17380D01*
X314353Y17397D01*
X314236Y17419D01*
X314121Y17449D01*
X314061Y17453D01*
X314041Y17457D01*
X314020Y17455D01*
X313960Y17459D01*
X313948Y17459D01*
X312088Y19319D01*
X292207Y39199D01*
X292098Y39285D01*
X291991Y39373D01*
X291972Y39382D01*
X291956Y39394D01*
X291828Y39450D01*
X291703Y39509D01*
X291683Y39513D01*
X291664Y39521D01*
X291526Y39543D01*
X291390Y39569D01*
X291370Y39567D01*
X291350Y39571D01*
X291211Y39557D01*
X291073Y39549D01*
X291054Y39543D01*
X291034Y39541D01*
X290902Y39494D01*
X290771Y39451D01*
X290753Y39440D01*
X290734Y39433D01*
X290619Y39355D01*
X290502Y39281D01*
X290488Y39266D01*
X290471Y39255D01*
X290379Y39150D01*
X290284Y39049D01*
X290274Y39031D01*
X290261Y39016D01*
X290197Y38892D01*
X290130Y38771D01*
X290125Y38751D01*
X290116Y38733D01*
X290086Y38597D01*
X290051Y38463D01*
X290049Y38435D01*
X290046Y38423D01*
X290047Y38402D01*
X290041Y38302D01*
X290041Y26448D01*
X284916Y21323D01*
X284856Y21245D01*
X284788Y21173D01*
X284759Y21120D01*
X284722Y21072D01*
X284682Y20981D01*
X284634Y20894D01*
X284619Y20836D01*
X284595Y20780D01*
X284580Y20682D01*
X284555Y20587D01*
X284549Y20486D01*
X284545Y20466D01*
X284547Y20454D01*
X284545Y20426D01*
X284545Y18118D01*
X281882Y15455D01*
X278118Y15455D01*
X275455Y18118D01*
X275455Y21882D01*
X278118Y24545D01*
X280426Y24545D01*
X280524Y24557D01*
X280623Y24560D01*
X280681Y24577D01*
X280741Y24585D01*
X280833Y24621D01*
X280929Y24649D01*
X280981Y24679D01*
X281037Y24702D01*
X281117Y24760D01*
X281202Y24810D01*
X281278Y24876D01*
X281294Y24888D01*
X281302Y24898D01*
X281323Y24916D01*
X284588Y28181D01*
X284648Y28259D01*
X284716Y28331D01*
X284745Y28384D01*
X284782Y28432D01*
X284822Y28523D01*
X284870Y28610D01*
X284885Y28668D01*
X284909Y28724D01*
X284924Y28822D01*
X284949Y28917D01*
X284955Y29018D01*
X284959Y29038D01*
X284957Y29050D01*
X284959Y29078D01*
X284959Y40468D01*
X284942Y40606D01*
X284929Y40744D01*
X284922Y40763D01*
X284919Y40783D01*
X284868Y40912D01*
X284821Y41043D01*
X284810Y41060D01*
X284802Y41079D01*
X284721Y41191D01*
X284643Y41307D01*
X284627Y41320D01*
X284616Y41336D01*
X284508Y41425D01*
X284404Y41517D01*
X284386Y41526D01*
X284371Y41539D01*
X284245Y41598D01*
X284121Y41662D01*
X284101Y41666D01*
X284083Y41675D01*
X283946Y41701D01*
X283811Y41731D01*
X283790Y41731D01*
X283771Y41735D01*
X283632Y41726D01*
X283493Y41722D01*
X283473Y41716D01*
X283453Y41715D01*
X283321Y41672D01*
X283187Y41633D01*
X283170Y41623D01*
X283151Y41617D01*
X283033Y41542D01*
X282913Y41472D01*
X282892Y41453D01*
X282882Y41447D01*
X282868Y41432D01*
X282793Y41365D01*
X281883Y40455D01*
X278118Y40455D01*
X275455Y43118D01*
X275455Y45426D01*
X275443Y45524D01*
X275440Y45623D01*
X275423Y45681D01*
X275415Y45741D01*
X275379Y45833D01*
X275351Y45929D01*
X275321Y45981D01*
X275298Y46037D01*
X275240Y46117D01*
X275190Y46202D01*
X275124Y46278D01*
X275112Y46294D01*
X275102Y46302D01*
X275084Y46323D01*
X274959Y46448D01*
X274959Y48690D01*
X274944Y48808D01*
X274937Y48927D01*
X274924Y48965D01*
X274919Y49006D01*
X274876Y49116D01*
X274839Y49229D01*
X274817Y49264D01*
X274802Y49301D01*
X274733Y49397D01*
X274669Y49498D01*
X274639Y49526D01*
X274616Y49559D01*
X274524Y49635D01*
X274437Y49716D01*
X274402Y49736D01*
X274371Y49761D01*
X274263Y49812D01*
X274159Y49870D01*
X274119Y49880D01*
X274083Y49897D01*
X273966Y49919D01*
X273851Y49949D01*
X273791Y49953D01*
X273771Y49957D01*
X273769Y49957D01*
X273769Y56000D01*
X273754Y56118D01*
X273747Y56237D01*
X273735Y56275D01*
X273730Y56315D01*
X273686Y56426D01*
X273649Y56539D01*
X273627Y56573D01*
X273613Y56611D01*
X273543Y56707D01*
X273479Y56808D01*
X273449Y56836D01*
X273426Y56868D01*
X273334Y56944D01*
X273247Y57026D01*
X273212Y57045D01*
X273181Y57071D01*
X273073Y57122D01*
X272969Y57179D01*
X272930Y57189D01*
X272893Y57207D01*
X272776Y57229D01*
X272661Y57259D01*
X272601Y57263D01*
X272581Y57266D01*
X272580Y57266D01*
X272560Y57265D01*
X272500Y57269D01*
X272382Y57254D01*
X272263Y57247D01*
X272224Y57234D01*
X272184Y57229D01*
X272074Y57185D01*
X271960Y57149D01*
X271926Y57127D01*
X271889Y57112D01*
X271792Y57042D01*
X271692Y56978D01*
X271664Y56949D01*
X271631Y56925D01*
X271555Y56833D01*
X271474Y56747D01*
X271454Y56711D01*
X271428Y56680D01*
X271378Y56573D01*
X271320Y56468D01*
X271310Y56429D01*
X271293Y56393D01*
X271271Y56276D01*
X271241Y56160D01*
X271237Y56100D01*
X271233Y56080D01*
X271234Y56060D01*
X271231Y56000D01*
X271231Y49959D01*
X270916Y49959D01*
X270269Y50132D01*
X269690Y50467D01*
X269299Y50858D01*
X269221Y50918D01*
X269149Y50986D01*
X269096Y51015D01*
X269048Y51052D01*
X268957Y51092D01*
X268870Y51140D01*
X268812Y51155D01*
X268756Y51179D01*
X268658Y51194D01*
X268563Y51219D01*
X268463Y51225D01*
X268442Y51229D01*
X268430Y51227D01*
X268402Y51229D01*
X266310Y51229D01*
X266192Y51214D01*
X266073Y51207D01*
X266035Y51194D01*
X265994Y51189D01*
X265884Y51146D01*
X265771Y51109D01*
X265736Y51087D01*
X265699Y51072D01*
X265603Y51003D01*
X265502Y50939D01*
X265474Y50909D01*
X265441Y50886D01*
X265365Y50794D01*
X265284Y50707D01*
X265264Y50672D01*
X265239Y50641D01*
X265188Y50533D01*
X265130Y50429D01*
X265120Y50389D01*
X265103Y50353D01*
X265081Y50236D01*
X265051Y50121D01*
X265047Y50061D01*
X265043Y50041D01*
X265045Y50020D01*
X265041Y49960D01*
X265041Y22195D01*
X255799Y12953D01*
X142262Y12953D01*
G37*
%LPD*%
%LPC*%
G36*
X262363Y192459D02*
X262363Y192459D01*
X247382Y195439D01*
X233271Y201284D01*
X220571Y209770D01*
X209770Y220571D01*
X201284Y233271D01*
X195439Y247382D01*
X192459Y262363D01*
X192459Y277637D01*
X195439Y292618D01*
X201284Y306729D01*
X209770Y319429D01*
X220571Y330230D01*
X233271Y338716D01*
X247382Y344561D01*
X262363Y347541D01*
X277637Y347541D01*
X292618Y344561D01*
X306729Y338716D01*
X319429Y330230D01*
X330230Y319429D01*
X338716Y306729D01*
X344561Y292618D01*
X347541Y277637D01*
X347541Y262363D01*
X344561Y247382D01*
X338716Y233271D01*
X330230Y220571D01*
X319429Y209770D01*
X306729Y201284D01*
X292618Y195439D01*
X277637Y192459D01*
X262363Y192459D01*
G37*
%LPD*%
%LPC*%
G36*
X337958Y446549D02*
X337958Y446549D01*
X330112Y448652D01*
X323077Y452713D01*
X317333Y458457D01*
X313272Y465492D01*
X311169Y473338D01*
X311169Y481462D01*
X313272Y489308D01*
X317333Y496343D01*
X323077Y502087D01*
X330112Y506148D01*
X337958Y508251D01*
X405242Y508251D01*
X413088Y506148D01*
X420123Y502087D01*
X425867Y496343D01*
X429928Y489308D01*
X432031Y481462D01*
X432031Y473338D01*
X429928Y465492D01*
X425867Y458457D01*
X420123Y452713D01*
X413088Y448652D01*
X405242Y446549D01*
X337958Y446549D01*
G37*
%LPD*%
%LPC*%
G36*
X89051Y352149D02*
X89051Y352149D01*
X82349Y353945D01*
X76340Y357414D01*
X71434Y362320D01*
X67965Y368329D01*
X66169Y375031D01*
X66169Y381969D01*
X67965Y388671D01*
X71434Y394680D01*
X76340Y399586D01*
X82349Y403055D01*
X89051Y404851D01*
X146149Y404851D01*
X152851Y403055D01*
X158860Y399586D01*
X163766Y394680D01*
X167235Y388671D01*
X169027Y381981D01*
X169070Y381877D01*
X169105Y381771D01*
X169130Y381731D01*
X169148Y381687D01*
X169215Y381597D01*
X169275Y381502D01*
X169309Y381470D01*
X169337Y381432D01*
X169424Y381361D01*
X169506Y381284D01*
X169548Y381261D01*
X169584Y381231D01*
X169686Y381185D01*
X169785Y381130D01*
X169830Y381119D01*
X169873Y381099D01*
X169984Y381079D01*
X170093Y381051D01*
X170165Y381046D01*
X170186Y381043D01*
X170205Y381044D01*
X170253Y381041D01*
X365922Y381041D01*
X366020Y381053D01*
X366119Y381056D01*
X366177Y381073D01*
X366237Y381081D01*
X366329Y381117D01*
X366425Y381145D01*
X366477Y381175D01*
X366533Y381198D01*
X366613Y381256D01*
X366698Y381306D01*
X366774Y381372D01*
X366790Y381384D01*
X366798Y381394D01*
X366819Y381412D01*
X367948Y382541D01*
X370588Y382541D01*
X370686Y382553D01*
X370785Y382556D01*
X370843Y382573D01*
X370903Y382581D01*
X370995Y382617D01*
X371090Y382645D01*
X371143Y382675D01*
X371199Y382698D01*
X371279Y382756D01*
X371364Y382806D01*
X371440Y382872D01*
X371456Y382884D01*
X371464Y382894D01*
X371485Y382912D01*
X373118Y384545D01*
X376882Y384545D01*
X379545Y381882D01*
X379545Y378118D01*
X376882Y375455D01*
X373118Y375455D01*
X371485Y377088D01*
X371407Y377148D01*
X371335Y377216D01*
X371282Y377245D01*
X371234Y377282D01*
X371143Y377322D01*
X371056Y377370D01*
X371017Y377380D01*
X371009Y377384D01*
X370990Y377388D01*
X370942Y377409D01*
X370844Y377424D01*
X370748Y377449D01*
X370707Y377452D01*
X370699Y377454D01*
X370685Y377453D01*
X370648Y377455D01*
X370628Y377459D01*
X370616Y377457D01*
X370588Y377459D01*
X370578Y377459D01*
X370480Y377447D01*
X370381Y377444D01*
X370337Y377431D01*
X370311Y377429D01*
X370298Y377424D01*
X370263Y377419D01*
X370171Y377383D01*
X370075Y377355D01*
X370026Y377326D01*
X370012Y377321D01*
X370009Y377319D01*
X369967Y377302D01*
X369887Y377244D01*
X369802Y377194D01*
X369726Y377128D01*
X369710Y377116D01*
X369702Y377106D01*
X369681Y377088D01*
X368552Y375959D01*
X170253Y375959D01*
X170142Y375945D01*
X170030Y375939D01*
X169985Y375925D01*
X169938Y375919D01*
X169834Y375878D01*
X169726Y375845D01*
X169686Y375820D01*
X169642Y375802D01*
X169551Y375737D01*
X169456Y375677D01*
X169423Y375643D01*
X169385Y375616D01*
X169313Y375529D01*
X169235Y375448D01*
X169212Y375407D01*
X169182Y375371D01*
X169134Y375269D01*
X169079Y375171D01*
X169056Y375102D01*
X169047Y375083D01*
X169043Y375065D01*
X169027Y375019D01*
X167235Y368329D01*
X163766Y362320D01*
X158860Y357414D01*
X152851Y353945D01*
X146149Y352149D01*
X89051Y352149D01*
G37*
%LPD*%
G36*
X213520Y97553D02*
X213520Y97553D01*
X213619Y97556D01*
X213677Y97573D01*
X213737Y97581D01*
X213829Y97617D01*
X213925Y97645D01*
X213977Y97675D01*
X214033Y97698D01*
X214113Y97756D01*
X214198Y97806D01*
X214274Y97872D01*
X214290Y97884D01*
X214298Y97894D01*
X214319Y97912D01*
X215123Y98717D01*
X215208Y98826D01*
X215297Y98933D01*
X215306Y98952D01*
X215318Y98968D01*
X215374Y99096D01*
X215433Y99221D01*
X215437Y99241D01*
X215445Y99260D01*
X215467Y99398D01*
X215493Y99534D01*
X215491Y99554D01*
X215495Y99574D01*
X215481Y99713D01*
X215473Y99851D01*
X215467Y99870D01*
X215465Y99890D01*
X215418Y100021D01*
X215375Y100153D01*
X215364Y100171D01*
X215357Y100190D01*
X215279Y100304D01*
X215205Y100422D01*
X215190Y100436D01*
X215179Y100453D01*
X215074Y100545D01*
X214973Y100640D01*
X214955Y100650D01*
X214940Y100663D01*
X214816Y100726D01*
X214695Y100794D01*
X214675Y100799D01*
X214657Y100808D01*
X214521Y100838D01*
X214387Y100873D01*
X214359Y100875D01*
X214347Y100878D01*
X214326Y100877D01*
X214226Y100883D01*
X155524Y100883D01*
X137459Y118948D01*
X137459Y198422D01*
X137447Y198520D01*
X137444Y198619D01*
X137427Y198677D01*
X137419Y198737D01*
X137383Y198829D01*
X137355Y198925D01*
X137325Y198977D01*
X137302Y199033D01*
X137244Y199113D01*
X137194Y199198D01*
X137128Y199274D01*
X137116Y199290D01*
X137106Y199298D01*
X137088Y199319D01*
X129319Y207088D01*
X129241Y207148D01*
X129169Y207216D01*
X129116Y207245D01*
X129068Y207282D01*
X128977Y207322D01*
X128890Y207370D01*
X128832Y207385D01*
X128776Y207409D01*
X128678Y207424D01*
X128583Y207449D01*
X128482Y207455D01*
X128462Y207459D01*
X128450Y207457D01*
X128422Y207459D01*
X123902Y207459D01*
X123764Y207442D01*
X123626Y207429D01*
X123607Y207422D01*
X123587Y207419D01*
X123457Y207368D01*
X123326Y207321D01*
X123310Y207310D01*
X123291Y207302D01*
X123178Y207221D01*
X123063Y207143D01*
X123050Y207127D01*
X123033Y207116D01*
X122945Y207008D01*
X122853Y206904D01*
X122844Y206886D01*
X122831Y206871D01*
X122771Y206745D01*
X122708Y206621D01*
X122704Y206601D01*
X122695Y206583D01*
X122669Y206446D01*
X122639Y206311D01*
X122639Y206290D01*
X122635Y206271D01*
X122644Y206132D01*
X122648Y205993D01*
X122654Y205973D01*
X122655Y205953D01*
X122698Y205821D01*
X122737Y205687D01*
X122747Y205670D01*
X122753Y205651D01*
X122827Y205533D01*
X122898Y205413D01*
X122917Y205392D01*
X122923Y205382D01*
X122938Y205368D01*
X123005Y205292D01*
X123271Y205026D01*
X123271Y197848D01*
X123283Y197750D01*
X123286Y197651D01*
X123303Y197593D01*
X123311Y197533D01*
X123347Y197441D01*
X123375Y197345D01*
X123405Y197293D01*
X123428Y197237D01*
X123486Y197157D01*
X123536Y197071D01*
X123602Y196996D01*
X123614Y196980D01*
X123624Y196972D01*
X123642Y196951D01*
X124033Y196560D01*
X124368Y195981D01*
X124541Y195334D01*
X124541Y193499D01*
X117730Y193499D01*
X117612Y193484D01*
X117493Y193477D01*
X117486Y193475D01*
X117430Y193489D01*
X117370Y193493D01*
X117350Y193497D01*
X117330Y193495D01*
X117270Y193499D01*
X110459Y193499D01*
X110459Y195334D01*
X110632Y195981D01*
X110967Y196560D01*
X111358Y196951D01*
X111418Y197029D01*
X111486Y197101D01*
X111515Y197154D01*
X111552Y197202D01*
X111592Y197293D01*
X111640Y197380D01*
X111655Y197438D01*
X111679Y197494D01*
X111694Y197592D01*
X111719Y197687D01*
X111725Y197787D01*
X111729Y197808D01*
X111727Y197820D01*
X111729Y197848D01*
X111729Y205026D01*
X111995Y205292D01*
X112081Y205402D01*
X112169Y205509D01*
X112178Y205528D01*
X112190Y205544D01*
X112246Y205672D01*
X112305Y205797D01*
X112309Y205817D01*
X112317Y205836D01*
X112339Y205974D01*
X112365Y206110D01*
X112363Y206130D01*
X112367Y206150D01*
X112353Y206289D01*
X112345Y206427D01*
X112339Y206446D01*
X112337Y206466D01*
X112290Y206597D01*
X112247Y206729D01*
X112236Y206747D01*
X112229Y206766D01*
X112151Y206880D01*
X112077Y206998D01*
X112062Y207012D01*
X112051Y207029D01*
X111947Y207120D01*
X111845Y207216D01*
X111827Y207226D01*
X111812Y207239D01*
X111688Y207302D01*
X111567Y207370D01*
X111547Y207375D01*
X111529Y207384D01*
X111393Y207414D01*
X111259Y207449D01*
X111231Y207451D01*
X111219Y207454D01*
X111198Y207453D01*
X111098Y207459D01*
X104578Y207459D01*
X104480Y207447D01*
X104381Y207444D01*
X104323Y207427D01*
X104263Y207419D01*
X104171Y207383D01*
X104075Y207355D01*
X104023Y207325D01*
X103967Y207302D01*
X103887Y207244D01*
X103802Y207194D01*
X103726Y207128D01*
X103710Y207116D01*
X103702Y207106D01*
X103681Y207088D01*
X100642Y204049D01*
X100582Y203971D01*
X100514Y203899D01*
X100485Y203846D01*
X100448Y203798D01*
X100408Y203707D01*
X100360Y203620D01*
X100345Y203562D01*
X100321Y203506D01*
X100306Y203408D01*
X100281Y203313D01*
X100275Y203213D01*
X100271Y203192D01*
X100273Y203180D01*
X100271Y203152D01*
X100271Y197848D01*
X100283Y197750D01*
X100286Y197651D01*
X100303Y197593D01*
X100311Y197533D01*
X100347Y197441D01*
X100375Y197345D01*
X100405Y197293D01*
X100428Y197237D01*
X100486Y197157D01*
X100536Y197071D01*
X100602Y196996D01*
X100614Y196980D01*
X100624Y196972D01*
X100642Y196951D01*
X101033Y196560D01*
X101368Y195981D01*
X101541Y195334D01*
X101541Y193499D01*
X94730Y193499D01*
X94612Y193484D01*
X94493Y193477D01*
X94486Y193475D01*
X94430Y193489D01*
X94370Y193493D01*
X94350Y193497D01*
X94330Y193495D01*
X94270Y193499D01*
X86890Y193499D01*
X86886Y193501D01*
X86871Y193514D01*
X86745Y193573D01*
X86621Y193637D01*
X86601Y193641D01*
X86583Y193650D01*
X86447Y193676D01*
X86311Y193706D01*
X86290Y193706D01*
X86271Y193709D01*
X86132Y193701D01*
X85993Y193697D01*
X85973Y193691D01*
X85953Y193690D01*
X85821Y193647D01*
X85687Y193608D01*
X85670Y193598D01*
X85651Y193592D01*
X85533Y193517D01*
X85413Y193447D01*
X85392Y193428D01*
X85382Y193421D01*
X85368Y193407D01*
X85293Y193340D01*
X84850Y192898D01*
X84777Y192803D01*
X84698Y192714D01*
X84680Y192678D01*
X84655Y192646D01*
X84608Y192537D01*
X84553Y192431D01*
X84545Y192392D01*
X84529Y192354D01*
X84510Y192237D01*
X84484Y192121D01*
X84485Y192080D01*
X84479Y192040D01*
X84490Y191922D01*
X84493Y191803D01*
X84505Y191764D01*
X84509Y191724D01*
X84549Y191612D01*
X84582Y191497D01*
X84602Y191462D01*
X84616Y191424D01*
X84683Y191326D01*
X84743Y191223D01*
X84783Y191178D01*
X84795Y191161D01*
X84810Y191148D01*
X84850Y191103D01*
X85292Y190660D01*
X85379Y190593D01*
X85420Y190554D01*
X85442Y190542D01*
X85509Y190486D01*
X85528Y190477D01*
X85544Y190465D01*
X85671Y190410D01*
X85797Y190350D01*
X85817Y190347D01*
X85836Y190339D01*
X85973Y190317D01*
X86110Y190291D01*
X86130Y190292D01*
X86150Y190289D01*
X86289Y190302D01*
X86427Y190310D01*
X86446Y190317D01*
X86466Y190318D01*
X86598Y190366D01*
X86729Y190408D01*
X86746Y190419D01*
X86766Y190426D01*
X86876Y190501D01*
X94270Y190501D01*
X94388Y190516D01*
X94507Y190523D01*
X94514Y190525D01*
X94570Y190511D01*
X94630Y190507D01*
X94650Y190503D01*
X94670Y190505D01*
X94730Y190501D01*
X101541Y190501D01*
X101541Y188666D01*
X101368Y188019D01*
X101033Y187440D01*
X100801Y187208D01*
X100715Y187098D01*
X100627Y186991D01*
X100618Y186972D01*
X100606Y186956D01*
X100550Y186829D01*
X100491Y186703D01*
X100487Y186683D01*
X100479Y186664D01*
X100457Y186527D01*
X100431Y186390D01*
X100433Y186370D01*
X100429Y186350D01*
X100443Y186212D01*
X100451Y186073D01*
X100457Y186054D01*
X100459Y186034D01*
X100506Y185902D01*
X100549Y185771D01*
X100560Y185754D01*
X100567Y185734D01*
X100645Y185619D01*
X100719Y185502D01*
X100734Y185488D01*
X100745Y185471D01*
X100850Y185379D01*
X100951Y185284D01*
X100969Y185274D01*
X100984Y185261D01*
X101108Y185197D01*
X101229Y185130D01*
X101249Y185125D01*
X101267Y185116D01*
X101403Y185086D01*
X101537Y185051D01*
X101565Y185049D01*
X101577Y185046D01*
X101598Y185047D01*
X101698Y185041D01*
X103552Y185041D01*
X109563Y179031D01*
X109672Y178945D01*
X109779Y178857D01*
X109798Y178848D01*
X109814Y178836D01*
X109942Y178780D01*
X110067Y178721D01*
X110087Y178717D01*
X110106Y178709D01*
X110244Y178687D01*
X110380Y178661D01*
X110400Y178663D01*
X110420Y178659D01*
X110559Y178673D01*
X110697Y178681D01*
X110716Y178687D01*
X110736Y178689D01*
X110868Y178736D01*
X110999Y178779D01*
X111017Y178790D01*
X111036Y178797D01*
X111151Y178875D01*
X111268Y178949D01*
X111282Y178964D01*
X111299Y178975D01*
X111391Y179080D01*
X111486Y179181D01*
X111496Y179199D01*
X111509Y179214D01*
X111573Y179338D01*
X111640Y179459D01*
X111645Y179479D01*
X111654Y179497D01*
X111684Y179633D01*
X111719Y179767D01*
X111721Y179795D01*
X111724Y179807D01*
X111723Y179828D01*
X111729Y179928D01*
X111729Y186152D01*
X111717Y186250D01*
X111714Y186349D01*
X111697Y186407D01*
X111689Y186467D01*
X111653Y186559D01*
X111625Y186655D01*
X111595Y186707D01*
X111572Y186763D01*
X111514Y186843D01*
X111464Y186929D01*
X111398Y187004D01*
X111386Y187020D01*
X111376Y187028D01*
X111358Y187049D01*
X110967Y187440D01*
X110632Y188019D01*
X110459Y188666D01*
X110459Y190501D01*
X117270Y190501D01*
X117388Y190516D01*
X117507Y190523D01*
X117514Y190525D01*
X117570Y190511D01*
X117630Y190507D01*
X117650Y190503D01*
X117670Y190505D01*
X117730Y190501D01*
X124541Y190501D01*
X124541Y188666D01*
X124368Y188019D01*
X124033Y187440D01*
X123642Y187049D01*
X123582Y186971D01*
X123514Y186899D01*
X123485Y186846D01*
X123448Y186798D01*
X123408Y186707D01*
X123360Y186620D01*
X123345Y186562D01*
X123321Y186506D01*
X123306Y186408D01*
X123281Y186313D01*
X123275Y186213D01*
X123271Y186192D01*
X123273Y186180D01*
X123271Y186152D01*
X123271Y178810D01*
X123286Y178692D01*
X123293Y178573D01*
X123306Y178535D01*
X123311Y178494D01*
X123354Y178384D01*
X123391Y178271D01*
X123413Y178236D01*
X123428Y178199D01*
X123497Y178103D01*
X123561Y178002D01*
X123591Y177974D01*
X123614Y177941D01*
X123706Y177865D01*
X123793Y177784D01*
X123828Y177764D01*
X123859Y177739D01*
X123967Y177688D01*
X124071Y177630D01*
X124111Y177620D01*
X124147Y177603D01*
X124264Y177581D01*
X124379Y177551D01*
X124439Y177547D01*
X124459Y177543D01*
X124480Y177545D01*
X124540Y177541D01*
X126052Y177541D01*
X132541Y171052D01*
X132541Y116578D01*
X132553Y116480D01*
X132556Y116381D01*
X132573Y116323D01*
X132581Y116263D01*
X132617Y116171D01*
X132645Y116075D01*
X132675Y116023D01*
X132698Y115967D01*
X132756Y115887D01*
X132806Y115802D01*
X132872Y115726D01*
X132884Y115710D01*
X132894Y115702D01*
X132912Y115681D01*
X150681Y97912D01*
X150759Y97852D01*
X150831Y97784D01*
X150884Y97755D01*
X150932Y97718D01*
X151023Y97678D01*
X151110Y97630D01*
X151168Y97615D01*
X151224Y97591D01*
X151322Y97576D01*
X151417Y97551D01*
X151518Y97545D01*
X151538Y97541D01*
X151550Y97543D01*
X151578Y97541D01*
X213422Y97541D01*
X213520Y97553D01*
G37*
%LPC*%
G36*
X476312Y41459D02*
X476312Y41459D01*
X469498Y44282D01*
X464282Y49498D01*
X461459Y56312D01*
X461459Y63688D01*
X464282Y70502D01*
X469498Y75718D01*
X476312Y78541D01*
X483688Y78541D01*
X490502Y75718D01*
X495718Y70502D01*
X498541Y63688D01*
X498541Y56312D01*
X495718Y49498D01*
X490502Y44282D01*
X483688Y41459D01*
X476312Y41459D01*
G37*
%LPD*%
%LPC*%
G36*
X56312Y41459D02*
X56312Y41459D01*
X49498Y44282D01*
X44282Y49498D01*
X41459Y56312D01*
X41459Y63688D01*
X44282Y70502D01*
X49498Y75718D01*
X56312Y78541D01*
X63688Y78541D01*
X70502Y75718D01*
X75718Y70502D01*
X78541Y63688D01*
X78541Y56312D01*
X75718Y49498D01*
X70502Y44282D01*
X63688Y41459D01*
X56312Y41459D01*
G37*
%LPD*%
%LPC*%
G36*
X56312Y461459D02*
X56312Y461459D01*
X49498Y464282D01*
X44282Y469498D01*
X41459Y476312D01*
X41459Y483688D01*
X44282Y490502D01*
X49498Y495718D01*
X56312Y498541D01*
X63688Y498541D01*
X70502Y495718D01*
X75718Y490502D01*
X78541Y483688D01*
X78541Y476312D01*
X75718Y469498D01*
X70502Y464282D01*
X63688Y461459D01*
X56312Y461459D01*
G37*
%LPD*%
%LPC*%
G36*
X476312Y461459D02*
X476312Y461459D01*
X469498Y464282D01*
X464282Y469498D01*
X461459Y476312D01*
X461459Y483688D01*
X464282Y490502D01*
X469498Y495718D01*
X476312Y498541D01*
X483688Y498541D01*
X490502Y495718D01*
X495718Y490502D01*
X498541Y483688D01*
X498541Y476312D01*
X495718Y469498D01*
X490502Y464282D01*
X483688Y461459D01*
X476312Y461459D01*
G37*
%LPD*%
%LPC*%
G36*
X417376Y184397D02*
X417376Y184397D01*
X416985Y184788D01*
X416907Y184848D01*
X416835Y184916D01*
X416782Y184945D01*
X416734Y184982D01*
X416643Y185022D01*
X416557Y185070D01*
X416498Y185085D01*
X416442Y185109D01*
X416344Y185124D01*
X416249Y185149D01*
X416149Y185155D01*
X416128Y185159D01*
X416116Y185157D01*
X416088Y185159D01*
X408948Y185159D01*
X402459Y191648D01*
X402459Y355588D01*
X402447Y355686D01*
X402444Y355785D01*
X402427Y355843D01*
X402419Y355903D01*
X402383Y355995D01*
X402355Y356090D01*
X402325Y356143D01*
X402302Y356199D01*
X402244Y356279D01*
X402194Y356364D01*
X402128Y356440D01*
X402116Y356456D01*
X402106Y356464D01*
X402088Y356485D01*
X400455Y358118D01*
X400455Y361882D01*
X403118Y364545D01*
X406882Y364545D01*
X409545Y361882D01*
X409545Y358118D01*
X407912Y356485D01*
X407852Y356407D01*
X407784Y356335D01*
X407755Y356282D01*
X407718Y356234D01*
X407678Y356143D01*
X407630Y356056D01*
X407615Y355998D01*
X407591Y355942D01*
X407576Y355844D01*
X407551Y355748D01*
X407545Y355648D01*
X407541Y355628D01*
X407543Y355616D01*
X407541Y355588D01*
X407541Y194278D01*
X407553Y194180D01*
X407556Y194081D01*
X407573Y194023D01*
X407581Y193963D01*
X407617Y193871D01*
X407645Y193775D01*
X407675Y193723D01*
X407698Y193667D01*
X407756Y193587D01*
X407806Y193502D01*
X407872Y193426D01*
X407884Y193410D01*
X407894Y193402D01*
X407912Y193381D01*
X410681Y190612D01*
X410759Y190552D01*
X410831Y190484D01*
X410884Y190455D01*
X410932Y190418D01*
X411023Y190378D01*
X411110Y190330D01*
X411168Y190315D01*
X411224Y190291D01*
X411322Y190276D01*
X411417Y190251D01*
X411518Y190245D01*
X411538Y190241D01*
X411550Y190243D01*
X411578Y190241D01*
X416088Y190241D01*
X416186Y190253D01*
X416285Y190256D01*
X416343Y190273D01*
X416403Y190281D01*
X416496Y190317D01*
X416591Y190345D01*
X416643Y190375D01*
X416699Y190398D01*
X416779Y190456D01*
X416865Y190506D01*
X416940Y190572D01*
X416956Y190584D01*
X416964Y190594D01*
X416985Y190612D01*
X417376Y191003D01*
X430620Y191003D01*
X431365Y190258D01*
X431365Y185142D01*
X430620Y184397D01*
X417376Y184397D01*
G37*
%LPD*%
%LPC*%
G36*
X56474Y100229D02*
X56474Y100229D01*
X55724Y100979D01*
X55714Y101054D01*
X55707Y101173D01*
X55694Y101211D01*
X55689Y101252D01*
X55646Y101362D01*
X55609Y101475D01*
X55587Y101510D01*
X55572Y101547D01*
X55503Y101643D01*
X55439Y101744D01*
X55409Y101772D01*
X55386Y101805D01*
X55294Y101881D01*
X55207Y101962D01*
X55172Y101982D01*
X55141Y102007D01*
X55033Y102058D01*
X54929Y102116D01*
X54889Y102126D01*
X54853Y102143D01*
X54736Y102165D01*
X54621Y102195D01*
X54561Y102199D01*
X54541Y102203D01*
X54520Y102201D01*
X54460Y102205D01*
X44158Y102205D01*
X44060Y102193D01*
X43961Y102190D01*
X43903Y102173D01*
X43843Y102165D01*
X43751Y102129D01*
X43656Y102101D01*
X43603Y102071D01*
X43547Y102048D01*
X43467Y101990D01*
X43382Y101940D01*
X43306Y101874D01*
X43290Y101862D01*
X43282Y101852D01*
X43261Y101834D01*
X41882Y100455D01*
X38118Y100455D01*
X35455Y103118D01*
X35455Y106882D01*
X36834Y108261D01*
X36894Y108339D01*
X36962Y108411D01*
X36991Y108464D01*
X37028Y108512D01*
X37068Y108603D01*
X37116Y108690D01*
X37131Y108748D01*
X37155Y108804D01*
X37170Y108902D01*
X37195Y108998D01*
X37201Y109098D01*
X37205Y109118D01*
X37203Y109130D01*
X37205Y109158D01*
X37205Y141158D01*
X43342Y147295D01*
X43972Y147295D01*
X44070Y147307D01*
X44169Y147310D01*
X44227Y147327D01*
X44287Y147335D01*
X44379Y147371D01*
X44475Y147399D01*
X44527Y147429D01*
X44583Y147452D01*
X44663Y147510D01*
X44749Y147560D01*
X44824Y147626D01*
X44840Y147638D01*
X44848Y147648D01*
X44869Y147666D01*
X45974Y148771D01*
X58026Y148771D01*
X58771Y148026D01*
X58771Y140974D01*
X58026Y140229D01*
X45973Y140229D01*
X45881Y140301D01*
X45792Y140380D01*
X45756Y140398D01*
X45724Y140423D01*
X45615Y140470D01*
X45509Y140524D01*
X45469Y140533D01*
X45432Y140549D01*
X45315Y140568D01*
X45198Y140594D01*
X45158Y140593D01*
X45118Y140599D01*
X45000Y140588D01*
X44880Y140584D01*
X44842Y140573D01*
X44801Y140569D01*
X44689Y140529D01*
X44575Y140496D01*
X44540Y140475D01*
X44502Y140462D01*
X44403Y140395D01*
X44301Y140334D01*
X44256Y140294D01*
X44239Y140283D01*
X44225Y140268D01*
X44180Y140228D01*
X43166Y139214D01*
X43106Y139136D01*
X43038Y139064D01*
X43009Y139011D01*
X42972Y138963D01*
X42932Y138872D01*
X42884Y138785D01*
X42869Y138727D01*
X42845Y138671D01*
X42830Y138573D01*
X42805Y138477D01*
X42799Y138377D01*
X42795Y138357D01*
X42797Y138345D01*
X42795Y138317D01*
X42795Y129656D01*
X42812Y129518D01*
X42825Y129380D01*
X42832Y129361D01*
X42835Y129341D01*
X42886Y129211D01*
X42933Y129080D01*
X42944Y129064D01*
X42952Y129045D01*
X43033Y128933D01*
X43111Y128817D01*
X43127Y128804D01*
X43138Y128787D01*
X43246Y128699D01*
X43350Y128607D01*
X43368Y128598D01*
X43383Y128585D01*
X43509Y128525D01*
X43633Y128462D01*
X43653Y128458D01*
X43671Y128449D01*
X43808Y128423D01*
X43943Y128393D01*
X43964Y128393D01*
X43983Y128389D01*
X44122Y128398D01*
X44261Y128402D01*
X44281Y128408D01*
X44301Y128409D01*
X44433Y128452D01*
X44567Y128491D01*
X44584Y128501D01*
X44603Y128507D01*
X44721Y128582D01*
X44841Y128652D01*
X44862Y128671D01*
X44872Y128677D01*
X44886Y128692D01*
X44961Y128759D01*
X45974Y129771D01*
X58026Y129771D01*
X58771Y129026D01*
X58771Y121974D01*
X58026Y121229D01*
X45974Y121229D01*
X44961Y122241D01*
X44852Y122326D01*
X44745Y122415D01*
X44726Y122424D01*
X44710Y122436D01*
X44583Y122492D01*
X44457Y122551D01*
X44437Y122555D01*
X44418Y122563D01*
X44280Y122585D01*
X44144Y122611D01*
X44124Y122609D01*
X44104Y122613D01*
X43965Y122599D01*
X43827Y122591D01*
X43808Y122585D01*
X43788Y122583D01*
X43656Y122536D01*
X43525Y122493D01*
X43507Y122482D01*
X43488Y122475D01*
X43373Y122397D01*
X43256Y122323D01*
X43242Y122308D01*
X43225Y122297D01*
X43133Y122192D01*
X43038Y122091D01*
X43028Y122073D01*
X43015Y122058D01*
X42951Y121934D01*
X42884Y121813D01*
X42879Y121793D01*
X42870Y121775D01*
X42840Y121639D01*
X42805Y121505D01*
X42803Y121477D01*
X42800Y121465D01*
X42801Y121444D01*
X42795Y121344D01*
X42795Y109158D01*
X42807Y109060D01*
X42810Y108961D01*
X42827Y108903D01*
X42835Y108843D01*
X42871Y108751D01*
X42899Y108656D01*
X42929Y108603D01*
X42952Y108547D01*
X43010Y108467D01*
X43060Y108382D01*
X43126Y108306D01*
X43138Y108290D01*
X43148Y108282D01*
X43166Y108261D01*
X43261Y108166D01*
X43339Y108106D01*
X43411Y108038D01*
X43464Y108009D01*
X43512Y107972D01*
X43603Y107932D01*
X43690Y107884D01*
X43748Y107869D01*
X43804Y107845D01*
X43902Y107830D01*
X43998Y107805D01*
X44098Y107799D01*
X44118Y107795D01*
X44130Y107797D01*
X44158Y107795D01*
X54460Y107795D01*
X54578Y107810D01*
X54697Y107817D01*
X54735Y107830D01*
X54776Y107835D01*
X54886Y107878D01*
X54999Y107915D01*
X55034Y107937D01*
X55071Y107952D01*
X55167Y108021D01*
X55268Y108085D01*
X55296Y108115D01*
X55329Y108138D01*
X55405Y108230D01*
X55486Y108317D01*
X55506Y108352D01*
X55531Y108383D01*
X55582Y108491D01*
X55640Y108595D01*
X55650Y108635D01*
X55667Y108671D01*
X55689Y108788D01*
X55719Y108903D01*
X55723Y108963D01*
X55727Y108983D01*
X55726Y108994D01*
X55727Y108998D01*
X55726Y109011D01*
X55727Y109024D01*
X56474Y109771D01*
X63526Y109771D01*
X64103Y109195D01*
X64197Y109122D01*
X64286Y109043D01*
X64322Y109024D01*
X64354Y109000D01*
X64463Y108952D01*
X64569Y108898D01*
X64608Y108889D01*
X64646Y108873D01*
X64763Y108855D01*
X64879Y108829D01*
X64920Y108830D01*
X64960Y108823D01*
X65078Y108835D01*
X65197Y108838D01*
X65236Y108849D01*
X65276Y108853D01*
X65388Y108894D01*
X65503Y108927D01*
X65538Y108947D01*
X65576Y108961D01*
X65674Y109028D01*
X65777Y109088D01*
X65822Y109128D01*
X65839Y109139D01*
X65852Y109155D01*
X65898Y109195D01*
X66474Y109771D01*
X70293Y109771D01*
X70391Y109783D01*
X70490Y109786D01*
X70548Y109803D01*
X70608Y109811D01*
X70700Y109847D01*
X70795Y109875D01*
X70848Y109905D01*
X70904Y109928D01*
X70984Y109986D01*
X71069Y110036D01*
X71145Y110102D01*
X71161Y110114D01*
X71169Y110124D01*
X71190Y110142D01*
X74834Y113786D01*
X74894Y113864D01*
X74962Y113936D01*
X74991Y113989D01*
X75028Y114037D01*
X75068Y114128D01*
X75116Y114215D01*
X75131Y114273D01*
X75155Y114329D01*
X75170Y114427D01*
X75195Y114523D01*
X75201Y114623D01*
X75205Y114643D01*
X75203Y114655D01*
X75205Y114683D01*
X75205Y119960D01*
X75190Y120078D01*
X75183Y120197D01*
X75170Y120235D01*
X75165Y120276D01*
X75122Y120386D01*
X75085Y120499D01*
X75063Y120534D01*
X75048Y120571D01*
X74979Y120667D01*
X74915Y120768D01*
X74885Y120796D01*
X74862Y120829D01*
X74770Y120905D01*
X74683Y120986D01*
X74648Y121006D01*
X74617Y121031D01*
X74509Y121082D01*
X74405Y121140D01*
X74365Y121150D01*
X74329Y121167D01*
X74212Y121189D01*
X74097Y121219D01*
X74037Y121223D01*
X74017Y121227D01*
X73996Y121225D01*
X73936Y121229D01*
X71974Y121229D01*
X71229Y121974D01*
X71229Y129152D01*
X71217Y129250D01*
X71214Y129349D01*
X71197Y129407D01*
X71189Y129467D01*
X71153Y129559D01*
X71125Y129655D01*
X71095Y129707D01*
X71072Y129763D01*
X71014Y129843D01*
X70964Y129929D01*
X70898Y130004D01*
X70886Y130020D01*
X70876Y130028D01*
X70858Y130049D01*
X70467Y130440D01*
X70132Y131019D01*
X69959Y131666D01*
X69959Y133501D01*
X77770Y133501D01*
X77888Y133516D01*
X78007Y133523D01*
X78014Y133525D01*
X78070Y133511D01*
X78130Y133507D01*
X78150Y133503D01*
X78170Y133505D01*
X78230Y133501D01*
X86041Y133501D01*
X86041Y131666D01*
X85868Y131019D01*
X85533Y130440D01*
X85142Y130049D01*
X85082Y129971D01*
X85014Y129899D01*
X84985Y129846D01*
X84948Y129798D01*
X84908Y129707D01*
X84860Y129620D01*
X84845Y129562D01*
X84821Y129506D01*
X84806Y129408D01*
X84781Y129313D01*
X84775Y129213D01*
X84771Y129192D01*
X84773Y129180D01*
X84771Y129152D01*
X84771Y121974D01*
X84026Y121229D01*
X82064Y121229D01*
X81946Y121214D01*
X81827Y121207D01*
X81789Y121194D01*
X81748Y121189D01*
X81638Y121146D01*
X81525Y121109D01*
X81490Y121087D01*
X81453Y121072D01*
X81357Y121003D01*
X81256Y120939D01*
X81228Y120909D01*
X81195Y120886D01*
X81119Y120794D01*
X81038Y120707D01*
X81018Y120672D01*
X80993Y120641D01*
X80942Y120533D01*
X80884Y120429D01*
X80874Y120389D01*
X80857Y120353D01*
X80835Y120236D01*
X80805Y120121D01*
X80801Y120061D01*
X80797Y120041D01*
X80799Y120020D01*
X80795Y119960D01*
X80795Y111842D01*
X74642Y105690D01*
X74582Y105612D01*
X74514Y105540D01*
X74485Y105487D01*
X74448Y105439D01*
X74408Y105348D01*
X74360Y105261D01*
X74345Y105203D01*
X74321Y105147D01*
X74306Y105049D01*
X74281Y104953D01*
X74275Y104853D01*
X74271Y104833D01*
X74273Y104821D01*
X74271Y104793D01*
X74271Y100974D01*
X73526Y100229D01*
X66474Y100229D01*
X65898Y100805D01*
X65804Y100878D01*
X65714Y100957D01*
X65678Y100976D01*
X65646Y101000D01*
X65537Y101048D01*
X65431Y101102D01*
X65392Y101111D01*
X65354Y101127D01*
X65237Y101145D01*
X65121Y101171D01*
X65080Y101170D01*
X65040Y101177D01*
X64922Y101165D01*
X64803Y101162D01*
X64764Y101151D01*
X64724Y101147D01*
X64611Y101106D01*
X64497Y101073D01*
X64463Y101053D01*
X64424Y101039D01*
X64326Y100972D01*
X64223Y100912D01*
X64178Y100872D01*
X64161Y100861D01*
X64148Y100845D01*
X64103Y100805D01*
X63526Y100229D01*
X56474Y100229D01*
G37*
%LPD*%
%LPC*%
G36*
X9974Y171529D02*
X9974Y171529D01*
X9229Y172274D01*
X9229Y192326D01*
X9974Y193071D01*
X30026Y193071D01*
X30771Y192326D01*
X30771Y172274D01*
X30026Y171529D01*
X9974Y171529D01*
G37*
%LPD*%
%LPC*%
G36*
X9974Y196929D02*
X9974Y196929D01*
X9229Y197674D01*
X9229Y217726D01*
X9974Y218471D01*
X30026Y218471D01*
X30771Y217726D01*
X30771Y197674D01*
X30026Y196929D01*
X9974Y196929D01*
G37*
%LPD*%
%LPC*%
G36*
X383178Y114431D02*
X383178Y114431D01*
X379257Y116055D01*
X376255Y119057D01*
X374631Y122978D01*
X374631Y127222D01*
X376255Y131143D01*
X379257Y134145D01*
X383178Y135769D01*
X387422Y135769D01*
X391343Y134145D01*
X394345Y131143D01*
X395969Y127222D01*
X395969Y122978D01*
X394345Y119057D01*
X391343Y116055D01*
X387422Y114431D01*
X383178Y114431D01*
G37*
%LPD*%
%LPC*%
G36*
X9724Y384729D02*
X9724Y384729D01*
X8979Y385474D01*
X8979Y398526D01*
X9724Y399271D01*
X30776Y399271D01*
X31521Y398526D01*
X31521Y385474D01*
X30776Y384729D01*
X9724Y384729D01*
G37*
%LPD*%
%LPC*%
G36*
X9724Y440729D02*
X9724Y440729D01*
X8979Y441474D01*
X8979Y454526D01*
X9724Y455271D01*
X30776Y455271D01*
X31521Y454526D01*
X31521Y441474D01*
X30776Y440729D01*
X9724Y440729D01*
G37*
%LPD*%
%LPC*%
G36*
X509224Y384729D02*
X509224Y384729D01*
X508479Y385474D01*
X508479Y398526D01*
X509224Y399271D01*
X530276Y399271D01*
X531021Y398526D01*
X531021Y385474D01*
X530276Y384729D01*
X509224Y384729D01*
G37*
%LPD*%
%LPC*%
G36*
X509224Y440729D02*
X509224Y440729D01*
X508479Y441474D01*
X508479Y454526D01*
X509224Y455271D01*
X530276Y455271D01*
X531021Y454526D01*
X531021Y441474D01*
X530276Y440729D01*
X509224Y440729D01*
G37*
%LPD*%
%LPC*%
G36*
X329474Y106729D02*
X329474Y106729D01*
X328729Y107474D01*
X328729Y119526D01*
X329474Y120271D01*
X331190Y120271D01*
X331308Y120286D01*
X331427Y120293D01*
X331465Y120306D01*
X331506Y120311D01*
X331616Y120354D01*
X331729Y120391D01*
X331764Y120413D01*
X331801Y120428D01*
X331897Y120497D01*
X331998Y120561D01*
X332026Y120591D01*
X332059Y120614D01*
X332135Y120706D01*
X332216Y120793D01*
X332236Y120828D01*
X332261Y120859D01*
X332312Y120967D01*
X332370Y121071D01*
X332380Y121111D01*
X332397Y121147D01*
X332419Y121264D01*
X332449Y121379D01*
X332453Y121439D01*
X332457Y121459D01*
X332455Y121480D01*
X332459Y121540D01*
X332459Y125588D01*
X332447Y125686D01*
X332444Y125785D01*
X332437Y125807D01*
X332437Y125816D01*
X332426Y125848D01*
X332419Y125903D01*
X332383Y125995D01*
X332355Y126090D01*
X332325Y126143D01*
X332302Y126199D01*
X332244Y126279D01*
X332194Y126364D01*
X332128Y126440D01*
X332116Y126456D01*
X332106Y126464D01*
X332088Y126485D01*
X330455Y128118D01*
X330455Y131882D01*
X333118Y134545D01*
X336882Y134545D01*
X339545Y131882D01*
X339545Y128118D01*
X337912Y126485D01*
X337852Y126407D01*
X337784Y126335D01*
X337755Y126282D01*
X337718Y126234D01*
X337678Y126143D01*
X337630Y126056D01*
X337615Y125998D01*
X337614Y125995D01*
X337603Y125972D01*
X337602Y125968D01*
X337591Y125942D01*
X337576Y125844D01*
X337551Y125748D01*
X337546Y125675D01*
X337543Y125659D01*
X337544Y125646D01*
X337541Y125628D01*
X337543Y125616D01*
X337541Y125588D01*
X337541Y121540D01*
X337556Y121422D01*
X337563Y121303D01*
X337576Y121265D01*
X337581Y121224D01*
X337624Y121114D01*
X337661Y121001D01*
X337683Y120966D01*
X337698Y120929D01*
X337767Y120833D01*
X337831Y120732D01*
X337861Y120704D01*
X337884Y120671D01*
X337976Y120595D01*
X338063Y120514D01*
X338098Y120494D01*
X338129Y120469D01*
X338237Y120418D01*
X338341Y120360D01*
X338381Y120350D01*
X338417Y120333D01*
X338534Y120311D01*
X338649Y120281D01*
X338709Y120277D01*
X338729Y120273D01*
X338750Y120275D01*
X338810Y120271D01*
X340526Y120271D01*
X341271Y119526D01*
X341271Y107474D01*
X340526Y106729D01*
X329474Y106729D01*
G37*
%LPD*%
%LPC*%
G36*
X449380Y158997D02*
X449380Y158997D01*
X448635Y159742D01*
X448635Y164858D01*
X449380Y165603D01*
X462624Y165603D01*
X463369Y164858D01*
X463369Y159742D01*
X462624Y158997D01*
X449380Y158997D01*
G37*
%LPD*%
%LPC*%
G36*
X417376Y158997D02*
X417376Y158997D01*
X416631Y159742D01*
X416631Y164858D01*
X417376Y165603D01*
X430620Y165603D01*
X431365Y164858D01*
X431365Y159742D01*
X430620Y158997D01*
X417376Y158997D01*
G37*
%LPD*%
%LPC*%
G36*
X22539Y157539D02*
X22539Y157539D01*
X22539Y166541D01*
X29834Y166541D01*
X30481Y166368D01*
X31060Y166033D01*
X31533Y165560D01*
X31868Y164981D01*
X32041Y164334D01*
X32041Y157539D01*
X22539Y157539D01*
G37*
%LPD*%
%LPC*%
G36*
X22539Y237539D02*
X22539Y237539D01*
X22539Y246541D01*
X29834Y246541D01*
X30481Y246368D01*
X31060Y246033D01*
X31533Y245560D01*
X31868Y244981D01*
X32041Y244334D01*
X32041Y237539D01*
X22539Y237539D01*
G37*
%LPD*%
%LPC*%
G36*
X7959Y157539D02*
X7959Y157539D01*
X7959Y164334D01*
X8132Y164981D01*
X8467Y165560D01*
X8940Y166033D01*
X9519Y166368D01*
X10166Y166541D01*
X17461Y166541D01*
X17461Y157539D01*
X7959Y157539D01*
G37*
%LPD*%
%LPC*%
G36*
X7959Y237539D02*
X7959Y237539D01*
X7959Y244334D01*
X8132Y244981D01*
X8467Y245560D01*
X8940Y246033D01*
X9519Y246368D01*
X10166Y246541D01*
X17461Y246541D01*
X17461Y237539D01*
X7959Y237539D01*
G37*
%LPD*%
%LPC*%
G36*
X22539Y223459D02*
X22539Y223459D01*
X22539Y232461D01*
X32041Y232461D01*
X32041Y225666D01*
X31868Y225019D01*
X31533Y224440D01*
X31060Y223967D01*
X30481Y223632D01*
X29834Y223459D01*
X22539Y223459D01*
G37*
%LPD*%
%LPC*%
G36*
X22539Y143459D02*
X22539Y143459D01*
X22539Y152461D01*
X32041Y152461D01*
X32041Y145666D01*
X31868Y145019D01*
X31533Y144440D01*
X31060Y143967D01*
X30481Y143632D01*
X29834Y143459D01*
X22539Y143459D01*
G37*
%LPD*%
%LPC*%
G36*
X10166Y223459D02*
X10166Y223459D01*
X9519Y223632D01*
X8940Y223967D01*
X8467Y224440D01*
X8132Y225019D01*
X7959Y225666D01*
X7959Y232461D01*
X17461Y232461D01*
X17461Y223459D01*
X10166Y223459D01*
G37*
%LPD*%
%LPC*%
G36*
X10166Y143459D02*
X10166Y143459D01*
X9519Y143632D01*
X8940Y143967D01*
X8467Y144440D01*
X8132Y145019D01*
X7959Y145666D01*
X7959Y152461D01*
X17461Y152461D01*
X17461Y143459D01*
X10166Y143459D01*
G37*
%LPD*%
%LPC*%
G36*
X114439Y40839D02*
X114439Y40839D01*
X114439Y49985D01*
X114696Y49945D01*
X116483Y49364D01*
X118157Y48511D01*
X119678Y47406D01*
X121006Y46078D01*
X122111Y44557D01*
X122964Y42883D01*
X123545Y41096D01*
X123585Y40839D01*
X114439Y40839D01*
G37*
%LPD*%
%LPC*%
G36*
X413239Y127639D02*
X413239Y127639D01*
X413239Y136785D01*
X413496Y136745D01*
X415283Y136164D01*
X416957Y135311D01*
X418478Y134206D01*
X419806Y132878D01*
X420911Y131357D01*
X421764Y129683D01*
X422345Y127896D01*
X422385Y127639D01*
X413239Y127639D01*
G37*
%LPD*%
%LPC*%
G36*
X399015Y127639D02*
X399015Y127639D01*
X399055Y127896D01*
X399636Y129683D01*
X400489Y131357D01*
X401594Y132878D01*
X402922Y134206D01*
X404443Y135311D01*
X406117Y136164D01*
X407904Y136745D01*
X408161Y136785D01*
X408161Y127639D01*
X399015Y127639D01*
G37*
%LPD*%
%LPC*%
G36*
X413239Y122561D02*
X413239Y122561D01*
X422385Y122561D01*
X422345Y122304D01*
X421764Y120517D01*
X420911Y118843D01*
X419806Y117322D01*
X418478Y115994D01*
X416957Y114889D01*
X415283Y114036D01*
X413496Y113455D01*
X413239Y113415D01*
X413239Y122561D01*
G37*
%LPD*%
%LPC*%
G36*
X100215Y40839D02*
X100215Y40839D01*
X100255Y41096D01*
X100836Y42883D01*
X101689Y44557D01*
X102794Y46078D01*
X104122Y47406D01*
X105643Y48511D01*
X107317Y49364D01*
X109104Y49945D01*
X109361Y49985D01*
X109361Y40839D01*
X100215Y40839D01*
G37*
%LPD*%
%LPC*%
G36*
X114439Y35761D02*
X114439Y35761D01*
X123585Y35761D01*
X123545Y35504D01*
X122964Y33717D01*
X122111Y32043D01*
X121006Y30522D01*
X119678Y29194D01*
X118157Y28089D01*
X116483Y27236D01*
X114696Y26655D01*
X114439Y26615D01*
X114439Y35761D01*
G37*
%LPD*%
%LPC*%
G36*
X109104Y26655D02*
X109104Y26655D01*
X107317Y27236D01*
X105643Y28089D01*
X104122Y29194D01*
X102794Y30522D01*
X101689Y32043D01*
X100836Y33717D01*
X100255Y35504D01*
X100215Y35761D01*
X109361Y35761D01*
X109361Y26615D01*
X109104Y26655D01*
G37*
%LPD*%
%LPC*%
G36*
X407904Y113455D02*
X407904Y113455D01*
X406117Y114036D01*
X404443Y114889D01*
X402922Y115994D01*
X401594Y117322D01*
X400489Y118843D01*
X399636Y120517D01*
X399055Y122304D01*
X399015Y122561D01*
X408161Y122561D01*
X408161Y113415D01*
X407904Y113455D01*
G37*
%LPD*%
%LPC*%
G36*
X318569Y167619D02*
X318569Y167619D01*
X318569Y173786D01*
X319500Y173601D01*
X320872Y173033D01*
X322107Y172207D01*
X322753Y171562D01*
X322847Y171489D01*
X322936Y171410D01*
X322972Y171392D01*
X323004Y171367D01*
X323113Y171319D01*
X323219Y171265D01*
X323258Y171257D01*
X323296Y171240D01*
X323413Y171222D01*
X323529Y171196D01*
X323570Y171197D01*
X323610Y171191D01*
X323728Y171202D01*
X323847Y171205D01*
X323886Y171217D01*
X323926Y171220D01*
X324038Y171261D01*
X324153Y171294D01*
X324188Y171314D01*
X324226Y171328D01*
X324324Y171395D01*
X324427Y171455D01*
X324472Y171495D01*
X324489Y171507D01*
X324502Y171522D01*
X324548Y171562D01*
X325193Y172207D01*
X326428Y173033D01*
X327800Y173601D01*
X328731Y173786D01*
X328731Y167619D01*
X318569Y167619D01*
G37*
%LPD*%
%LPC*%
G36*
X484499Y399459D02*
X484499Y399459D01*
X484499Y403501D01*
X492291Y403501D01*
X492291Y401666D01*
X492118Y401019D01*
X491783Y400440D01*
X491310Y399967D01*
X490731Y399632D01*
X490084Y399459D01*
X484499Y399459D01*
G37*
%LPD*%
%LPC*%
G36*
X58499Y399459D02*
X58499Y399459D01*
X58499Y403501D01*
X66291Y403501D01*
X66291Y401666D01*
X66118Y401019D01*
X65783Y400440D01*
X65310Y399967D01*
X64731Y399632D01*
X64084Y399459D01*
X58499Y399459D01*
G37*
%LPD*%
%LPC*%
G36*
X475916Y399459D02*
X475916Y399459D01*
X475269Y399632D01*
X474690Y399967D01*
X474217Y400440D01*
X473882Y401019D01*
X473709Y401666D01*
X473709Y403501D01*
X481501Y403501D01*
X481501Y399459D01*
X475916Y399459D01*
G37*
%LPD*%
%LPC*%
G36*
X49916Y399459D02*
X49916Y399459D01*
X49269Y399632D01*
X48690Y399967D01*
X48217Y400440D01*
X47882Y401019D01*
X47709Y401666D01*
X47709Y403501D01*
X55501Y403501D01*
X55501Y399459D01*
X49916Y399459D01*
G37*
%LPD*%
%LPC*%
G36*
X356669Y167619D02*
X356669Y167619D01*
X356669Y173786D01*
X357600Y173601D01*
X358972Y173033D01*
X360207Y172207D01*
X361257Y171157D01*
X362083Y169922D01*
X362651Y168550D01*
X362836Y167619D01*
X356669Y167619D01*
G37*
%LPD*%
%LPC*%
G36*
X242749Y170249D02*
X242749Y170249D01*
X242749Y175541D01*
X245334Y175541D01*
X245981Y175368D01*
X246560Y175033D01*
X247033Y174560D01*
X247368Y173981D01*
X247541Y173334D01*
X247541Y170249D01*
X242749Y170249D01*
G37*
%LPD*%
%LPC*%
G36*
X201749Y170249D02*
X201749Y170249D01*
X201749Y175541D01*
X204334Y175541D01*
X204981Y175368D01*
X205560Y175033D01*
X206033Y174560D01*
X206368Y173981D01*
X206541Y173334D01*
X206541Y170249D01*
X201749Y170249D01*
G37*
%LPD*%
%LPC*%
G36*
X233459Y170249D02*
X233459Y170249D01*
X233459Y173334D01*
X233632Y173981D01*
X233967Y174560D01*
X234440Y175033D01*
X235019Y175368D01*
X235666Y175541D01*
X238251Y175541D01*
X238251Y170249D01*
X233459Y170249D01*
G37*
%LPD*%
%LPC*%
G36*
X192459Y170249D02*
X192459Y170249D01*
X192459Y173334D01*
X192632Y173981D01*
X192967Y174560D01*
X193440Y175033D01*
X194019Y175368D01*
X194666Y175541D01*
X197251Y175541D01*
X197251Y170249D01*
X192459Y170249D01*
G37*
%LPD*%
%LPC*%
G36*
X47769Y209269D02*
X47769Y209269D01*
X47769Y212291D01*
X53834Y212291D01*
X54481Y212118D01*
X55060Y211783D01*
X55533Y211310D01*
X55868Y210731D01*
X56041Y210084D01*
X56041Y209269D01*
X47769Y209269D01*
G37*
%LPD*%
%LPC*%
G36*
X36959Y209269D02*
X36959Y209269D01*
X36959Y210084D01*
X37132Y210731D01*
X37467Y211310D01*
X37940Y211783D01*
X38519Y212118D01*
X39166Y212291D01*
X45231Y212291D01*
X45231Y209269D01*
X36959Y209269D01*
G37*
%LPD*%
%LPC*%
G36*
X457271Y188969D02*
X457271Y188969D01*
X457271Y192273D01*
X462432Y192273D01*
X463079Y192100D01*
X463658Y191765D01*
X464131Y191292D01*
X464466Y190713D01*
X464639Y190066D01*
X464639Y188969D01*
X457271Y188969D01*
G37*
%LPD*%
%LPC*%
G36*
X425267Y176269D02*
X425267Y176269D01*
X425267Y179573D01*
X430428Y179573D01*
X431075Y179400D01*
X431654Y179065D01*
X432127Y178592D01*
X432462Y178013D01*
X432635Y177366D01*
X432635Y176269D01*
X425267Y176269D01*
G37*
%LPD*%
%LPC*%
G36*
X415361Y176269D02*
X415361Y176269D01*
X415361Y177366D01*
X415534Y178013D01*
X415869Y178592D01*
X416342Y179065D01*
X416921Y179400D01*
X417568Y179573D01*
X422729Y179573D01*
X422729Y176269D01*
X415361Y176269D01*
G37*
%LPD*%
%LPC*%
G36*
X447365Y188969D02*
X447365Y188969D01*
X447365Y190066D01*
X447538Y190713D01*
X447873Y191292D01*
X448346Y191765D01*
X448925Y192100D01*
X449572Y192273D01*
X454733Y192273D01*
X454733Y188969D01*
X447365Y188969D01*
G37*
%LPD*%
%LPC*%
G36*
X457271Y183127D02*
X457271Y183127D01*
X457271Y186431D01*
X464639Y186431D01*
X464639Y185334D01*
X464466Y184687D01*
X464131Y184108D01*
X463658Y183635D01*
X463079Y183300D01*
X462432Y183127D01*
X457271Y183127D01*
G37*
%LPD*%
%LPC*%
G36*
X425267Y170427D02*
X425267Y170427D01*
X425267Y173731D01*
X432635Y173731D01*
X432635Y172634D01*
X432462Y171987D01*
X432127Y171408D01*
X431654Y170935D01*
X431075Y170600D01*
X430428Y170427D01*
X425267Y170427D01*
G37*
%LPD*%
%LPC*%
G36*
X417568Y170427D02*
X417568Y170427D01*
X416921Y170600D01*
X416342Y170935D01*
X415869Y171408D01*
X415534Y171987D01*
X415361Y172634D01*
X415361Y173731D01*
X422729Y173731D01*
X422729Y170427D01*
X417568Y170427D01*
G37*
%LPD*%
%LPC*%
G36*
X449572Y183127D02*
X449572Y183127D01*
X448925Y183300D01*
X448346Y183635D01*
X447873Y184108D01*
X447538Y184687D01*
X447365Y185334D01*
X447365Y186431D01*
X454733Y186431D01*
X454733Y183127D01*
X449572Y183127D01*
G37*
%LPD*%
%LPC*%
G36*
X356399Y109749D02*
X356399Y109749D01*
X356399Y114041D01*
X359484Y114041D01*
X360131Y113868D01*
X360710Y113533D01*
X361183Y113060D01*
X361518Y112481D01*
X361691Y111834D01*
X361691Y109749D01*
X356399Y109749D01*
G37*
%LPD*%
%LPC*%
G36*
X260959Y172399D02*
X260959Y172399D01*
X260959Y175484D01*
X261132Y176131D01*
X261467Y176710D01*
X261940Y177183D01*
X262519Y177518D01*
X263166Y177691D01*
X265251Y177691D01*
X265251Y172399D01*
X260959Y172399D01*
G37*
%LPD*%
%LPC*%
G36*
X204749Y109309D02*
X204749Y109309D01*
X204749Y114601D01*
X209041Y114601D01*
X209041Y111516D01*
X208868Y110869D01*
X208533Y110290D01*
X208060Y109817D01*
X207481Y109482D01*
X206834Y109309D01*
X204749Y109309D01*
G37*
%LPD*%
%LPC*%
G36*
X347609Y109749D02*
X347609Y109749D01*
X347609Y111834D01*
X347782Y112481D01*
X348117Y113060D01*
X348590Y113533D01*
X349169Y113868D01*
X349816Y114041D01*
X352901Y114041D01*
X352901Y109749D01*
X347609Y109749D01*
G37*
%LPD*%
%LPC*%
G36*
X263166Y163609D02*
X263166Y163609D01*
X262519Y163782D01*
X261940Y164117D01*
X261467Y164590D01*
X261132Y165169D01*
X260959Y165816D01*
X260959Y168901D01*
X265251Y168901D01*
X265251Y163609D01*
X263166Y163609D01*
G37*
%LPD*%
%LPC*%
G36*
X111899Y38299D02*
X111899Y38299D01*
X111899Y38301D01*
X111901Y38301D01*
X111901Y38299D01*
X111899Y38299D01*
G37*
%LPD*%
%LPC*%
G36*
X410699Y125099D02*
X410699Y125099D01*
X410699Y125101D01*
X410701Y125101D01*
X410701Y125099D01*
X410699Y125099D01*
G37*
%LPD*%
%LPC*%
G36*
X19999Y154999D02*
X19999Y154999D01*
X19999Y155001D01*
X20001Y155001D01*
X20001Y154999D01*
X19999Y154999D01*
G37*
%LPD*%
%LPC*%
G36*
X19999Y234999D02*
X19999Y234999D01*
X19999Y235001D01*
X20001Y235001D01*
X20001Y234999D01*
X19999Y234999D01*
G37*
%LPD*%
D10*
X92520Y378500D02*
X142680Y378500D01*
D11*
X342020Y477400D02*
X401180Y477400D01*
D12*
X20250Y392000D03*
X20250Y448000D03*
D13*
X57000Y405000D03*
X57000Y415000D03*
X57000Y425000D03*
X57000Y435000D03*
D12*
X519750Y448000D03*
X519750Y392000D03*
D13*
X483000Y435000D03*
X483000Y425000D03*
X483000Y415000D03*
X483000Y405000D03*
D14*
X46500Y182000D03*
X46500Y208000D03*
X46500Y188500D03*
X46500Y195000D03*
X46500Y201500D03*
D15*
X20000Y155000D03*
X20000Y235000D03*
D16*
X20000Y182300D03*
X20000Y207700D03*
D17*
X456002Y187700D03*
X456002Y175000D03*
X456002Y162300D03*
X423998Y162300D03*
X423998Y175000D03*
X423998Y187700D03*
D18*
X270000Y90000D03*
D19*
X304000Y117500D03*
X304000Y112500D03*
X304000Y107500D03*
X304000Y102500D03*
X304000Y97500D03*
X304000Y92500D03*
X304000Y87500D03*
X304000Y82500D03*
X304000Y77500D03*
X304000Y72500D03*
X304000Y67500D03*
X304000Y62500D03*
D20*
X297500Y56000D03*
X292500Y56000D03*
X287500Y56000D03*
X282500Y56000D03*
X277500Y56000D03*
X272500Y56000D03*
X267500Y56000D03*
X262500Y56000D03*
X257500Y56000D03*
X252500Y56000D03*
X247500Y56000D03*
X242500Y56000D03*
D19*
X236000Y62500D03*
X236000Y67500D03*
X236000Y72500D03*
X236000Y77500D03*
X236000Y82500D03*
X236000Y87500D03*
X236000Y92500D03*
X236000Y97500D03*
X236000Y102500D03*
X236000Y107500D03*
X236000Y112500D03*
X236000Y117500D03*
D20*
X242500Y124000D03*
X247500Y124000D03*
X252500Y124000D03*
X257500Y124000D03*
X262500Y124000D03*
X267500Y124000D03*
X272500Y124000D03*
X277500Y124000D03*
X282500Y124000D03*
X287500Y124000D03*
X292500Y124000D03*
X297500Y124000D03*
D21*
X215000Y135000D03*
X225000Y135000D03*
D22*
X272500Y141000D03*
X259500Y141000D03*
X280000Y170650D03*
X267000Y170650D03*
D23*
X354650Y95000D03*
X354650Y108000D03*
D22*
X190000Y116350D03*
X203000Y116350D03*
D24*
X335000Y113500D03*
X335000Y96500D03*
D25*
X342700Y153650D03*
X330000Y153650D03*
X317300Y153650D03*
X304600Y153650D03*
X355400Y153650D03*
X342700Y166350D03*
X330000Y166350D03*
X317300Y166350D03*
X304600Y166350D03*
X355400Y166350D03*
D26*
X240500Y152000D03*
X240500Y168000D03*
X199500Y168000D03*
X199500Y152000D03*
D27*
X320000Y20000D03*
X320000Y30000D03*
D28*
X117500Y201500D03*
X117500Y192000D03*
X117500Y182500D03*
X94500Y182500D03*
X94500Y192000D03*
X94500Y201500D03*
D29*
X115000Y134000D03*
X115000Y106000D03*
D30*
X78000Y144500D03*
X78000Y135000D03*
X78000Y125500D03*
X52000Y125500D03*
X52000Y144500D03*
D21*
X70000Y105000D03*
X60000Y105000D03*
D31*
X385300Y125100D03*
X410700Y125100D03*
X385300Y99700D03*
X410700Y99700D03*
X385300Y74300D03*
X410700Y74300D03*
X385300Y48900D03*
X410700Y48900D03*
X111900Y38300D03*
X111900Y63700D03*
X137300Y38300D03*
X137300Y63700D03*
X162700Y38300D03*
X162700Y63700D03*
X188100Y38300D03*
X188100Y63700D03*
D32*
X199500Y168000D02*
X240500Y168000D01*
X236000Y112500D02*
X212500Y112500D01*
X210000Y110000D01*
X201852Y110000D01*
X203000Y111350D01*
D33*
X415000Y265000D03*
X50000Y265000D03*
X106000Y192000D03*
X151000Y192000D03*
D32*
X292500Y56000D02*
X292500Y42500D01*
X315000Y20000D01*
X320000Y20000D01*
X420000Y425000D02*
X483000Y425000D01*
X420000Y425000D02*
X57000Y425000D01*
X395000Y400000D02*
X420000Y425000D01*
X395000Y160000D02*
X405000Y150000D01*
X435000Y150000D01*
X440000Y155000D01*
X440000Y170000D01*
X445000Y175000D01*
X456002Y175000D01*
X395000Y160000D02*
X395000Y400000D01*
X429430Y19430D02*
X320570Y19430D01*
X320000Y20000D01*
X429430Y19430D02*
X445000Y35000D01*
X445000Y150000D02*
X440000Y155000D01*
X445000Y150000D02*
X445000Y35000D01*
X215000Y136500D02*
X200750Y150750D01*
X215000Y136500D02*
X215000Y135000D01*
X200750Y150750D02*
X239250Y150750D01*
X257544Y127657D02*
X257544Y124044D01*
X257500Y124000D01*
X257544Y127657D02*
X254907Y130294D01*
X251206Y130294D01*
X240500Y141000D01*
D33*
X252000Y152000D03*
D32*
X240500Y152000D02*
X240500Y141000D01*
X240500Y152000D02*
X252000Y152000D01*
X240500Y152000D02*
X239250Y150750D01*
X200750Y150750D02*
X199500Y152000D01*
X227500Y117500D02*
X236000Y117500D01*
X227500Y117500D02*
X225000Y120000D01*
X225000Y135000D01*
X198650Y125000D02*
X190000Y116350D01*
D33*
X320000Y40000D03*
X280000Y45000D03*
D32*
X277500Y47500D02*
X277500Y56000D01*
X277500Y47500D02*
X280000Y45000D01*
D33*
X180000Y115000D03*
D32*
X181350Y116350D01*
X190000Y116350D01*
X198650Y125000D02*
X220000Y125000D01*
X225000Y120000D01*
X320000Y40000D02*
X320000Y30000D01*
X277500Y124000D02*
X277500Y134049D01*
X278794Y135343D01*
X278794Y169444D02*
X280000Y170650D01*
X278794Y169444D02*
X278794Y159444D01*
X278794Y135343D01*
X272500Y141000D02*
X272500Y124000D01*
X280000Y170650D02*
X300300Y170650D01*
X304600Y166350D01*
X272500Y153150D02*
X272500Y141000D01*
X272500Y153150D02*
X278794Y159444D01*
D33*
X40000Y105000D03*
D34*
X60000Y105000D01*
X52000Y144500D02*
X44500Y144500D01*
X40000Y140000D01*
X40000Y105000D01*
D33*
X335000Y130000D03*
D32*
X335000Y113500D01*
X329549Y92500D02*
X304000Y92500D01*
X329549Y92500D02*
X334843Y97794D01*
X335706Y97794D01*
X335395Y96895D01*
X335000Y96500D01*
X336500Y95000D01*
X354650Y95000D01*
X282500Y124000D02*
X282500Y133301D01*
X282858Y133659D01*
X282858Y137858D01*
X290000Y145000D01*
D33*
X290000Y145000D03*
D32*
X287500Y127701D02*
X287500Y124000D01*
X304600Y144801D02*
X304600Y153650D01*
X304600Y144801D02*
X287500Y127701D01*
X287500Y56000D02*
X287500Y27500D01*
X280000Y20000D01*
D33*
X280000Y20000D03*
X80000Y415000D03*
D32*
X57000Y415000D01*
X410000Y187700D02*
X423998Y187700D01*
X367500Y378500D02*
X117600Y378500D01*
X369000Y380000D02*
X375000Y380000D01*
D33*
X375000Y380000D03*
X405000Y360000D03*
D32*
X405000Y192700D01*
X410000Y187700D01*
X367500Y378500D02*
X369000Y380000D01*
D33*
X455000Y415000D03*
D32*
X483000Y415000D01*
D34*
X115000Y106000D02*
X112000Y103000D01*
X68000Y182000D02*
X46500Y182000D01*
X68000Y182000D02*
X80000Y170000D01*
X80000Y146500D01*
X95500Y144500D02*
X100000Y140000D01*
X100000Y75400D01*
X95500Y144500D02*
X78000Y144500D01*
X80000Y146500D01*
X100000Y75400D02*
X111700Y63700D01*
X111900Y63700D01*
X111900Y100000D01*
X111900Y102900D02*
X115000Y106000D01*
X111900Y102900D02*
X111900Y100000D01*
D32*
X222500Y102500D02*
X236000Y102500D01*
X222500Y102500D02*
X215000Y95000D01*
D34*
X83500Y188500D02*
X46500Y188500D01*
X89500Y182500D02*
X94500Y182500D01*
X89500Y182500D02*
X83500Y188500D01*
D32*
X150000Y95000D02*
X215000Y95000D01*
X150000Y95000D02*
X130000Y115000D01*
X102500Y182500D02*
X94500Y182500D01*
X102500Y182500D02*
X110000Y175000D01*
X125000Y175000D02*
X130000Y170000D01*
X125000Y175000D02*
X110000Y175000D01*
X130000Y170000D02*
X130000Y115000D01*
X218247Y107500D02*
X236000Y107500D01*
X218247Y107500D02*
X214171Y103424D01*
D34*
X83000Y195000D02*
X46500Y195000D01*
X89500Y201500D02*
X94500Y201500D01*
X89500Y201500D02*
X83000Y195000D01*
D32*
X156576Y103424D02*
X214171Y103424D01*
X140000Y120000D02*
X140000Y200000D01*
X130000Y210000D01*
X103000Y210000D02*
X94500Y201500D01*
X140000Y120000D02*
X156576Y103424D01*
X130000Y210000D02*
X103000Y210000D01*
D33*
X419811Y435189D03*
D34*
X483000Y435189D01*
X145000Y435000D02*
X57000Y435000D01*
X145000Y435000D02*
X419623Y435000D01*
D32*
X419811Y435189D01*
D34*
X483000Y435000D02*
X483000Y435189D01*
D33*
X145000Y435000D03*
D34*
X115000Y150000D02*
X115000Y134000D01*
D33*
X115000Y150000D03*
D34*
X78000Y113000D02*
X70000Y105000D01*
X78000Y113000D02*
X78000Y125500D01*
D32*
X262500Y56000D02*
X262500Y23247D01*
X254747Y15494D01*
X143314Y15494D01*
X135000Y23808D01*
X135000Y35600D01*
D34*
X135000Y36000D02*
X137300Y38300D01*
X135000Y36000D02*
X135000Y35600D01*
D32*
X257500Y27500D02*
X257500Y56000D01*
X257500Y27500D02*
X250000Y20000D01*
X165000Y20000D01*
X161192Y23808D01*
X161192Y36392D01*
D34*
X161192Y36792D02*
X162700Y38300D01*
X161192Y36792D02*
X161192Y36392D01*
D32*
X252500Y30000D02*
X252500Y56000D01*
X252500Y30000D02*
X247500Y25000D01*
X200000Y25000D01*
X188200Y36800D01*
D34*
X188200Y38200D02*
X188100Y38300D01*
X188200Y38200D02*
X188200Y36800D01*
D32*
X225490Y82500D02*
X236000Y82500D01*
X225490Y82500D02*
X221734Y78744D01*
X188744Y78744D02*
X185000Y75000D01*
X188744Y78744D02*
X221734Y78744D01*
X185000Y75000D02*
X185000Y66600D01*
D34*
X185200Y66600D02*
X188100Y63700D01*
X185200Y66600D02*
X185000Y66600D01*
D32*
X224742Y87500D02*
X236000Y87500D01*
X224742Y87500D02*
X220050Y82808D01*
X162808Y82808D02*
X160000Y80000D01*
X162808Y82808D02*
X220050Y82808D01*
X160000Y80000D02*
X160000Y66200D01*
D34*
X160200Y66200D02*
X162700Y63700D01*
X160200Y66200D02*
X160000Y66200D01*
D32*
X223995Y92500D02*
X236000Y92500D01*
X223995Y92500D02*
X218367Y86872D01*
X141872Y86872D02*
X135000Y80000D01*
X141872Y86872D02*
X218367Y86872D01*
X135000Y80000D02*
X135000Y65800D01*
D34*
X135200Y65800D02*
X137300Y63700D01*
X135200Y65800D02*
X135000Y65800D01*
D32*
X304000Y87500D02*
X312500Y87500D01*
X322794Y77206D01*
X362806Y77206D02*
X385300Y99700D01*
X362806Y77206D02*
X322794Y77206D01*
X311753Y82500D02*
X304000Y82500D01*
X311753Y82500D02*
X321111Y73142D01*
X384142Y73142D02*
X385300Y74300D01*
X384142Y73142D02*
X321111Y73142D01*
X311005Y77500D02*
X304000Y77500D01*
X339605Y48900D02*
X385300Y48900D01*
X339605Y48900D02*
X311005Y77500D01*
X310258Y72500D02*
X304000Y72500D01*
X310258Y72500D02*
X349835Y32923D01*
X394723Y32923D01*
X410700Y48900D01*
X309511Y67500D02*
X304000Y67500D01*
X309511Y67500D02*
X348152Y28859D01*
X418859Y28859D01*
X427000Y37000D01*
X427000Y68000D01*
X420000Y75000D01*
X411400Y75000D02*
X410700Y74300D01*
X411400Y75000D02*
X420000Y75000D01*
X346469Y24795D02*
X308763Y62500D01*
X304000Y62500D01*
X424795Y24795D02*
X436000Y36000D01*
X436000Y89000D01*
X425000Y100000D01*
X424795Y24795D02*
X346469Y24795D01*
X411000Y100000D02*
X425000Y100000D01*
X411000Y100000D02*
X410700Y99700D01*
M02*
