G04 EAGLE Gerber RS-274X export*
G75*
%MOMM*%
%FSLAX34Y34*%
%LPD*%
%INSilkscreen Top*%
%IPPOS*%
%AMOC8*
5,1,8,0,0,1.08239X$1,22.5*%
G01*
%ADD10C,0.152400*%
%ADD11C,0.127000*%
%ADD12C,0.203200*%
%ADD13C,0.406400*%


D10*
X10982Y385568D02*
X27238Y385568D01*
X27238Y383762D02*
X27238Y387374D01*
X10982Y387374D02*
X10982Y383762D01*
X10982Y394079D02*
X27238Y394079D01*
X27238Y403110D02*
X10982Y394079D01*
X10982Y403110D02*
X27238Y403110D01*
X27238Y410963D02*
X10982Y410963D01*
X10982Y415479D01*
X10984Y415612D01*
X10990Y415744D01*
X11000Y415876D01*
X11013Y416008D01*
X11031Y416140D01*
X11052Y416270D01*
X11077Y416401D01*
X11106Y416530D01*
X11139Y416658D01*
X11175Y416786D01*
X11215Y416912D01*
X11259Y417037D01*
X11307Y417161D01*
X11358Y417283D01*
X11413Y417404D01*
X11471Y417523D01*
X11533Y417641D01*
X11598Y417756D01*
X11667Y417870D01*
X11738Y417981D01*
X11814Y418090D01*
X11892Y418197D01*
X11973Y418302D01*
X12058Y418404D01*
X12145Y418504D01*
X12235Y418601D01*
X12328Y418696D01*
X12424Y418787D01*
X12522Y418876D01*
X12623Y418962D01*
X12727Y419045D01*
X12833Y419125D01*
X12941Y419201D01*
X13051Y419275D01*
X13164Y419345D01*
X13278Y419412D01*
X13395Y419475D01*
X13513Y419535D01*
X13633Y419592D01*
X13755Y419645D01*
X13878Y419694D01*
X14002Y419740D01*
X14128Y419782D01*
X14255Y419820D01*
X14383Y419855D01*
X14512Y419886D01*
X14641Y419913D01*
X14772Y419936D01*
X14903Y419956D01*
X15035Y419971D01*
X15167Y419983D01*
X15299Y419991D01*
X15432Y419995D01*
X15564Y419995D01*
X15697Y419991D01*
X15829Y419983D01*
X15961Y419971D01*
X16093Y419956D01*
X16224Y419936D01*
X16355Y419913D01*
X16484Y419886D01*
X16613Y419855D01*
X16741Y419820D01*
X16868Y419782D01*
X16994Y419740D01*
X17118Y419694D01*
X17241Y419645D01*
X17363Y419592D01*
X17483Y419535D01*
X17601Y419475D01*
X17718Y419412D01*
X17832Y419345D01*
X17945Y419275D01*
X18055Y419201D01*
X18163Y419125D01*
X18269Y419045D01*
X18373Y418962D01*
X18474Y418876D01*
X18572Y418787D01*
X18668Y418696D01*
X18761Y418601D01*
X18851Y418504D01*
X18938Y418404D01*
X19023Y418302D01*
X19104Y418197D01*
X19182Y418090D01*
X19258Y417981D01*
X19329Y417870D01*
X19398Y417756D01*
X19463Y417641D01*
X19525Y417523D01*
X19583Y417404D01*
X19638Y417283D01*
X19689Y417161D01*
X19737Y417037D01*
X19781Y416912D01*
X19821Y416786D01*
X19857Y416658D01*
X19890Y416530D01*
X19919Y416401D01*
X19944Y416270D01*
X19965Y416140D01*
X19983Y416008D01*
X19996Y415876D01*
X20006Y415744D01*
X20012Y415612D01*
X20014Y415479D01*
X20013Y415479D02*
X20013Y410963D01*
X22722Y426383D02*
X10982Y426383D01*
X22722Y426383D02*
X22855Y426385D01*
X22987Y426391D01*
X23119Y426401D01*
X23251Y426414D01*
X23383Y426432D01*
X23513Y426453D01*
X23644Y426478D01*
X23773Y426507D01*
X23901Y426540D01*
X24029Y426576D01*
X24155Y426616D01*
X24280Y426660D01*
X24404Y426708D01*
X24526Y426759D01*
X24647Y426814D01*
X24766Y426872D01*
X24884Y426934D01*
X24999Y426999D01*
X25113Y427068D01*
X25224Y427139D01*
X25333Y427215D01*
X25440Y427293D01*
X25545Y427374D01*
X25647Y427459D01*
X25747Y427546D01*
X25844Y427636D01*
X25939Y427729D01*
X26030Y427825D01*
X26119Y427923D01*
X26205Y428024D01*
X26288Y428128D01*
X26368Y428234D01*
X26444Y428342D01*
X26518Y428452D01*
X26588Y428565D01*
X26655Y428679D01*
X26718Y428796D01*
X26778Y428914D01*
X26835Y429034D01*
X26888Y429156D01*
X26937Y429279D01*
X26983Y429403D01*
X27025Y429529D01*
X27063Y429656D01*
X27098Y429784D01*
X27129Y429913D01*
X27156Y430042D01*
X27179Y430173D01*
X27199Y430304D01*
X27214Y430436D01*
X27226Y430568D01*
X27234Y430700D01*
X27238Y430833D01*
X27238Y430965D01*
X27234Y431098D01*
X27226Y431230D01*
X27214Y431362D01*
X27199Y431494D01*
X27179Y431625D01*
X27156Y431756D01*
X27129Y431885D01*
X27098Y432014D01*
X27063Y432142D01*
X27025Y432269D01*
X26983Y432395D01*
X26937Y432519D01*
X26888Y432642D01*
X26835Y432764D01*
X26778Y432884D01*
X26718Y433002D01*
X26655Y433119D01*
X26588Y433233D01*
X26518Y433346D01*
X26444Y433456D01*
X26368Y433564D01*
X26288Y433670D01*
X26205Y433774D01*
X26119Y433875D01*
X26030Y433973D01*
X25939Y434069D01*
X25844Y434162D01*
X25747Y434252D01*
X25647Y434339D01*
X25545Y434424D01*
X25440Y434505D01*
X25333Y434583D01*
X25224Y434659D01*
X25113Y434730D01*
X24999Y434799D01*
X24884Y434864D01*
X24766Y434926D01*
X24647Y434984D01*
X24526Y435039D01*
X24404Y435090D01*
X24280Y435138D01*
X24155Y435182D01*
X24029Y435222D01*
X23901Y435258D01*
X23773Y435291D01*
X23644Y435320D01*
X23513Y435345D01*
X23383Y435366D01*
X23251Y435384D01*
X23119Y435397D01*
X22987Y435407D01*
X22855Y435413D01*
X22722Y435415D01*
X22722Y435414D02*
X10982Y435414D01*
X10982Y446009D02*
X27238Y446009D01*
X10982Y441494D02*
X10982Y450525D01*
X517498Y370762D02*
X524722Y370762D01*
X517498Y370762D02*
X517365Y370764D01*
X517233Y370770D01*
X517101Y370780D01*
X516969Y370793D01*
X516837Y370811D01*
X516707Y370832D01*
X516576Y370857D01*
X516447Y370886D01*
X516319Y370919D01*
X516191Y370955D01*
X516065Y370995D01*
X515940Y371039D01*
X515816Y371087D01*
X515694Y371138D01*
X515573Y371193D01*
X515454Y371251D01*
X515336Y371313D01*
X515221Y371378D01*
X515107Y371447D01*
X514996Y371518D01*
X514887Y371594D01*
X514780Y371672D01*
X514675Y371753D01*
X514573Y371838D01*
X514473Y371925D01*
X514376Y372015D01*
X514281Y372108D01*
X514190Y372204D01*
X514101Y372302D01*
X514015Y372403D01*
X513932Y372507D01*
X513852Y372613D01*
X513776Y372721D01*
X513702Y372831D01*
X513632Y372944D01*
X513565Y373058D01*
X513502Y373175D01*
X513442Y373293D01*
X513385Y373413D01*
X513332Y373535D01*
X513283Y373658D01*
X513237Y373782D01*
X513195Y373908D01*
X513157Y374035D01*
X513122Y374163D01*
X513091Y374292D01*
X513064Y374421D01*
X513041Y374552D01*
X513021Y374683D01*
X513006Y374815D01*
X512994Y374947D01*
X512986Y375079D01*
X512982Y375212D01*
X512982Y375344D01*
X512986Y375477D01*
X512994Y375609D01*
X513006Y375741D01*
X513021Y375873D01*
X513041Y376004D01*
X513064Y376135D01*
X513091Y376264D01*
X513122Y376393D01*
X513157Y376521D01*
X513195Y376648D01*
X513237Y376774D01*
X513283Y376898D01*
X513332Y377021D01*
X513385Y377143D01*
X513442Y377263D01*
X513502Y377381D01*
X513565Y377498D01*
X513632Y377612D01*
X513702Y377725D01*
X513776Y377835D01*
X513852Y377943D01*
X513932Y378049D01*
X514015Y378153D01*
X514101Y378254D01*
X514190Y378352D01*
X514281Y378448D01*
X514376Y378541D01*
X514473Y378631D01*
X514573Y378718D01*
X514675Y378803D01*
X514780Y378884D01*
X514887Y378962D01*
X514996Y379038D01*
X515107Y379109D01*
X515221Y379178D01*
X515336Y379243D01*
X515454Y379305D01*
X515573Y379363D01*
X515694Y379418D01*
X515816Y379469D01*
X515940Y379517D01*
X516065Y379561D01*
X516191Y379601D01*
X516319Y379637D01*
X516447Y379670D01*
X516576Y379699D01*
X516707Y379724D01*
X516837Y379745D01*
X516969Y379763D01*
X517101Y379776D01*
X517233Y379786D01*
X517365Y379792D01*
X517498Y379794D01*
X517498Y379793D02*
X524722Y379793D01*
X524722Y379794D02*
X524855Y379792D01*
X524987Y379786D01*
X525119Y379776D01*
X525251Y379763D01*
X525383Y379745D01*
X525513Y379724D01*
X525644Y379699D01*
X525773Y379670D01*
X525901Y379637D01*
X526029Y379601D01*
X526155Y379561D01*
X526280Y379517D01*
X526404Y379469D01*
X526526Y379418D01*
X526647Y379363D01*
X526766Y379305D01*
X526884Y379243D01*
X526999Y379178D01*
X527113Y379109D01*
X527224Y379038D01*
X527333Y378962D01*
X527440Y378884D01*
X527545Y378803D01*
X527647Y378718D01*
X527747Y378631D01*
X527844Y378541D01*
X527939Y378448D01*
X528030Y378352D01*
X528119Y378254D01*
X528205Y378153D01*
X528288Y378049D01*
X528368Y377943D01*
X528444Y377835D01*
X528518Y377725D01*
X528588Y377612D01*
X528655Y377498D01*
X528718Y377381D01*
X528778Y377263D01*
X528835Y377143D01*
X528888Y377021D01*
X528937Y376898D01*
X528983Y376774D01*
X529025Y376648D01*
X529063Y376521D01*
X529098Y376393D01*
X529129Y376264D01*
X529156Y376135D01*
X529179Y376004D01*
X529199Y375873D01*
X529214Y375741D01*
X529226Y375609D01*
X529234Y375477D01*
X529238Y375344D01*
X529238Y375212D01*
X529234Y375079D01*
X529226Y374947D01*
X529214Y374815D01*
X529199Y374683D01*
X529179Y374552D01*
X529156Y374421D01*
X529129Y374292D01*
X529098Y374163D01*
X529063Y374035D01*
X529025Y373908D01*
X528983Y373782D01*
X528937Y373658D01*
X528888Y373535D01*
X528835Y373413D01*
X528778Y373293D01*
X528718Y373175D01*
X528655Y373058D01*
X528588Y372944D01*
X528518Y372831D01*
X528444Y372721D01*
X528368Y372613D01*
X528288Y372507D01*
X528205Y372403D01*
X528119Y372302D01*
X528030Y372204D01*
X527939Y372108D01*
X527844Y372015D01*
X527747Y371925D01*
X527647Y371838D01*
X527545Y371753D01*
X527440Y371672D01*
X527333Y371594D01*
X527224Y371518D01*
X527113Y371447D01*
X526999Y371378D01*
X526884Y371313D01*
X526766Y371251D01*
X526647Y371193D01*
X526526Y371138D01*
X526404Y371087D01*
X526280Y371039D01*
X526155Y370995D01*
X526029Y370955D01*
X525901Y370919D01*
X525773Y370886D01*
X525644Y370857D01*
X525513Y370832D01*
X525383Y370811D01*
X525251Y370793D01*
X525119Y370780D01*
X524987Y370770D01*
X524855Y370764D01*
X524722Y370762D01*
X524722Y386914D02*
X512982Y386914D01*
X524722Y386914D02*
X524855Y386916D01*
X524987Y386922D01*
X525119Y386932D01*
X525251Y386945D01*
X525383Y386963D01*
X525513Y386984D01*
X525644Y387009D01*
X525773Y387038D01*
X525901Y387071D01*
X526029Y387107D01*
X526155Y387147D01*
X526280Y387191D01*
X526404Y387239D01*
X526526Y387290D01*
X526647Y387345D01*
X526766Y387403D01*
X526884Y387465D01*
X526999Y387530D01*
X527113Y387599D01*
X527224Y387670D01*
X527333Y387746D01*
X527440Y387824D01*
X527545Y387905D01*
X527647Y387990D01*
X527747Y388077D01*
X527844Y388167D01*
X527939Y388260D01*
X528030Y388356D01*
X528119Y388454D01*
X528205Y388555D01*
X528288Y388659D01*
X528368Y388765D01*
X528444Y388873D01*
X528518Y388983D01*
X528588Y389096D01*
X528655Y389210D01*
X528718Y389327D01*
X528778Y389445D01*
X528835Y389565D01*
X528888Y389687D01*
X528937Y389810D01*
X528983Y389934D01*
X529025Y390060D01*
X529063Y390187D01*
X529098Y390315D01*
X529129Y390444D01*
X529156Y390573D01*
X529179Y390704D01*
X529199Y390835D01*
X529214Y390967D01*
X529226Y391099D01*
X529234Y391231D01*
X529238Y391364D01*
X529238Y391496D01*
X529234Y391629D01*
X529226Y391761D01*
X529214Y391893D01*
X529199Y392025D01*
X529179Y392156D01*
X529156Y392287D01*
X529129Y392416D01*
X529098Y392545D01*
X529063Y392673D01*
X529025Y392800D01*
X528983Y392926D01*
X528937Y393050D01*
X528888Y393173D01*
X528835Y393295D01*
X528778Y393415D01*
X528718Y393533D01*
X528655Y393650D01*
X528588Y393764D01*
X528518Y393877D01*
X528444Y393987D01*
X528368Y394095D01*
X528288Y394201D01*
X528205Y394305D01*
X528119Y394406D01*
X528030Y394504D01*
X527939Y394600D01*
X527844Y394693D01*
X527747Y394783D01*
X527647Y394870D01*
X527545Y394955D01*
X527440Y395036D01*
X527333Y395114D01*
X527224Y395190D01*
X527113Y395261D01*
X526999Y395330D01*
X526884Y395395D01*
X526766Y395457D01*
X526647Y395515D01*
X526526Y395570D01*
X526404Y395621D01*
X526280Y395669D01*
X526155Y395713D01*
X526029Y395753D01*
X525901Y395789D01*
X525773Y395822D01*
X525644Y395851D01*
X525513Y395876D01*
X525383Y395897D01*
X525251Y395915D01*
X525119Y395928D01*
X524987Y395938D01*
X524855Y395944D01*
X524722Y395946D01*
X524722Y395945D02*
X512982Y395945D01*
X512982Y406540D02*
X529238Y406540D01*
X512982Y402025D02*
X512982Y411056D01*
X512982Y417346D02*
X529238Y417346D01*
X512982Y417346D02*
X512982Y421861D01*
X512984Y421994D01*
X512990Y422126D01*
X513000Y422258D01*
X513013Y422390D01*
X513031Y422522D01*
X513052Y422652D01*
X513077Y422783D01*
X513106Y422912D01*
X513139Y423040D01*
X513175Y423168D01*
X513215Y423294D01*
X513259Y423419D01*
X513307Y423543D01*
X513358Y423665D01*
X513413Y423786D01*
X513471Y423905D01*
X513533Y424023D01*
X513598Y424138D01*
X513667Y424252D01*
X513738Y424363D01*
X513814Y424472D01*
X513892Y424579D01*
X513973Y424684D01*
X514058Y424786D01*
X514145Y424886D01*
X514235Y424983D01*
X514328Y425078D01*
X514424Y425169D01*
X514522Y425258D01*
X514623Y425344D01*
X514727Y425427D01*
X514833Y425507D01*
X514941Y425583D01*
X515051Y425657D01*
X515164Y425727D01*
X515278Y425794D01*
X515395Y425857D01*
X515513Y425917D01*
X515633Y425974D01*
X515755Y426027D01*
X515878Y426076D01*
X516002Y426122D01*
X516128Y426164D01*
X516255Y426202D01*
X516383Y426237D01*
X516512Y426268D01*
X516641Y426295D01*
X516772Y426318D01*
X516903Y426338D01*
X517035Y426353D01*
X517167Y426365D01*
X517299Y426373D01*
X517432Y426377D01*
X517564Y426377D01*
X517697Y426373D01*
X517829Y426365D01*
X517961Y426353D01*
X518093Y426338D01*
X518224Y426318D01*
X518355Y426295D01*
X518484Y426268D01*
X518613Y426237D01*
X518741Y426202D01*
X518868Y426164D01*
X518994Y426122D01*
X519118Y426076D01*
X519241Y426027D01*
X519363Y425974D01*
X519483Y425917D01*
X519601Y425857D01*
X519718Y425794D01*
X519832Y425727D01*
X519945Y425657D01*
X520055Y425583D01*
X520163Y425507D01*
X520269Y425427D01*
X520373Y425344D01*
X520474Y425258D01*
X520572Y425169D01*
X520668Y425078D01*
X520761Y424983D01*
X520851Y424886D01*
X520938Y424786D01*
X521023Y424684D01*
X521104Y424579D01*
X521182Y424472D01*
X521258Y424363D01*
X521329Y424252D01*
X521398Y424138D01*
X521463Y424023D01*
X521525Y423905D01*
X521583Y423786D01*
X521638Y423665D01*
X521689Y423543D01*
X521737Y423419D01*
X521781Y423294D01*
X521821Y423168D01*
X521857Y423040D01*
X521890Y422912D01*
X521919Y422783D01*
X521944Y422652D01*
X521965Y422522D01*
X521983Y422390D01*
X521996Y422258D01*
X522006Y422126D01*
X522012Y421994D01*
X522014Y421861D01*
X522013Y421861D02*
X522013Y417346D01*
X524722Y432766D02*
X512982Y432766D01*
X524722Y432766D02*
X524855Y432768D01*
X524987Y432774D01*
X525119Y432784D01*
X525251Y432797D01*
X525383Y432815D01*
X525513Y432836D01*
X525644Y432861D01*
X525773Y432890D01*
X525901Y432923D01*
X526029Y432959D01*
X526155Y432999D01*
X526280Y433043D01*
X526404Y433091D01*
X526526Y433142D01*
X526647Y433197D01*
X526766Y433255D01*
X526884Y433317D01*
X526999Y433382D01*
X527113Y433451D01*
X527224Y433522D01*
X527333Y433598D01*
X527440Y433676D01*
X527545Y433757D01*
X527647Y433842D01*
X527747Y433929D01*
X527844Y434019D01*
X527939Y434112D01*
X528030Y434208D01*
X528119Y434306D01*
X528205Y434407D01*
X528288Y434511D01*
X528368Y434617D01*
X528444Y434725D01*
X528518Y434835D01*
X528588Y434948D01*
X528655Y435062D01*
X528718Y435179D01*
X528778Y435297D01*
X528835Y435417D01*
X528888Y435539D01*
X528937Y435662D01*
X528983Y435786D01*
X529025Y435912D01*
X529063Y436039D01*
X529098Y436167D01*
X529129Y436296D01*
X529156Y436425D01*
X529179Y436556D01*
X529199Y436687D01*
X529214Y436819D01*
X529226Y436951D01*
X529234Y437083D01*
X529238Y437216D01*
X529238Y437348D01*
X529234Y437481D01*
X529226Y437613D01*
X529214Y437745D01*
X529199Y437877D01*
X529179Y438008D01*
X529156Y438139D01*
X529129Y438268D01*
X529098Y438397D01*
X529063Y438525D01*
X529025Y438652D01*
X528983Y438778D01*
X528937Y438902D01*
X528888Y439025D01*
X528835Y439147D01*
X528778Y439267D01*
X528718Y439385D01*
X528655Y439502D01*
X528588Y439616D01*
X528518Y439729D01*
X528444Y439839D01*
X528368Y439947D01*
X528288Y440053D01*
X528205Y440157D01*
X528119Y440258D01*
X528030Y440356D01*
X527939Y440452D01*
X527844Y440545D01*
X527747Y440635D01*
X527647Y440722D01*
X527545Y440807D01*
X527440Y440888D01*
X527333Y440966D01*
X527224Y441042D01*
X527113Y441113D01*
X526999Y441182D01*
X526884Y441247D01*
X526766Y441309D01*
X526647Y441367D01*
X526526Y441422D01*
X526404Y441473D01*
X526280Y441521D01*
X526155Y441565D01*
X526029Y441605D01*
X525901Y441641D01*
X525773Y441674D01*
X525644Y441703D01*
X525513Y441728D01*
X525383Y441749D01*
X525251Y441767D01*
X525119Y441780D01*
X524987Y441790D01*
X524855Y441796D01*
X524722Y441798D01*
X524722Y441797D02*
X512982Y441797D01*
X512982Y452392D02*
X529238Y452392D01*
X512982Y447876D02*
X512982Y456907D01*
D11*
X535000Y535000D02*
X5000Y535000D01*
X5000Y5000D01*
X535000Y5000D01*
X535000Y535000D01*
X190000Y270000D02*
X190024Y271963D01*
X190096Y273925D01*
X190217Y275885D01*
X190385Y277841D01*
X190602Y279793D01*
X190866Y281738D01*
X191178Y283677D01*
X191537Y285607D01*
X191944Y287528D01*
X192397Y289438D01*
X192898Y291337D01*
X193445Y293223D01*
X194038Y295095D01*
X194676Y296951D01*
X195361Y298792D01*
X196090Y300615D01*
X196863Y302419D01*
X197681Y304204D01*
X198542Y305969D01*
X199446Y307712D01*
X200393Y309432D01*
X201382Y311128D01*
X202412Y312800D01*
X203482Y314446D01*
X204593Y316065D01*
X205743Y317656D01*
X206932Y319219D01*
X208159Y320751D01*
X209423Y322254D01*
X210724Y323725D01*
X212060Y325163D01*
X213431Y326569D01*
X214837Y327940D01*
X216275Y329276D01*
X217746Y330577D01*
X219249Y331841D01*
X220781Y333068D01*
X222344Y334257D01*
X223935Y335407D01*
X225554Y336518D01*
X227200Y337588D01*
X228872Y338618D01*
X230568Y339607D01*
X232288Y340554D01*
X234031Y341458D01*
X235796Y342319D01*
X237581Y343137D01*
X239385Y343910D01*
X241208Y344639D01*
X243049Y345324D01*
X244905Y345962D01*
X246777Y346555D01*
X248663Y347102D01*
X250562Y347603D01*
X252472Y348056D01*
X254393Y348463D01*
X256323Y348822D01*
X258262Y349134D01*
X260207Y349398D01*
X262159Y349615D01*
X264115Y349783D01*
X266075Y349904D01*
X268037Y349976D01*
X270000Y350000D01*
X271963Y349976D01*
X273925Y349904D01*
X275885Y349783D01*
X277841Y349615D01*
X279793Y349398D01*
X281738Y349134D01*
X283677Y348822D01*
X285607Y348463D01*
X287528Y348056D01*
X289438Y347603D01*
X291337Y347102D01*
X293223Y346555D01*
X295095Y345962D01*
X296951Y345324D01*
X298792Y344639D01*
X300615Y343910D01*
X302419Y343137D01*
X304204Y342319D01*
X305969Y341458D01*
X307712Y340554D01*
X309432Y339607D01*
X311128Y338618D01*
X312800Y337588D01*
X314446Y336518D01*
X316065Y335407D01*
X317656Y334257D01*
X319219Y333068D01*
X320751Y331841D01*
X322254Y330577D01*
X323725Y329276D01*
X325163Y327940D01*
X326569Y326569D01*
X327940Y325163D01*
X329276Y323725D01*
X330577Y322254D01*
X331841Y320751D01*
X333068Y319219D01*
X334257Y317656D01*
X335407Y316065D01*
X336518Y314446D01*
X337588Y312800D01*
X338618Y311128D01*
X339607Y309432D01*
X340554Y307712D01*
X341458Y305969D01*
X342319Y304204D01*
X343137Y302419D01*
X343910Y300615D01*
X344639Y298792D01*
X345324Y296951D01*
X345962Y295095D01*
X346555Y293223D01*
X347102Y291337D01*
X347603Y289438D01*
X348056Y287528D01*
X348463Y285607D01*
X348822Y283677D01*
X349134Y281738D01*
X349398Y279793D01*
X349615Y277841D01*
X349783Y275885D01*
X349904Y273925D01*
X349976Y271963D01*
X350000Y270000D01*
X349976Y268037D01*
X349904Y266075D01*
X349783Y264115D01*
X349615Y262159D01*
X349398Y260207D01*
X349134Y258262D01*
X348822Y256323D01*
X348463Y254393D01*
X348056Y252472D01*
X347603Y250562D01*
X347102Y248663D01*
X346555Y246777D01*
X345962Y244905D01*
X345324Y243049D01*
X344639Y241208D01*
X343910Y239385D01*
X343137Y237581D01*
X342319Y235796D01*
X341458Y234031D01*
X340554Y232288D01*
X339607Y230568D01*
X338618Y228872D01*
X337588Y227200D01*
X336518Y225554D01*
X335407Y223935D01*
X334257Y222344D01*
X333068Y220781D01*
X331841Y219249D01*
X330577Y217746D01*
X329276Y216275D01*
X327940Y214837D01*
X326569Y213431D01*
X325163Y212060D01*
X323725Y210724D01*
X322254Y209423D01*
X320751Y208159D01*
X319219Y206932D01*
X317656Y205743D01*
X316065Y204593D01*
X314446Y203482D01*
X312800Y202412D01*
X311128Y201382D01*
X309432Y200393D01*
X307712Y199446D01*
X305969Y198542D01*
X304204Y197681D01*
X302419Y196863D01*
X300615Y196090D01*
X298792Y195361D01*
X296951Y194676D01*
X295095Y194038D01*
X293223Y193445D01*
X291337Y192898D01*
X289438Y192397D01*
X287528Y191944D01*
X285607Y191537D01*
X283677Y191178D01*
X281738Y190866D01*
X279793Y190602D01*
X277841Y190385D01*
X275885Y190217D01*
X273925Y190096D01*
X271963Y190024D01*
X270000Y190000D01*
X268037Y190024D01*
X266075Y190096D01*
X264115Y190217D01*
X262159Y190385D01*
X260207Y190602D01*
X258262Y190866D01*
X256323Y191178D01*
X254393Y191537D01*
X252472Y191944D01*
X250562Y192397D01*
X248663Y192898D01*
X246777Y193445D01*
X244905Y194038D01*
X243049Y194676D01*
X241208Y195361D01*
X239385Y196090D01*
X237581Y196863D01*
X235796Y197681D01*
X234031Y198542D01*
X232288Y199446D01*
X230568Y200393D01*
X228872Y201382D01*
X227200Y202412D01*
X225554Y203482D01*
X223935Y204593D01*
X222344Y205743D01*
X220781Y206932D01*
X219249Y208159D01*
X217746Y209423D01*
X216275Y210724D01*
X214837Y212060D01*
X213431Y213431D01*
X212060Y214837D01*
X210724Y216275D01*
X209423Y217746D01*
X208159Y219249D01*
X206932Y220781D01*
X205743Y222344D01*
X204593Y223935D01*
X203482Y225554D01*
X202412Y227200D01*
X201382Y228872D01*
X200393Y230568D01*
X199446Y232288D01*
X198542Y234031D01*
X197681Y235796D01*
X196863Y237581D01*
X196090Y239385D01*
X195361Y241208D01*
X194676Y243049D01*
X194038Y244905D01*
X193445Y246777D01*
X192898Y248663D01*
X192397Y250562D01*
X191944Y252472D01*
X191537Y254393D01*
X191178Y256323D01*
X190866Y258262D01*
X190602Y260207D01*
X190385Y262159D01*
X190217Y264115D01*
X190096Y266075D01*
X190024Y268037D01*
X190000Y270000D01*
D12*
X124892Y226378D02*
X124892Y223838D01*
X124384Y223838D01*
X124384Y223889D01*
X74879Y223889D01*
X74879Y226200D01*
X125095Y273190D02*
X125095Y275908D01*
X124587Y275908D01*
X124587Y275933D01*
X74905Y275933D01*
X74905Y273673D01*
X125400Y258890D02*
X125400Y241872D01*
X74600Y241364D02*
X74600Y250000D01*
X74600Y258636D01*
X74600Y250000D02*
X100000Y275400D01*
D13*
X71425Y278575D03*
D11*
X95825Y278575D02*
X95825Y283401D01*
X97165Y283401D01*
X97235Y283399D01*
X97305Y283394D01*
X97375Y283384D01*
X97444Y283372D01*
X97512Y283355D01*
X97579Y283335D01*
X97646Y283312D01*
X97710Y283285D01*
X97774Y283255D01*
X97836Y283221D01*
X97895Y283185D01*
X97953Y283145D01*
X98009Y283102D01*
X98062Y283057D01*
X98113Y283008D01*
X98162Y282957D01*
X98207Y282904D01*
X98250Y282848D01*
X98290Y282790D01*
X98326Y282731D01*
X98360Y282669D01*
X98390Y282605D01*
X98417Y282541D01*
X98440Y282474D01*
X98460Y282407D01*
X98477Y282339D01*
X98489Y282270D01*
X98499Y282200D01*
X98504Y282130D01*
X98506Y282060D01*
X98506Y279916D01*
X98504Y279846D01*
X98499Y279776D01*
X98489Y279706D01*
X98477Y279637D01*
X98460Y279569D01*
X98440Y279502D01*
X98417Y279435D01*
X98390Y279371D01*
X98360Y279307D01*
X98326Y279245D01*
X98290Y279186D01*
X98250Y279128D01*
X98207Y279072D01*
X98162Y279019D01*
X98113Y278968D01*
X98062Y278919D01*
X98009Y278874D01*
X97953Y278831D01*
X97895Y278791D01*
X97835Y278755D01*
X97774Y278721D01*
X97710Y278691D01*
X97646Y278664D01*
X97579Y278641D01*
X97512Y278621D01*
X97444Y278604D01*
X97375Y278592D01*
X97305Y278582D01*
X97235Y278577D01*
X97165Y278575D01*
X95825Y278575D01*
X101494Y282329D02*
X102835Y283401D01*
X102835Y278575D01*
X104175Y278575D02*
X101494Y278575D01*
D12*
X484892Y226378D02*
X484892Y223838D01*
X484384Y223838D01*
X484384Y223889D01*
X434879Y223889D01*
X434879Y226200D01*
X485095Y273190D02*
X485095Y275908D01*
X484587Y275908D01*
X484587Y275933D01*
X434905Y275933D01*
X434905Y273673D01*
X485400Y258890D02*
X485400Y241872D01*
X434600Y241364D02*
X434600Y250000D01*
X434600Y258636D01*
X434600Y250000D02*
X460000Y275400D01*
D13*
X431425Y278575D03*
D11*
X455825Y278575D02*
X455825Y283401D01*
X457165Y283401D01*
X457235Y283399D01*
X457305Y283394D01*
X457375Y283384D01*
X457444Y283372D01*
X457512Y283355D01*
X457579Y283335D01*
X457646Y283312D01*
X457710Y283285D01*
X457774Y283255D01*
X457836Y283221D01*
X457895Y283185D01*
X457953Y283145D01*
X458009Y283102D01*
X458062Y283057D01*
X458113Y283008D01*
X458162Y282957D01*
X458207Y282904D01*
X458250Y282848D01*
X458290Y282790D01*
X458326Y282731D01*
X458360Y282669D01*
X458390Y282605D01*
X458417Y282541D01*
X458440Y282474D01*
X458460Y282407D01*
X458477Y282339D01*
X458489Y282270D01*
X458499Y282200D01*
X458504Y282130D01*
X458506Y282060D01*
X458506Y279916D01*
X458504Y279846D01*
X458499Y279776D01*
X458489Y279706D01*
X458477Y279637D01*
X458460Y279569D01*
X458440Y279502D01*
X458417Y279435D01*
X458390Y279371D01*
X458360Y279307D01*
X458326Y279245D01*
X458290Y279186D01*
X458250Y279128D01*
X458207Y279072D01*
X458162Y279019D01*
X458113Y278968D01*
X458062Y278919D01*
X458009Y278874D01*
X457953Y278831D01*
X457895Y278791D01*
X457835Y278755D01*
X457774Y278721D01*
X457710Y278691D01*
X457646Y278664D01*
X457579Y278641D01*
X457512Y278621D01*
X457444Y278604D01*
X457375Y278592D01*
X457305Y278582D01*
X457235Y278577D01*
X457165Y278575D01*
X455825Y278575D01*
X462969Y283401D02*
X463037Y283399D01*
X463104Y283393D01*
X463171Y283384D01*
X463238Y283371D01*
X463303Y283354D01*
X463368Y283333D01*
X463431Y283309D01*
X463493Y283281D01*
X463553Y283250D01*
X463611Y283216D01*
X463667Y283178D01*
X463722Y283138D01*
X463773Y283094D01*
X463822Y283047D01*
X463869Y282998D01*
X463913Y282947D01*
X463953Y282892D01*
X463991Y282836D01*
X464025Y282778D01*
X464056Y282718D01*
X464084Y282656D01*
X464108Y282593D01*
X464129Y282528D01*
X464146Y282463D01*
X464159Y282396D01*
X464168Y282329D01*
X464174Y282262D01*
X464176Y282194D01*
X462969Y283401D02*
X462891Y283399D01*
X462813Y283393D01*
X462736Y283383D01*
X462659Y283370D01*
X462583Y283352D01*
X462508Y283331D01*
X462434Y283306D01*
X462362Y283277D01*
X462291Y283245D01*
X462222Y283209D01*
X462154Y283170D01*
X462089Y283127D01*
X462026Y283081D01*
X461965Y283032D01*
X461907Y282980D01*
X461852Y282925D01*
X461799Y282868D01*
X461750Y282808D01*
X461703Y282745D01*
X461660Y282681D01*
X461620Y282614D01*
X461583Y282545D01*
X461550Y282474D01*
X461520Y282402D01*
X461494Y282329D01*
X463773Y281256D02*
X463822Y281305D01*
X463869Y281357D01*
X463912Y281412D01*
X463953Y281469D01*
X463991Y281528D01*
X464025Y281589D01*
X464056Y281652D01*
X464084Y281716D01*
X464108Y281782D01*
X464128Y281848D01*
X464145Y281916D01*
X464158Y281985D01*
X464167Y282054D01*
X464173Y282124D01*
X464175Y282194D01*
X463773Y281256D02*
X461494Y278575D01*
X464175Y278575D01*
D12*
X378950Y137800D02*
X372600Y131450D01*
X372600Y118750D02*
X378950Y112400D01*
X372600Y106050D01*
X372600Y93350D02*
X378950Y87000D01*
X372600Y80650D01*
X372600Y67950D02*
X378950Y61600D01*
X372600Y55250D01*
X372600Y42550D02*
X378950Y36200D01*
X378950Y137800D02*
X417050Y137800D01*
X423400Y131450D01*
X423400Y118750D01*
X417050Y112400D01*
X423400Y106050D01*
X423400Y93350D01*
X417050Y87000D01*
X423400Y80650D01*
X423400Y67950D01*
X417050Y61600D01*
X423400Y55250D01*
X423400Y42550D01*
X417050Y36200D01*
X378950Y36200D01*
X372600Y42550D02*
X372600Y55250D01*
X372600Y67950D02*
X372600Y80650D01*
X372600Y93350D02*
X372600Y106050D01*
X372600Y118750D02*
X372600Y131450D01*
X370060Y131450D02*
X370060Y118750D01*
X372600Y131450D02*
X378950Y137800D01*
X417050Y137800D01*
X423400Y131450D01*
D11*
X444275Y93436D02*
X448029Y93436D01*
X448094Y93434D01*
X448158Y93428D01*
X448222Y93418D01*
X448286Y93405D01*
X448348Y93387D01*
X448409Y93366D01*
X448469Y93342D01*
X448527Y93313D01*
X448584Y93281D01*
X448638Y93246D01*
X448690Y93208D01*
X448740Y93166D01*
X448787Y93122D01*
X448831Y93075D01*
X448873Y93025D01*
X448911Y92973D01*
X448946Y92919D01*
X448978Y92862D01*
X449007Y92804D01*
X449031Y92744D01*
X449052Y92683D01*
X449070Y92621D01*
X449083Y92557D01*
X449093Y92493D01*
X449099Y92429D01*
X449101Y92364D01*
X449101Y91827D01*
X449101Y96384D02*
X449101Y97993D01*
X449099Y98058D01*
X449093Y98122D01*
X449083Y98186D01*
X449070Y98250D01*
X449052Y98312D01*
X449031Y98373D01*
X449007Y98433D01*
X448978Y98491D01*
X448946Y98548D01*
X448911Y98602D01*
X448873Y98654D01*
X448831Y98704D01*
X448787Y98751D01*
X448740Y98795D01*
X448690Y98837D01*
X448638Y98875D01*
X448584Y98910D01*
X448527Y98942D01*
X448469Y98971D01*
X448409Y98995D01*
X448348Y99016D01*
X448286Y99034D01*
X448222Y99047D01*
X448158Y99057D01*
X448094Y99063D01*
X448029Y99065D01*
X447492Y99065D01*
X447427Y99063D01*
X447363Y99057D01*
X447299Y99047D01*
X447235Y99034D01*
X447173Y99016D01*
X447112Y98995D01*
X447052Y98971D01*
X446994Y98942D01*
X446937Y98910D01*
X446883Y98875D01*
X446831Y98837D01*
X446781Y98795D01*
X446734Y98751D01*
X446690Y98704D01*
X446648Y98654D01*
X446610Y98602D01*
X446575Y98548D01*
X446543Y98491D01*
X446514Y98433D01*
X446490Y98373D01*
X446469Y98312D01*
X446451Y98250D01*
X446438Y98186D01*
X446428Y98122D01*
X446422Y98058D01*
X446420Y97993D01*
X446420Y96384D01*
X444275Y96384D01*
X444275Y99065D01*
D12*
X105550Y25600D02*
X99200Y31950D01*
X118250Y25600D02*
X124600Y31950D01*
X130950Y25600D01*
X143650Y25600D02*
X150000Y31950D01*
X156350Y25600D01*
X169050Y25600D02*
X175400Y31950D01*
X181750Y25600D01*
X194450Y25600D02*
X200800Y31950D01*
X99200Y31950D02*
X99200Y70050D01*
X105550Y76400D01*
X118250Y76400D01*
X124600Y70050D01*
X130950Y76400D01*
X143650Y76400D01*
X150000Y70050D01*
X156350Y76400D01*
X169050Y76400D01*
X175400Y70050D01*
X181750Y76400D01*
X194450Y76400D01*
X200800Y70050D01*
X200800Y31950D01*
X194450Y25600D02*
X181750Y25600D01*
X169050Y25600D02*
X156350Y25600D01*
X143650Y25600D02*
X130950Y25600D01*
X118250Y25600D02*
X105550Y25600D01*
X105550Y23060D02*
X118250Y23060D01*
X105550Y25600D02*
X99200Y31950D01*
X99200Y70050D01*
X105550Y76400D01*
D11*
X101444Y80647D02*
X101444Y84401D01*
X101443Y80647D02*
X101441Y80582D01*
X101435Y80518D01*
X101425Y80454D01*
X101412Y80390D01*
X101394Y80328D01*
X101373Y80267D01*
X101349Y80207D01*
X101320Y80149D01*
X101288Y80092D01*
X101253Y80038D01*
X101215Y79986D01*
X101173Y79936D01*
X101129Y79889D01*
X101082Y79845D01*
X101032Y79803D01*
X100980Y79765D01*
X100926Y79730D01*
X100869Y79698D01*
X100811Y79669D01*
X100751Y79645D01*
X100690Y79624D01*
X100628Y79606D01*
X100564Y79593D01*
X100500Y79583D01*
X100436Y79577D01*
X100371Y79575D01*
X99835Y79575D01*
X104392Y83865D02*
X104392Y84401D01*
X107073Y84401D01*
X105732Y79575D01*
M02*
