M48
;GenerationSoftware,Autodesk,EAGLE,9.2.2*%
;CreationDate,2018-12-16T07:41:16Z*%
FMAT,2
ICI,OFF
METRIC,TZ,000.000
T7C0.350
T6C0.508
T5C1.016
T4C3.200
T3C4.000
T2C4.900
T1C15.000
%
G90
M71
T1
X27000Y27000
T2
X37160Y47740
T3
X11760Y37850
T4
X6000Y6000
X48000Y48000
X6000Y48000
X48000Y6000
T5
X11190Y3830
X41070Y4890
X38530Y4890
X41070Y7430
X38530Y7430
X41070Y9970
X38530Y9970
X41070Y12510
X38530Y12510
X18810Y6370
X11190Y6370
X13730Y3830
X13730Y6370
X16270Y3830
X16270Y6370
X18810Y3830
T6
X30460Y16635
X31730Y16635
X33000Y16635
X34270Y16635
X35540Y15365
X30460Y15365
X31730Y15365
X33000Y15365
X34270Y15365
X35540Y16635
T7
X1500Y44800
X2550Y44800
X2000Y18200
X2550Y39200
X52500Y44800
X51450Y44800
X52500Y39200
X51450Y39200
X11500Y15000
X14500Y43500
X4000Y26500
X45500Y41500
X40500Y36000
X37500Y38000
X8000Y41500
X28000Y2000
X29000Y14500
X33500Y13000
X4000Y10500
X18000Y11500
X28000Y4500
X32000Y4000
X25200Y15200
X15500Y16500
X15500Y21000
X19000Y9500
X21500Y11500
X1400Y18800
X2600Y21350
X1400Y21350
X2000Y20750
X1400Y20200
X2600Y20200
X2600Y17650
X1400Y17650
X2600Y18800
X1500Y39200
M30