G04 EAGLE Gerber RS-274X export*
G75*
%MOMM*%
%FSLAX34Y34*%
%LPD*%
%IN*%
%IPPOS*%
%AMOC8*
5,1,8,0,0,1.08239X$1,22.5*%
G01*
%ADD10C,0.254000*%


D10*
X0Y0D02*
X540000Y0D01*
X540000Y540000D01*
X0Y540000D01*
X0Y0D01*
X76000Y59476D02*
X75932Y58431D01*
X75795Y57392D01*
X75590Y56365D01*
X75319Y55353D01*
X74983Y54361D01*
X74582Y53393D01*
X74118Y52454D01*
X73595Y51546D01*
X73013Y50675D01*
X72375Y49844D01*
X71684Y49057D01*
X70943Y48316D01*
X70156Y47625D01*
X69325Y46988D01*
X68454Y46406D01*
X67546Y45882D01*
X66607Y45418D01*
X65639Y45017D01*
X64647Y44681D01*
X63635Y44410D01*
X62608Y44205D01*
X61569Y44069D01*
X60524Y44000D01*
X59476Y44000D01*
X58431Y44069D01*
X57392Y44205D01*
X56365Y44410D01*
X55353Y44681D01*
X54361Y45017D01*
X53393Y45418D01*
X52454Y45882D01*
X51546Y46406D01*
X50675Y46988D01*
X49844Y47625D01*
X49057Y48316D01*
X48316Y49057D01*
X47625Y49844D01*
X46988Y50675D01*
X46406Y51546D01*
X45882Y52454D01*
X45418Y53393D01*
X45017Y54361D01*
X44681Y55353D01*
X44410Y56365D01*
X44205Y57392D01*
X44069Y58431D01*
X44000Y59476D01*
X44000Y60524D01*
X44069Y61569D01*
X44205Y62608D01*
X44410Y63635D01*
X44681Y64647D01*
X45017Y65639D01*
X45418Y66607D01*
X45882Y67546D01*
X46406Y68454D01*
X46988Y69325D01*
X47625Y70156D01*
X48316Y70943D01*
X49057Y71684D01*
X49844Y72375D01*
X50675Y73013D01*
X51546Y73595D01*
X52454Y74118D01*
X53393Y74582D01*
X54361Y74983D01*
X55353Y75319D01*
X56365Y75590D01*
X57392Y75795D01*
X58431Y75932D01*
X59476Y76000D01*
X60524Y76000D01*
X61569Y75932D01*
X62608Y75795D01*
X63635Y75590D01*
X64647Y75319D01*
X65639Y74983D01*
X66607Y74582D01*
X67546Y74118D01*
X68454Y73595D01*
X69325Y73013D01*
X70156Y72375D01*
X70943Y71684D01*
X71684Y70943D01*
X72375Y70156D01*
X73013Y69325D01*
X73595Y68454D01*
X74118Y67546D01*
X74582Y66607D01*
X74983Y65639D01*
X75319Y64647D01*
X75590Y63635D01*
X75795Y62608D01*
X75932Y61569D01*
X76000Y60524D01*
X76000Y59476D01*
X496000Y479476D02*
X495932Y478431D01*
X495795Y477392D01*
X495590Y476365D01*
X495319Y475353D01*
X494983Y474361D01*
X494582Y473393D01*
X494118Y472454D01*
X493595Y471546D01*
X493013Y470675D01*
X492375Y469844D01*
X491684Y469057D01*
X490943Y468316D01*
X490156Y467625D01*
X489325Y466988D01*
X488454Y466406D01*
X487546Y465882D01*
X486607Y465418D01*
X485639Y465017D01*
X484647Y464681D01*
X483635Y464410D01*
X482608Y464205D01*
X481569Y464069D01*
X480524Y464000D01*
X479476Y464000D01*
X478431Y464069D01*
X477392Y464205D01*
X476365Y464410D01*
X475353Y464681D01*
X474361Y465017D01*
X473393Y465418D01*
X472454Y465882D01*
X471546Y466406D01*
X470675Y466988D01*
X469844Y467625D01*
X469057Y468316D01*
X468316Y469057D01*
X467625Y469844D01*
X466988Y470675D01*
X466406Y471546D01*
X465882Y472454D01*
X465418Y473393D01*
X465017Y474361D01*
X464681Y475353D01*
X464410Y476365D01*
X464205Y477392D01*
X464069Y478431D01*
X464000Y479476D01*
X464000Y480524D01*
X464069Y481569D01*
X464205Y482608D01*
X464410Y483635D01*
X464681Y484647D01*
X465017Y485639D01*
X465418Y486607D01*
X465882Y487546D01*
X466406Y488454D01*
X466988Y489325D01*
X467625Y490156D01*
X468316Y490943D01*
X469057Y491684D01*
X469844Y492375D01*
X470675Y493013D01*
X471546Y493595D01*
X472454Y494118D01*
X473393Y494582D01*
X474361Y494983D01*
X475353Y495319D01*
X476365Y495590D01*
X477392Y495795D01*
X478431Y495932D01*
X479476Y496000D01*
X480524Y496000D01*
X481569Y495932D01*
X482608Y495795D01*
X483635Y495590D01*
X484647Y495319D01*
X485639Y494983D01*
X486607Y494582D01*
X487546Y494118D01*
X488454Y493595D01*
X489325Y493013D01*
X490156Y492375D01*
X490943Y491684D01*
X491684Y490943D01*
X492375Y490156D01*
X493013Y489325D01*
X493595Y488454D01*
X494118Y487546D01*
X494582Y486607D01*
X494983Y485639D01*
X495319Y484647D01*
X495590Y483635D01*
X495795Y482608D01*
X495932Y481569D01*
X496000Y480524D01*
X496000Y479476D01*
X76000Y479476D02*
X75932Y478431D01*
X75795Y477392D01*
X75590Y476365D01*
X75319Y475353D01*
X74983Y474361D01*
X74582Y473393D01*
X74118Y472454D01*
X73595Y471546D01*
X73013Y470675D01*
X72375Y469844D01*
X71684Y469057D01*
X70943Y468316D01*
X70156Y467625D01*
X69325Y466988D01*
X68454Y466406D01*
X67546Y465882D01*
X66607Y465418D01*
X65639Y465017D01*
X64647Y464681D01*
X63635Y464410D01*
X62608Y464205D01*
X61569Y464069D01*
X60524Y464000D01*
X59476Y464000D01*
X58431Y464069D01*
X57392Y464205D01*
X56365Y464410D01*
X55353Y464681D01*
X54361Y465017D01*
X53393Y465418D01*
X52454Y465882D01*
X51546Y466406D01*
X50675Y466988D01*
X49844Y467625D01*
X49057Y468316D01*
X48316Y469057D01*
X47625Y469844D01*
X46988Y470675D01*
X46406Y471546D01*
X45882Y472454D01*
X45418Y473393D01*
X45017Y474361D01*
X44681Y475353D01*
X44410Y476365D01*
X44205Y477392D01*
X44069Y478431D01*
X44000Y479476D01*
X44000Y480524D01*
X44069Y481569D01*
X44205Y482608D01*
X44410Y483635D01*
X44681Y484647D01*
X45017Y485639D01*
X45418Y486607D01*
X45882Y487546D01*
X46406Y488454D01*
X46988Y489325D01*
X47625Y490156D01*
X48316Y490943D01*
X49057Y491684D01*
X49844Y492375D01*
X50675Y493013D01*
X51546Y493595D01*
X52454Y494118D01*
X53393Y494582D01*
X54361Y494983D01*
X55353Y495319D01*
X56365Y495590D01*
X57392Y495795D01*
X58431Y495932D01*
X59476Y496000D01*
X60524Y496000D01*
X61569Y495932D01*
X62608Y495795D01*
X63635Y495590D01*
X64647Y495319D01*
X65639Y494983D01*
X66607Y494582D01*
X67546Y494118D01*
X68454Y493595D01*
X69325Y493013D01*
X70156Y492375D01*
X70943Y491684D01*
X71684Y490943D01*
X72375Y490156D01*
X73013Y489325D01*
X73595Y488454D01*
X74118Y487546D01*
X74582Y486607D01*
X74983Y485639D01*
X75319Y484647D01*
X75590Y483635D01*
X75795Y482608D01*
X75932Y481569D01*
X76000Y480524D01*
X76000Y479476D01*
X496000Y59476D02*
X495932Y58431D01*
X495795Y57392D01*
X495590Y56365D01*
X495319Y55353D01*
X494983Y54361D01*
X494582Y53393D01*
X494118Y52454D01*
X493595Y51546D01*
X493013Y50675D01*
X492375Y49844D01*
X491684Y49057D01*
X490943Y48316D01*
X490156Y47625D01*
X489325Y46988D01*
X488454Y46406D01*
X487546Y45882D01*
X486607Y45418D01*
X485639Y45017D01*
X484647Y44681D01*
X483635Y44410D01*
X482608Y44205D01*
X481569Y44069D01*
X480524Y44000D01*
X479476Y44000D01*
X478431Y44069D01*
X477392Y44205D01*
X476365Y44410D01*
X475353Y44681D01*
X474361Y45017D01*
X473393Y45418D01*
X472454Y45882D01*
X471546Y46406D01*
X470675Y46988D01*
X469844Y47625D01*
X469057Y48316D01*
X468316Y49057D01*
X467625Y49844D01*
X466988Y50675D01*
X466406Y51546D01*
X465882Y52454D01*
X465418Y53393D01*
X465017Y54361D01*
X464681Y55353D01*
X464410Y56365D01*
X464205Y57392D01*
X464069Y58431D01*
X464000Y59476D01*
X464000Y60524D01*
X464069Y61569D01*
X464205Y62608D01*
X464410Y63635D01*
X464681Y64647D01*
X465017Y65639D01*
X465418Y66607D01*
X465882Y67546D01*
X466406Y68454D01*
X466988Y69325D01*
X467625Y70156D01*
X468316Y70943D01*
X469057Y71684D01*
X469844Y72375D01*
X470675Y73013D01*
X471546Y73595D01*
X472454Y74118D01*
X473393Y74582D01*
X474361Y74983D01*
X475353Y75319D01*
X476365Y75590D01*
X477392Y75795D01*
X478431Y75932D01*
X479476Y76000D01*
X480524Y76000D01*
X481569Y75932D01*
X482608Y75795D01*
X483635Y75590D01*
X484647Y75319D01*
X485639Y74983D01*
X486607Y74582D01*
X487546Y74118D01*
X488454Y73595D01*
X489325Y73013D01*
X490156Y72375D01*
X490943Y71684D01*
X491684Y70943D01*
X492375Y70156D01*
X493013Y69325D01*
X493595Y68454D01*
X494118Y67546D01*
X494582Y66607D01*
X494983Y65639D01*
X495319Y64647D01*
X495590Y63635D01*
X495795Y62608D01*
X495932Y61569D01*
X496000Y60524D01*
X496000Y59476D01*
X345000Y268822D02*
X344926Y266467D01*
X344778Y264115D01*
X344556Y261769D01*
X344261Y259431D01*
X343892Y257104D01*
X343451Y254789D01*
X342937Y252489D01*
X342351Y250207D01*
X341693Y247944D01*
X340965Y245703D01*
X340167Y243486D01*
X339300Y241295D01*
X338364Y239133D01*
X337360Y237001D01*
X336291Y234901D01*
X335155Y232836D01*
X333956Y230808D01*
X332693Y228818D01*
X331369Y226869D01*
X329984Y224963D01*
X328540Y223101D01*
X327037Y221285D01*
X325479Y219518D01*
X323866Y217800D01*
X322200Y216134D01*
X320482Y214521D01*
X318715Y212963D01*
X316899Y211461D01*
X315037Y210016D01*
X313131Y208631D01*
X311182Y207307D01*
X309192Y206044D01*
X307164Y204845D01*
X305099Y203709D01*
X303000Y202640D01*
X300867Y201636D01*
X298705Y200701D01*
X296514Y199833D01*
X294297Y199035D01*
X292056Y198307D01*
X289793Y197649D01*
X287511Y197063D01*
X285211Y196549D01*
X282896Y196108D01*
X280569Y195739D01*
X278231Y195444D01*
X275885Y195222D01*
X273533Y195074D01*
X271178Y195000D01*
X268822Y195000D01*
X266467Y195074D01*
X264115Y195222D01*
X261769Y195444D01*
X259431Y195739D01*
X257104Y196108D01*
X254789Y196549D01*
X252489Y197063D01*
X250207Y197649D01*
X247944Y198307D01*
X245703Y199035D01*
X243486Y199833D01*
X241295Y200701D01*
X239133Y201636D01*
X237001Y202640D01*
X234901Y203709D01*
X232836Y204845D01*
X230808Y206044D01*
X228818Y207307D01*
X226869Y208631D01*
X224963Y210016D01*
X223101Y211461D01*
X221285Y212963D01*
X219518Y214521D01*
X217800Y216134D01*
X216134Y217800D01*
X214521Y219518D01*
X212963Y221285D01*
X211461Y223101D01*
X210016Y224963D01*
X208631Y226869D01*
X207307Y228818D01*
X206044Y230808D01*
X204845Y232836D01*
X203709Y234901D01*
X202640Y237001D01*
X201636Y239133D01*
X200701Y241295D01*
X199833Y243486D01*
X199035Y245703D01*
X198307Y247944D01*
X197649Y250207D01*
X197063Y252489D01*
X196549Y254789D01*
X196108Y257104D01*
X195739Y259431D01*
X195444Y261769D01*
X195222Y264115D01*
X195074Y266467D01*
X195000Y268822D01*
X195000Y271178D01*
X195074Y273533D01*
X195222Y275885D01*
X195444Y278231D01*
X195739Y280569D01*
X196108Y282896D01*
X196549Y285211D01*
X197063Y287511D01*
X197649Y289793D01*
X198307Y292056D01*
X199035Y294297D01*
X199833Y296514D01*
X200701Y298705D01*
X201636Y300867D01*
X202640Y303000D01*
X203709Y305099D01*
X204845Y307164D01*
X206044Y309192D01*
X207307Y311182D01*
X208631Y313131D01*
X210016Y315037D01*
X211461Y316899D01*
X212963Y318715D01*
X214521Y320482D01*
X216134Y322200D01*
X217800Y323866D01*
X219518Y325479D01*
X221285Y327037D01*
X223101Y328540D01*
X224963Y329984D01*
X226869Y331369D01*
X228818Y332693D01*
X230808Y333956D01*
X232836Y335155D01*
X234901Y336291D01*
X237001Y337360D01*
X239133Y338364D01*
X241295Y339300D01*
X243486Y340167D01*
X245703Y340965D01*
X247944Y341693D01*
X250207Y342351D01*
X252489Y342937D01*
X254789Y343451D01*
X257104Y343892D01*
X259431Y344261D01*
X261769Y344556D01*
X264115Y344778D01*
X266467Y344926D01*
X268822Y345000D01*
X271178Y345000D01*
X273533Y344926D01*
X275885Y344778D01*
X278231Y344556D01*
X280569Y344261D01*
X282896Y343892D01*
X285211Y343451D01*
X287511Y342937D01*
X289793Y342351D01*
X292056Y341693D01*
X294297Y340965D01*
X296514Y340167D01*
X298705Y339300D01*
X300867Y338364D01*
X303000Y337360D01*
X305099Y336291D01*
X307164Y335155D01*
X309192Y333956D01*
X311182Y332693D01*
X313131Y331369D01*
X315037Y329984D01*
X316899Y328540D01*
X318715Y327037D01*
X320482Y325479D01*
X322200Y323866D01*
X323866Y322200D01*
X325479Y320482D01*
X327037Y318715D01*
X328540Y316899D01*
X329984Y315037D01*
X331369Y313131D01*
X332693Y311182D01*
X333956Y309192D01*
X335155Y307164D01*
X336291Y305099D01*
X337360Y303000D01*
X338364Y300867D01*
X339300Y298705D01*
X340167Y296514D01*
X340965Y294297D01*
X341693Y292056D01*
X342351Y289793D01*
X342937Y287511D01*
X343451Y285211D01*
X343892Y282896D01*
X344261Y280569D01*
X344556Y278231D01*
X344778Y275885D01*
X344926Y273533D01*
X345000Y271178D01*
X345000Y268822D01*
M02*
